<ttFont>
    <TTGlyph name="A" xMin="-102" yMin="-206" xMax="825" yMax="772">
      <contour>
        <pt x="-78" y="-185" on="1"/>
        <pt x="-81" y="-183" on="0"/>
        <pt x="-94" y="-168" on="0"/>
        <pt x="-102" y="-152" on="0"/>
        <pt x="-101" y="-140" on="0"/>
        <pt x="-90" y="-140" on="1"/>
        <pt x="-69" y="-169" on="0"/>
        <pt x="7" y="-155" on="0"/>
        <pt x="95" y="-100" on="0"/>
        <pt x="186" y="-17" on="0"/>
        <pt x="259" y="65" on="0"/>
        <pt x="306" y="131" on="0"/>
        <pt x="306" y="142" on="1"/>
        <pt x="306" y="145" on="0"/>
        <pt x="290" y="158" on="0"/>
        <pt x="269" y="172" on="0"/>
        <pt x="251" y="184" on="0"/>
        <pt x="249" y="187" on="1"/>
        <pt x="252" y="197" on="0"/>
        <pt x="284" y="208" on="0"/>
        <pt x="324" y="217" on="0"/>
        <pt x="363" y="226" on="0"/>
        <pt x="373" y="233" on="1"/>
        <pt x="426" y="310" on="0"/>
        <pt x="505" y="433" on="0"/>
        <pt x="576" y="552" on="0"/>
        <pt x="650" y="678" on="0"/>
        <pt x="698" y="757" on="1"/>
        <pt x="711" y="779" on="0"/>
        <pt x="727" y="765" on="0"/>
        <pt x="735" y="711" on="0"/>
        <pt x="737" y="628" on="0"/>
        <pt x="735" y="532" on="0"/>
        <pt x="730" y="432" on="0"/>
        <pt x="725" y="348" on="0"/>
        <pt x="722" y="287" on="0"/>
        <pt x="723" y="278" on="1"/>
        <pt x="727" y="227" on="0"/>
        <pt x="730" y="152" on="0"/>
        <pt x="746" y="89" on="0"/>
        <pt x="785" y="30" on="0"/>
        <pt x="825" y="-5" on="1"/>
        <pt x="792" y="-16" on="0"/>
        <pt x="749" y="9" on="0"/>
        <pt x="722" y="60" on="0"/>
        <pt x="705" y="127" on="0"/>
        <pt x="690" y="190" on="0"/>
        <pt x="671" y="237" on="0"/>
        <pt x="655" y="244" on="1"/>
        <pt x="654" y="244" on="0"/>
        <pt x="645" y="245" on="0"/>
        <pt x="634" y="245" on="0"/>
        <pt x="624" y="244" on="0"/>
        <pt x="622" y="244" on="1"/>
        <pt x="613" y="242" on="0"/>
        <pt x="564" y="230" on="0"/>
        <pt x="506" y="216" on="0"/>
        <pt x="453" y="202" on="0"/>
        <pt x="441" y="199" on="1"/>
        <pt x="416" y="192" on="0"/>
        <pt x="361" y="142" on="0"/>
        <pt x="300" y="71" on="0"/>
        <pt x="235" y="-13" on="0"/>
        <pt x="167" y="-93" on="0"/>
        <pt x="97" y="-161" on="0"/>
        <pt x="27" y="-203" on="0"/>
        <pt x="-44" y="-208" on="0"/>
      </contour>
      <contour>
        <pt x="464" y="255" on="1"/>
        <pt x="466" y="254" on="0"/>
        <pt x="483" y="254" on="0"/>
        <pt x="486" y="255" on="1"/>
        <pt x="504" y="258" on="0"/>
        <pt x="558" y="266" on="0"/>
        <pt x="612" y="277" on="0"/>
        <pt x="658" y="292" on="0"/>
        <pt x="667" y="301" on="1"/>
        <pt x="667" y="301" on="0"/>
        <pt x="673" y="343" on="0"/>
        <pt x="681" y="408" on="0"/>
        <pt x="690" y="487" on="0"/>
        <pt x="698" y="563" on="0"/>
        <pt x="703" y="628" on="0"/>
        <pt x="704" y="646" on="1"/>
        <pt x="693" y="651" on="0"/>
        <pt x="657" y="590" on="0"/>
        <pt x="600" y="484" on="0"/>
        <pt x="519" y="343" on="0"/>
        <pt x="464" y="267" on="1"/>
      </contour>
    </TTGlyph>
    <TTGlyph name="AE" xMin="-195" yMin="-263" xMax="1422" yMax="694">
      <contour>
        <pt x="550" y="-97" on="1"/>
        <pt x="545" y="-92" on="0"/>
        <pt x="554" y="-86" on="1"/>
        <pt x="563" y="-50" on="0"/>
        <pt x="585" y="15" on="0"/>
        <pt x="597" y="47" on="1"/>
        <pt x="603" y="71" on="0"/>
        <pt x="611" y="113" on="0"/>
        <pt x="613" y="146" on="0"/>
        <pt x="609" y="169" on="0"/>
        <pt x="602" y="174" on="1"/>
        <pt x="601" y="174" on="0"/>
        <pt x="592" y="176" on="0"/>
        <pt x="581" y="178" on="0"/>
        <pt x="571" y="180" on="0"/>
        <pt x="569" y="180" on="1"/>
        <pt x="560" y="180" on="0"/>
        <pt x="516" y="197" on="0"/>
        <pt x="465" y="217" on="0"/>
        <pt x="417" y="233" on="0"/>
        <pt x="405" y="232" on="1"/>
        <pt x="380" y="230" on="0"/>
        <pt x="315" y="192" on="0"/>
        <pt x="242" y="134" on="0"/>
        <pt x="162" y="64" on="0"/>
        <pt x="80" y="-2" on="0"/>
        <pt x="-2" y="-56" on="0"/>
        <pt x="-80" y="-82" on="0"/>
        <pt x="-150" y="-74" on="0"/>
        <pt x="-179" y="-45" on="1"/>
        <pt x="-182" y="-42" on="0"/>
        <pt x="-191" y="-26" on="0"/>
        <pt x="-196" y="-8" on="0"/>
        <pt x="-193" y="4" on="0"/>
        <pt x="-182" y="2" on="1"/>
        <pt x="-170" y="-23" on="0"/>
        <pt x="-121" y="-35" on="0"/>
        <pt x="-55" y="-21" on="0"/>
        <pt x="21" y="14" on="0"/>
        <pt x="98" y="60" on="0"/>
        <pt x="169" y="112" on="0"/>
        <pt x="225" y="158" on="0"/>
        <pt x="260" y="195" on="0"/>
        <pt x="262" y="203" on="1"/>
        <pt x="262" y="206" on="0"/>
        <pt x="249" y="221" on="0"/>
        <pt x="231" y="239" on="0"/>
        <pt x="215" y="255" on="0"/>
        <pt x="214" y="258" on="1"/>
        <pt x="219" y="267" on="0"/>
        <pt x="252" y="272" on="0"/>
        <pt x="293" y="273" on="0"/>
        <pt x="333" y="273" on="0"/>
        <pt x="344" y="278" on="1"/>
        <pt x="389" y="321" on="0"/>
        <pt x="460" y="387" on="0"/>
        <pt x="523" y="442" on="0"/>
        <pt x="581" y="493" on="0"/>
        <pt x="643" y="549" on="0"/>
        <pt x="712" y="616" on="0"/>
        <pt x="755" y="661" on="1"/>
        <pt x="782" y="689" on="0"/>
        <pt x="811" y="698" on="0"/>
        <pt x="823" y="672" on="0"/>
        <pt x="819" y="615" on="0"/>
        <pt x="812" y="578" on="1"/>
        <pt x="846" y="591" on="0"/>
        <pt x="941" y="618" on="0"/>
        <pt x="1048" y="642" on="0"/>
        <pt x="1161" y="663" on="0"/>
        <pt x="1265" y="677" on="0"/>
        <pt x="1353" y="682" on="0"/>
        <pt x="1412" y="674" on="0"/>
        <pt x="1432" y="653" on="0"/>
        <pt x="1417" y="633" on="1"/>
        <pt x="1408" y="631" on="0"/>
        <pt x="1389" y="634" on="0"/>
        <pt x="1369" y="640" on="0"/>
        <pt x="1348" y="645" on="0"/>
        <pt x="1338" y="644" on="1"/>
        <pt x="1290" y="640" on="0"/>
        <pt x="1197" y="620" on="0"/>
        <pt x="1105" y="596" on="0"/>
        <pt x="1013" y="573" on="0"/>
        <pt x="965" y="565" on="1"/>
        <pt x="890" y="552" on="0"/>
        <pt x="812" y="504" on="0"/>
        <pt x="777" y="437" on="0"/>
        <pt x="769" y="350" on="0"/>
        <pt x="765" y="298" on="1"/>
        <pt x="776" y="295" on="0"/>
        <pt x="837" y="309" on="0"/>
        <pt x="916" y="330" on="0"/>
        <pt x="1003" y="351" on="0"/>
        <pt x="1081" y="360" on="0"/>
        <pt x="1139" y="351" on="0"/>
        <pt x="1149" y="332" on="1"/>
        <pt x="1150" y="330" on="0"/>
        <pt x="1150" y="322" on="0"/>
        <pt x="1149" y="321" on="1"/>
        <pt x="1096" y="313" on="0"/>
        <pt x="983" y="300" on="0"/>
        <pt x="872" y="280" on="0"/>
        <pt x="766" y="247" on="0"/>
        <pt x="719" y="219" on="1"/>
        <pt x="718" y="218" on="0"/>
        <pt x="716" y="214" on="1"/>
        <pt x="714" y="207" on="0"/>
        <pt x="712" y="194" on="0"/>
        <pt x="710" y="189" on="1"/>
        <pt x="699" y="132" on="0"/>
        <pt x="658" y="7" on="0"/>
        <pt x="638" y="-50" on="1"/>
        <pt x="668" y="-42" on="0"/>
        <pt x="733" y="-27" on="0"/>
        <pt x="789" y="-15" on="0"/>
        <pt x="828" y="-8" on="0"/>
        <pt x="833" y="-7" on="1"/>
        <pt x="918" y="6" on="0"/>
        <pt x="1075" y="21" on="0"/>
        <pt x="1160" y="16" on="1"/>
        <pt x="1167" y="14" on="0"/>
        <pt x="1173" y="2" on="0"/>
        <pt x="1174" y="-13" on="0"/>
        <pt x="1173" y="-27" on="0"/>
        <pt x="1172" y="-30" on="1"/>
        <pt x="1062" y="-24" on="0"/>
        <pt x="848" y="-52" on="0"/>
        <pt x="742" y="-75" on="1"/>
        <pt x="730" y="-78" on="0"/>
        <pt x="700" y="-89" on="0"/>
        <pt x="667" y="-101" on="0"/>
        <pt x="632" y="-112" on="0"/>
        <pt x="616" y="-115" on="1"/>
        <pt x="596" y="-172" on="0"/>
        <pt x="581" y="-252" on="0"/>
        <pt x="595" y="-263" on="1"/>
        <pt x="572" y="-266" on="0"/>
        <pt x="550" y="-243" on="0"/>
        <pt x="544" y="-199" on="0"/>
        <pt x="551" y="-140" on="0"/>
        <pt x="558" y="-107" on="1"/>
        <pt x="551" y="-104" on="0"/>
      </contour>
      <contour>
        <pt x="438" y="283" on="1"/>
        <pt x="440" y="282" on="0"/>
        <pt x="457" y="278" on="0"/>
        <pt x="459" y="279" on="1"/>
        <pt x="477" y="277" on="0"/>
        <pt x="524" y="255" on="0"/>
        <pt x="567" y="229" on="0"/>
        <pt x="597" y="209" on="0"/>
        <pt x="597" y="209" on="1"/>
        <pt x="624" y="227" on="1"/>
        <pt x="625" y="228" on="0"/>
        <pt x="625" y="229" on="1"/>
        <pt x="625" y="232" on="0"/>
        <pt x="626" y="234" on="1"/>
        <pt x="622" y="241" on="0"/>
        <pt x="621" y="256" on="0"/>
        <pt x="630" y="264" on="1"/>
        <pt x="630" y="266" on="0"/>
        <pt x="638" y="266" on="1"/>
        <pt x="647" y="293" on="0"/>
        <pt x="671" y="368" on="0"/>
        <pt x="696" y="446" on="0"/>
        <pt x="716" y="514" on="0"/>
        <pt x="721" y="534" on="1"/>
        <pt x="717" y="526" on="0"/>
        <pt x="696" y="498" on="0"/>
        <pt x="638" y="444" on="0"/>
        <pt x="531" y="359" on="0"/>
        <pt x="440" y="294" on="1"/>
      </contour>
    </TTGlyph>
    <TTGlyph name="Aacute" xMin="-102" yMin="-206" xMax="825" yMax="873">
      <component glyphName="A" x="0" y="0" flags="0x1204"/>
      <component glyphName="acute" x="580" y="319" flags="0x1004"/>
    </TTGlyph>
    <TTGlyph name="Abreve" xMin="-102" yMin="-206" xMax="825" yMax="906">
      <component glyphName="A" x="0" y="0" flags="0x1204"/>
      <component glyphName="breve" x="574" y="306" flags="0x1004"/>
    </TTGlyph>
    <TTGlyph name="Acircumflex" xMin="-102" yMin="-206" xMax="825" yMax="919">
      <component glyphName="A" x="0" y="0" flags="0x1204"/>
      <component glyphName="circumflex" x="509" y="262" flags="0x1004"/>
    </TTGlyph>
    <TTGlyph name="Adieresis" xMin="-102" yMin="-206" xMax="837" yMax="889">
      <component glyphName="A" x="0" y="0" flags="0x1204"/>
      <component glyphName="dieresis" x="504" y="374" flags="0x1004"/>
    </TTGlyph>
    <TTGlyph name="Agrave" xMin="-102" yMin="-206" xMax="825" yMax="897">
      <component glyphName="A" x="0" y="0" flags="0x1204"/>
      <component glyphName="grave" x="638" y="353" flags="0x1004"/>
    </TTGlyph>
    <TTGlyph name="Aring" xMin="-102" yMin="-206" xMax="840" yMax="935">
      <component glyphName="A" x="0" y="0" flags="0x1204"/>
      <component glyphName="ring" x="490" y="452" flags="0x1004"/>
    </TTGlyph>
    <TTGlyph name="Atilde" xMin="-102" yMin="-206" xMax="1058" yMax="867">
      <component glyphName="A" x="0" y="0" flags="0x1204"/>
      <component glyphName="tilde" x="490" y="305" flags="0x1004"/>
    </TTGlyph>
    <TTGlyph name="B" xMin="20" yMin="-10" xMax="685" yMax="784">
      <contour>
        <pt x="74" y="3" on="1"/>
        <pt x="44" y="20" on="0"/>
        <pt x="20" y="52" on="0"/>
        <pt x="20" y="88" on="0"/>
        <pt x="38" y="132" on="0"/>
        <pt x="50" y="161" on="1"/>
        <pt x="53" y="167" on="0"/>
        <pt x="71" y="204" on="0"/>
        <pt x="94" y="254" on="0"/>
        <pt x="121" y="309" on="0"/>
        <pt x="144" y="359" on="0"/>
        <pt x="161" y="396" on="0"/>
        <pt x="164" y="402" on="1"/>
        <pt x="177" y="430" on="0"/>
        <pt x="174" y="473" on="0"/>
        <pt x="167" y="511" on="0"/>
        <pt x="168" y="547" on="0"/>
        <pt x="186" y="570" on="1"/>
        <pt x="189" y="573" on="0"/>
        <pt x="209" y="595" on="0"/>
        <pt x="232" y="620" on="0"/>
        <pt x="252" y="641" on="0"/>
        <pt x="254" y="644" on="1"/>
        <pt x="259" y="650" on="0"/>
        <pt x="306" y="678" on="0"/>
        <pt x="374" y="711" on="0"/>
        <pt x="457" y="746" on="0"/>
        <pt x="539" y="773" on="0"/>
        <pt x="615" y="787" on="0"/>
        <pt x="669" y="781" on="0"/>
        <pt x="694" y="749" on="0"/>
        <pt x="685" y="716" on="1"/>
        <pt x="670" y="662" on="0"/>
        <pt x="603" y="580" on="0"/>
        <pt x="529" y="516" on="0"/>
        <pt x="462" y="466" on="0"/>
        <pt x="446" y="444" on="1"/>
        <pt x="566" y="440" on="0"/>
        <pt x="677" y="390" on="0"/>
        <pt x="692" y="314" on="0"/>
        <pt x="628" y="221" on="0"/>
        <pt x="516" y="130" on="0"/>
        <pt x="374" y="49" on="0"/>
        <pt x="233" y="-3" on="0"/>
        <pt x="110" y="-17" on="0"/>
      </contour>
      <contour>
        <pt x="153" y="245" on="1"/>
        <pt x="134" y="222" on="0"/>
        <pt x="102" y="167" on="0"/>
        <pt x="85" y="114" on="0"/>
        <pt x="87" y="67" on="0"/>
        <pt x="115" y="38" on="0"/>
        <pt x="172" y="32" on="0"/>
        <pt x="220" y="46" on="1"/>
        <pt x="326" y="70" on="0"/>
        <pt x="483" y="144" on="0"/>
        <pt x="586" y="225" on="0"/>
        <pt x="635" y="305" on="0"/>
        <pt x="632" y="366" on="0"/>
        <pt x="577" y="398" on="0"/>
        <pt x="473" y="385" on="0"/>
        <pt x="320" y="316" on="0"/>
        <pt x="220" y="245" on="1"/>
        <pt x="209" y="236" on="0"/>
        <pt x="191" y="237" on="0"/>
        <pt x="175" y="244" on="0"/>
        <pt x="161" y="250" on="0"/>
      </contour>
      <contour>
        <pt x="175" y="329" on="1"/>
        <pt x="175" y="326" on="0"/>
        <pt x="174" y="314" on="0"/>
        <pt x="174" y="301" on="0"/>
        <pt x="175" y="289" on="0"/>
        <pt x="175" y="286" on="1"/>
        <pt x="183" y="288" on="0"/>
        <pt x="233" y="322" on="0"/>
        <pt x="304" y="376" on="0"/>
        <pt x="388" y="445" on="0"/>
        <pt x="473" y="520" on="0"/>
        <pt x="550" y="595" on="0"/>
        <pt x="606" y="661" on="0"/>
        <pt x="635" y="712" on="0"/>
        <pt x="629" y="726" on="1"/>
        <pt x="585" y="732" on="0"/>
        <pt x="488" y="709" on="0"/>
        <pt x="395" y="665" on="0"/>
        <pt x="315" y="608" on="0"/>
        <pt x="288" y="581" on="1"/>
        <pt x="282" y="568" on="0"/>
        <pt x="254" y="502" on="0"/>
        <pt x="221" y="428" on="0"/>
        <pt x="192" y="363" on="0"/>
        <pt x="186" y="350" on="1"/>
        <pt x="186" y="348" on="0"/>
        <pt x="176" y="331" on="0"/>
      </contour>
    </TTGlyph>
    <TTGlyph name="C" xMin="4" yMin="11" xMax="573" yMax="757">
      <contour>
        <pt x="107" y="11" on="1"/>
        <pt x="46" y="35" on="0"/>
        <pt x="0" y="117" on="0"/>
        <pt x="9" y="218" on="0"/>
        <pt x="64" y="333" on="0"/>
        <pt x="145" y="449" on="0"/>
        <pt x="243" y="559" on="0"/>
        <pt x="339" y="651" on="0"/>
        <pt x="423" y="719" on="0"/>
        <pt x="449" y="735" on="1"/>
        <pt x="485" y="757" on="0"/>
        <pt x="533" y="756" on="0"/>
        <pt x="562" y="727" on="0"/>
        <pt x="573" y="676" on="0"/>
        <pt x="572" y="619" on="0"/>
        <pt x="561" y="562" on="0"/>
        <pt x="544" y="520" on="0"/>
        <pt x="525" y="500" on="0"/>
        <pt x="516" y="509" on="1"/>
        <pt x="515" y="517" on="0"/>
        <pt x="521" y="550" on="0"/>
        <pt x="530" y="592" on="0"/>
        <pt x="538" y="636" on="0"/>
        <pt x="541" y="673" on="0"/>
        <pt x="536" y="699" on="0"/>
        <pt x="527" y="701" on="1"/>
        <pt x="492" y="710" on="0"/>
        <pt x="395" y="659" on="0"/>
        <pt x="290" y="564" on="0"/>
        <pt x="187" y="439" on="0"/>
        <pt x="103" y="307" on="0"/>
        <pt x="49" y="182" on="0"/>
        <pt x="42" y="87" on="0"/>
        <pt x="91" y="36" on="0"/>
        <pt x="153" y="45" on="1"/>
        <pt x="210" y="53" on="0"/>
        <pt x="307" y="118" on="0"/>
        <pt x="398" y="197" on="0"/>
        <pt x="488" y="274" on="0"/>
        <pt x="537" y="294" on="1"/>
        <pt x="555" y="301" on="0"/>
        <pt x="576" y="277" on="0"/>
        <pt x="571" y="260" on="1"/>
        <pt x="565" y="243" on="0"/>
        <pt x="506" y="187" on="0"/>
        <pt x="419" y="126" on="0"/>
        <pt x="315" y="65" on="0"/>
        <pt x="216" y="21" on="0"/>
        <pt x="131" y="1" on="0"/>
      </contour>
    </TTGlyph>
    <TTGlyph name="Cacute" xMin="4" yMin="11" xMax="573" yMax="874">
      <component glyphName="C" x="0" y="0" flags="0x1204"/>
      <component glyphName="acute" x="287" y="320" flags="0x1004"/>
    </TTGlyph>
    <TTGlyph name="Ccaron" xMin="4" yMin="11" xMax="573" yMax="871">
      <component glyphName="C" x="0" y="0" flags="0x1204"/>
      <component glyphName="caron" x="289" y="274" flags="0x1004"/>
    </TTGlyph>
    <TTGlyph name="Ccedilla" xMin="4" yMin="-143" xMax="573" yMax="757">
      <component glyphName="C" x="0" y="0" flags="0x1204"/>
      <component glyphName="cedilla" x="166" y="30" flags="0x1004"/>
    </TTGlyph>
    <TTGlyph name="Ccircumflex" xMin="4" yMin="11" xMax="582" yMax="920">
      <component glyphName="C" x="0" y="0" flags="0x1204"/>
      <component glyphName="circumflex" x="302" y="263" flags="0x1004"/>
    </TTGlyph>
    <TTGlyph name="Cdotaccent" xMin="4" yMin="11" xMax="573" yMax="873">
      <component glyphName="C" x="0" y="0" flags="0x1204"/>
      <component glyphName="dotaccent" x="270" y="378" flags="0x1004"/>
    </TTGlyph>
    <TTGlyph name="D" xMin="23" yMin="0" xMax="883" yMax="781">
      <contour>
        <pt x="23" y="11" on="1"/>
        <pt x="18" y="26" on="0"/>
        <pt x="32" y="49" on="0"/>
        <pt x="46" y="57" on="1"/>
        <pt x="108" y="88" on="0"/>
        <pt x="226" y="131" on="0"/>
        <pt x="341" y="174" on="0"/>
        <pt x="455" y="227" on="0"/>
        <pt x="514" y="269" on="1"/>
        <pt x="645" y="345" on="0"/>
        <pt x="785" y="477" on="0"/>
        <pt x="831" y="584" on="0"/>
        <pt x="797" y="665" on="0"/>
        <pt x="713" y="715" on="0"/>
        <pt x="592" y="732" on="0"/>
        <pt x="462" y="712" on="0"/>
        <pt x="338" y="653" on="0"/>
        <pt x="293" y="601" on="1"/>
        <pt x="292" y="599" on="0"/>
        <pt x="288" y="589" on="0"/>
        <pt x="285" y="578" on="0"/>
        <pt x="282" y="567" on="0"/>
        <pt x="282" y="566" on="1"/>
        <pt x="252" y="494" on="0"/>
        <pt x="199" y="391" on="0"/>
        <pt x="152" y="296" on="0"/>
        <pt x="110" y="189" on="0"/>
        <pt x="91" y="113" on="1"/>
        <pt x="73" y="107" on="0"/>
        <pt x="58" y="121" on="0"/>
        <pt x="56" y="150" on="0"/>
        <pt x="65" y="188" on="0"/>
        <pt x="77" y="224" on="0"/>
        <pt x="89" y="254" on="0"/>
        <pt x="91" y="260" on="1"/>
        <pt x="99" y="283" on="0"/>
        <pt x="133" y="356" on="0"/>
        <pt x="171" y="436" on="0"/>
        <pt x="205" y="510" on="0"/>
        <pt x="214" y="533" on="1"/>
        <pt x="205" y="562" on="0"/>
        <pt x="216" y="607" on="0"/>
        <pt x="244" y="644" on="0"/>
        <pt x="284" y="675" on="0"/>
        <pt x="304" y="690" on="1"/>
        <pt x="361" y="732" on="0"/>
        <pt x="493" y="778" on="0"/>
        <pt x="630" y="783" on="0"/>
        <pt x="766" y="743" on="0"/>
        <pt x="826" y="698" on="1"/>
        <pt x="874" y="658" on="0"/>
        <pt x="891" y="564" on="0"/>
        <pt x="847" y="465" on="0"/>
        <pt x="754" y="363" on="0"/>
        <pt x="630" y="265" on="0"/>
        <pt x="485" y="174" on="0"/>
        <pt x="340" y="97" on="0"/>
        <pt x="203" y="38" on="0"/>
        <pt x="96" y="4" on="0"/>
        <pt x="28" y="-3" on="0"/>
      </contour>
    </TTGlyph>
    <TTGlyph name="Dcaron" xMin="23" yMin="0" xMax="883" yMax="893">
      <component glyphName="D" x="0" y="0" flags="0x1204"/>
      <component glyphName="caron" x="400" y="296" flags="0x1004"/>
    </TTGlyph>
    <TTGlyph name="E" xMin="18" yMin="2" xMax="883" yMax="757">
      <contour>
        <pt x="18" y="23" on="1"/>
        <pt x="12" y="28" on="0"/>
        <pt x="21" y="34" on="1"/>
        <pt x="31" y="70" on="0"/>
        <pt x="52" y="136" on="0"/>
        <pt x="76" y="201" on="0"/>
        <pt x="103" y="268" on="0"/>
        <pt x="118" y="305" on="1"/>
        <pt x="123" y="314" on="0"/>
        <pt x="110" y="333" on="0"/>
        <pt x="93" y="352" on="0"/>
        <pt x="86" y="373" on="0"/>
        <pt x="97" y="384" on="1"/>
        <pt x="98" y="385" on="0"/>
        <pt x="111" y="389" on="0"/>
        <pt x="127" y="392" on="0"/>
        <pt x="140" y="395" on="0"/>
        <pt x="142" y="396" on="1"/>
        <pt x="145" y="398" on="0"/>
        <pt x="162" y="415" on="0"/>
        <pt x="164" y="418" on="1"/>
        <pt x="180" y="445" on="0"/>
        <pt x="209" y="487" on="0"/>
        <pt x="234" y="529" on="0"/>
        <pt x="254" y="575" on="0"/>
        <pt x="262" y="606" on="1"/>
        <pt x="265" y="618" on="0"/>
        <pt x="248" y="625" on="0"/>
        <pt x="226" y="631" on="0"/>
        <pt x="212" y="644" on="0"/>
        <pt x="218" y="662" on="1"/>
        <pt x="222" y="673" on="0"/>
        <pt x="291" y="699" on="0"/>
        <pt x="397" y="723" on="0"/>
        <pt x="529" y="743" on="0"/>
        <pt x="661" y="755" on="0"/>
        <pt x="781" y="758" on="0"/>
        <pt x="865" y="747" on="0"/>
        <pt x="901" y="720" on="0"/>
        <pt x="882" y="696" on="1"/>
        <pt x="873" y="694" on="0"/>
        <pt x="854" y="697" on="0"/>
        <pt x="834" y="703" on="0"/>
        <pt x="812" y="708" on="0"/>
        <pt x="802" y="707" on="1"/>
        <pt x="754" y="703" on="0"/>
        <pt x="662" y="705" on="0"/>
        <pt x="570" y="705" on="0"/>
        <pt x="478" y="698" on="0"/>
        <pt x="432" y="685" on="1"/>
        <pt x="400" y="676" on="0"/>
        <pt x="350" y="631" on="0"/>
        <pt x="305" y="562" on="0"/>
        <pt x="260" y="472" on="0"/>
        <pt x="232" y="418" on="1"/>
        <pt x="243" y="415" on="0"/>
        <pt x="304" y="429" on="0"/>
        <pt x="383" y="450" on="0"/>
        <pt x="471" y="471" on="0"/>
        <pt x="548" y="480" on="0"/>
        <pt x="606" y="471" on="0"/>
        <pt x="616" y="452" on="1"/>
        <pt x="617" y="450" on="0"/>
        <pt x="617" y="442" on="0"/>
        <pt x="616" y="441" on="1"/>
        <pt x="563" y="433" on="0"/>
        <pt x="450" y="420" on="0"/>
        <pt x="339" y="400" on="0"/>
        <pt x="233" y="367" on="0"/>
        <pt x="186" y="339" on="1"/>
        <pt x="148" y="272" on="0"/>
        <pt x="88" y="130" on="0"/>
        <pt x="65" y="57" on="1"/>
        <pt x="94" y="67" on="0"/>
        <pt x="171" y="86" on="0"/>
        <pt x="242" y="102" on="0"/>
        <pt x="295" y="112" on="0"/>
        <pt x="300" y="113" on="1"/>
        <pt x="385" y="126" on="0"/>
        <pt x="542" y="141" on="0"/>
        <pt x="627" y="136" on="1"/>
        <pt x="634" y="134" on="0"/>
        <pt x="640" y="122" on="0"/>
        <pt x="642" y="107" on="0"/>
        <pt x="640" y="93" on="0"/>
        <pt x="639" y="90" on="1"/>
        <pt x="530" y="96" on="0"/>
        <pt x="315" y="68" on="0"/>
        <pt x="209" y="45" on="1"/>
        <pt x="192" y="41" on="0"/>
        <pt x="143" y="21" on="0"/>
        <pt x="92" y="5" on="0"/>
        <pt x="45" y="-1" on="0"/>
        <pt x="29" y="10" on="1"/>
        <pt x="25" y="12" on="0"/>
        <pt x="19" y="18" on="0"/>
      </contour>
    </TTGlyph>
    <TTGlyph name="Eacute" xMin="18" yMin="2" xMax="883" yMax="894">
      <component glyphName="E" x="0" y="0" flags="0x1204"/>
      <component glyphName="acute" x="319" y="340" flags="0x1004"/>
    </TTGlyph>
    <TTGlyph name="Ecaron" xMin="18" yMin="2" xMax="883" yMax="856">
      <component glyphName="E" x="0" y="0" flags="0x1204"/>
      <component glyphName="caron" x="307" y="259" flags="0x1004"/>
    </TTGlyph>
    <TTGlyph name="Ecircumflex" xMin="18" yMin="2" xMax="883" yMax="959">
      <component glyphName="E" x="0" y="0" flags="0x1204"/>
      <component glyphName="circumflex" x="220" y="302" flags="0x1004"/>
    </TTGlyph>
    <TTGlyph name="Edieresis" xMin="18" yMin="2" xMax="883" yMax="863">
      <component glyphName="E" x="0" y="0" flags="0x1204"/>
      <component glyphName="dieresis" x="258" y="348" flags="0x1004"/>
    </TTGlyph>
    <TTGlyph name="Edotaccent" xMin="18" yMin="2" xMax="883" yMax="876">
      <component glyphName="E" x="0" y="0" flags="0x1204"/>
      <component glyphName="dotaccent" x="385" y="381" flags="0x1004"/>
    </TTGlyph>
    <TTGlyph name="Egrave" xMin="18" yMin="2" xMax="883" yMax="904">
      <component glyphName="E" x="0" y="0" flags="0x1204"/>
      <component glyphName="grave" x="297" y="360" flags="0x1004"/>
    </TTGlyph>
    <TTGlyph name="Eth" xMin="-24" yMin="0" xMax="883" yMax="781">
      <contour>
        <pt x="-23" y="342" on="1"/>
        <pt x="-35" y="354" on="0"/>
        <pt x="-12" y="376" on="0"/>
        <pt x="41" y="395" on="0"/>
        <pt x="118" y="409" on="0"/>
        <pt x="161" y="414" on="1"/>
        <pt x="177" y="449" on="0"/>
        <pt x="206" y="513" on="0"/>
        <pt x="214" y="533" on="1"/>
        <pt x="205" y="562" on="0"/>
        <pt x="216" y="607" on="0"/>
        <pt x="244" y="644" on="0"/>
        <pt x="284" y="675" on="0"/>
        <pt x="304" y="690" on="1"/>
        <pt x="361" y="732" on="0"/>
        <pt x="493" y="778" on="0"/>
        <pt x="630" y="783" on="0"/>
        <pt x="766" y="743" on="0"/>
        <pt x="826" y="698" on="1"/>
        <pt x="874" y="658" on="0"/>
        <pt x="891" y="564" on="0"/>
        <pt x="847" y="465" on="0"/>
        <pt x="754" y="363" on="0"/>
        <pt x="630" y="265" on="0"/>
        <pt x="485" y="174" on="0"/>
        <pt x="340" y="97" on="0"/>
        <pt x="203" y="38" on="0"/>
        <pt x="96" y="4" on="0"/>
        <pt x="28" y="-3" on="0"/>
        <pt x="23" y="11" on="1"/>
        <pt x="18" y="26" on="0"/>
        <pt x="32" y="49" on="0"/>
        <pt x="46" y="57" on="1"/>
        <pt x="108" y="88" on="0"/>
        <pt x="226" y="131" on="0"/>
        <pt x="341" y="174" on="0"/>
        <pt x="455" y="227" on="0"/>
        <pt x="514" y="269" on="1"/>
        <pt x="645" y="345" on="0"/>
        <pt x="785" y="477" on="0"/>
        <pt x="831" y="584" on="0"/>
        <pt x="797" y="665" on="0"/>
        <pt x="713" y="715" on="0"/>
        <pt x="592" y="732" on="0"/>
        <pt x="462" y="712" on="0"/>
        <pt x="338" y="653" on="0"/>
        <pt x="293" y="601" on="1"/>
        <pt x="292" y="599" on="0"/>
        <pt x="288" y="589" on="0"/>
        <pt x="285" y="578" on="0"/>
        <pt x="282" y="567" on="0"/>
        <pt x="282" y="566" on="1"/>
        <pt x="271" y="521" on="0"/>
        <pt x="251" y="449" on="0"/>
        <pt x="240" y="419" on="1"/>
        <pt x="280" y="420" on="0"/>
        <pt x="351" y="416" on="0"/>
        <pt x="402" y="403" on="0"/>
        <pt x="426" y="380" on="0"/>
        <pt x="418" y="364" on="1"/>
        <pt x="407" y="364" on="0"/>
        <pt x="356" y="361" on="0"/>
        <pt x="298" y="357" on="0"/>
        <pt x="246" y="354" on="0"/>
        <pt x="236" y="354" on="1"/>
        <pt x="231" y="353" on="0"/>
        <pt x="218" y="351" on="0"/>
        <pt x="211" y="350" on="1"/>
        <pt x="196" y="319" on="0"/>
        <pt x="166" y="266" on="0"/>
        <pt x="136" y="212" on="0"/>
        <pt x="106" y="152" on="0"/>
        <pt x="91" y="113" on="1"/>
        <pt x="73" y="107" on="0"/>
        <pt x="58" y="121" on="0"/>
        <pt x="56" y="150" on="0"/>
        <pt x="65" y="188" on="0"/>
        <pt x="77" y="224" on="0"/>
        <pt x="89" y="254" on="0"/>
        <pt x="91" y="260" on="1"/>
        <pt x="96" y="273" on="0"/>
        <pt x="111" y="309" on="0"/>
        <pt x="121" y="329" on="1"/>
        <pt x="100" y="325" on="0"/>
        <pt x="57" y="319" on="0"/>
        <pt x="20" y="321" on="0"/>
        <pt x="-12" y="331" on="0"/>
      </contour>
    </TTGlyph>
    <TTGlyph name="Euro" xMin="21" yMin="1" xMax="751" yMax="907">
      <contour>
        <pt x="182" y="11" on="1"/>
        <pt x="121" y="35" on="0"/>
        <pt x="78" y="129" on="0"/>
        <pt x="91" y="251" on="0"/>
        <pt x="152" y="392" on="0"/>
        <pt x="240" y="535" on="0"/>
        <pt x="344" y="672" on="0"/>
        <pt x="444" y="785" on="0"/>
        <pt x="530" y="866" on="0"/>
        <pt x="556" y="882" on="1"/>
        <pt x="604" y="911" on="0"/>
        <pt x="675" y="902" on="0"/>
        <pt x="722" y="857" on="0"/>
        <pt x="747" y="792" on="0"/>
        <pt x="754" y="736" on="0"/>
        <pt x="744" y="704" on="0"/>
        <pt x="732" y="716" on="1"/>
        <pt x="730" y="728" on="0"/>
        <pt x="710" y="769" on="0"/>
        <pt x="682" y="811" on="0"/>
        <pt x="649" y="844" on="0"/>
        <pt x="635" y="847" on="1"/>
        <pt x="606" y="854" on="0"/>
        <pt x="530" y="815" on="0"/>
        <pt x="445" y="739" on="0"/>
        <pt x="356" y="632" on="0"/>
        <pt x="273" y="511" on="0"/>
        <pt x="200" y="381" on="0"/>
        <pt x="148" y="260" on="0"/>
        <pt x="121" y="153" on="0"/>
        <pt x="130" y="77" on="0"/>
        <pt x="179" y="38" on="0"/>
        <pt x="229" y="45" on="1"/>
        <pt x="285" y="53" on="0"/>
        <pt x="384" y="76" on="0"/>
        <pt x="477" y="105" on="0"/>
        <pt x="568" y="140" on="0"/>
        <pt x="618" y="160" on="1"/>
        <pt x="636" y="167" on="0"/>
        <pt x="657" y="143" on="0"/>
        <pt x="652" y="126" on="1"/>
        <pt x="646" y="109" on="0"/>
        <pt x="586" y="73" on="0"/>
        <pt x="498" y="41" on="0"/>
        <pt x="393" y="15" on="0"/>
        <pt x="292" y="1" on="0"/>
        <pt x="206" y="1" on="0"/>
      </contour>
      <contour>
        <pt x="21" y="290" on="1"/>
        <pt x="15" y="299" on="0"/>
        <pt x="42" y="314" on="0"/>
        <pt x="91" y="327" on="0"/>
        <pt x="151" y="336" on="0"/>
        <pt x="205" y="343" on="0"/>
        <pt x="243" y="346" on="0"/>
        <pt x="246" y="346" on="1"/>
        <pt x="255" y="346" on="0"/>
        <pt x="297" y="347" on="0"/>
        <pt x="343" y="347" on="0"/>
        <pt x="385" y="346" on="0"/>
        <pt x="394" y="346" on="1"/>
        <pt x="399" y="343" on="0"/>
        <pt x="408" y="331" on="0"/>
        <pt x="405" y="323" on="1"/>
        <pt x="368" y="318" on="0"/>
        <pt x="271" y="303" on="0"/>
        <pt x="175" y="286" on="0"/>
        <pt x="90" y="271" on="0"/>
        <pt x="66" y="267" on="1"/>
        <pt x="48" y="264" on="0"/>
        <pt x="32" y="273" on="0"/>
      </contour>
      <contour>
        <pt x="77" y="515" on="1"/>
        <pt x="83" y="527" on="0"/>
        <pt x="128" y="547" on="0"/>
        <pt x="190" y="560" on="0"/>
        <pt x="261" y="564" on="0"/>
        <pt x="325" y="558" on="0"/>
        <pt x="373" y="541" on="0"/>
        <pt x="382" y="526" on="1"/>
        <pt x="378" y="522" on="0"/>
        <pt x="332" y="512" on="0"/>
        <pt x="267" y="503" on="0"/>
        <pt x="192" y="497" on="0"/>
        <pt x="127" y="498" on="0"/>
        <pt x="81" y="506" on="0"/>
      </contour>
    </TTGlyph>
    <TTGlyph name="F" xMin="15" yMin="0" xMax="811" yMax="792">
      <contour>
        <pt x="18" y="11" on="1"/>
        <pt x="13" y="25" on="0"/>
        <pt x="18" y="54" on="0"/>
        <pt x="30" y="84" on="0"/>
        <pt x="45" y="112" on="0"/>
        <pt x="50" y="125" on="1"/>
        <pt x="55" y="135" on="0"/>
        <pt x="78" y="186" on="0"/>
        <pt x="103" y="243" on="0"/>
        <pt x="125" y="295" on="0"/>
        <pt x="130" y="305" on="1"/>
        <pt x="136" y="317" on="0"/>
        <pt x="121" y="336" on="0"/>
        <pt x="104" y="354" on="0"/>
        <pt x="95" y="372" on="0"/>
        <pt x="107" y="384" on="1"/>
        <pt x="114" y="391" on="0"/>
        <pt x="136" y="395" on="0"/>
        <pt x="160" y="398" on="0"/>
        <pt x="180" y="406" on="0"/>
        <pt x="186" y="418" on="1"/>
        <pt x="300" y="634" on="1"/>
        <pt x="293" y="661" on="0"/>
        <pt x="298" y="697" on="0"/>
        <pt x="317" y="723" on="0"/>
        <pt x="348" y="745" on="0"/>
        <pt x="368" y="759" on="1"/>
        <pt x="471" y="775" on="0"/>
        <pt x="670" y="797" on="0"/>
        <pt x="775" y="792" on="1"/>
        <pt x="781" y="791" on="0"/>
        <pt x="799" y="776" on="0"/>
        <pt x="811" y="757" on="0"/>
        <pt x="810" y="739" on="0"/>
        <pt x="797" y="736" on="1"/>
        <pt x="796" y="736" on="0"/>
        <pt x="786" y="739" on="0"/>
        <pt x="774" y="743" on="0"/>
        <pt x="764" y="747" on="0"/>
        <pt x="763" y="747" on="1"/>
        <pt x="683" y="747" on="0"/>
        <pt x="565" y="743" on="0"/>
        <pt x="478" y="730" on="0"/>
        <pt x="415" y="704" on="0"/>
        <pt x="366" y="659" on="0"/>
        <pt x="323" y="591" on="0"/>
        <pt x="300" y="542" on="1"/>
        <pt x="289" y="521" on="0"/>
        <pt x="280" y="502" on="1"/>
        <pt x="272" y="485" on="0"/>
        <pt x="262" y="452" on="0"/>
        <pt x="266" y="441" on="1"/>
        <pt x="322" y="431" on="0"/>
        <pt x="437" y="455" on="0"/>
        <pt x="553" y="489" on="0"/>
        <pt x="670" y="516" on="0"/>
        <pt x="729" y="509" on="1"/>
        <pt x="729" y="486" on="1"/>
        <pt x="729" y="484" on="0"/>
        <pt x="655" y="471" on="0"/>
        <pt x="540" y="448" on="0"/>
        <pt x="403" y="415" on="0"/>
        <pt x="277" y="371" on="0"/>
        <pt x="181" y="315" on="0"/>
        <pt x="164" y="282" on="1"/>
        <pt x="132" y="217" on="0"/>
        <pt x="74" y="80" on="0"/>
        <pt x="50" y="11" on="1"/>
        <pt x="44" y="2" on="0"/>
        <pt x="23" y="-2" on="0"/>
      </contour>
    </TTGlyph>
    <TTGlyph name="G" xMin="4" yMin="-4" xMax="673" yMax="733">
      <contour>
        <pt x="74" y="11" on="1"/>
        <pt x="30" y="44" on="0"/>
        <pt x="-2" y="140" on="0"/>
        <pt x="10" y="253" on="0"/>
        <pt x="58" y="376" on="0"/>
        <pt x="129" y="494" on="0"/>
        <pt x="218" y="601" on="0"/>
        <pt x="311" y="682" on="0"/>
        <pt x="402" y="731" on="0"/>
        <pt x="440" y="733" on="1"/>
        <pt x="458" y="738" on="0"/>
        <pt x="495" y="726" on="0"/>
        <pt x="525" y="701" on="0"/>
        <pt x="545" y="667" on="0"/>
        <pt x="551" y="634" on="0"/>
        <pt x="537" y="605" on="0"/>
        <pt x="518" y="598" on="1"/>
        <pt x="515" y="596" on="0"/>
        <pt x="502" y="596" on="0"/>
        <pt x="502" y="598" on="1"/>
        <pt x="502" y="677" on="1"/>
        <pt x="502" y="679" on="0"/>
        <pt x="492" y="684" on="0"/>
        <pt x="479" y="687" on="0"/>
        <pt x="466" y="689" on="0"/>
        <pt x="462" y="688" on="1"/>
        <pt x="363" y="663" on="0"/>
        <pt x="222" y="545" on="0"/>
        <pt x="175" y="464" on="1"/>
        <pt x="108" y="347" on="0"/>
        <pt x="47" y="191" on="0"/>
        <pt x="40" y="99" on="0"/>
        <pt x="80" y="62" on="0"/>
        <pt x="148" y="66" on="0"/>
        <pt x="238" y="103" on="0"/>
        <pt x="331" y="158" on="0"/>
        <pt x="419" y="225" on="0"/>
        <pt x="485" y="287" on="0"/>
        <pt x="520" y="338" on="0"/>
        <pt x="514" y="350" on="1"/>
        <pt x="498" y="353" on="0"/>
        <pt x="460" y="344" on="0"/>
        <pt x="446" y="339" on="1"/>
        <pt x="437" y="336" on="0"/>
        <pt x="388" y="320" on="0"/>
        <pt x="334" y="302" on="0"/>
        <pt x="286" y="286" on="0"/>
        <pt x="277" y="282" on="1"/>
        <pt x="263" y="277" on="0"/>
        <pt x="244" y="292" on="0"/>
        <pt x="237" y="315" on="0"/>
        <pt x="243" y="336" on="0"/>
        <pt x="254" y="339" on="1"/>
        <pt x="270" y="342" on="0"/>
        <pt x="351" y="371" on="0"/>
        <pt x="453" y="406" on="0"/>
        <pt x="561" y="440" on="0"/>
        <pt x="643" y="456" on="0"/>
        <pt x="686" y="445" on="0"/>
        <pt x="673" y="418" on="1"/>
        <pt x="664" y="408" on="0"/>
        <pt x="616" y="359" on="0"/>
        <pt x="562" y="305" on="0"/>
        <pt x="513" y="257" on="0"/>
        <pt x="503" y="248" on="1"/>
        <pt x="499" y="245" on="0"/>
        <pt x="462" y="213" on="0"/>
        <pt x="415" y="174" on="0"/>
        <pt x="369" y="135" on="0"/>
        <pt x="356" y="125" on="1"/>
        <pt x="343" y="114" on="0"/>
        <pt x="303" y="80" on="0"/>
        <pt x="254" y="45" on="0"/>
        <pt x="200" y="14" on="0"/>
        <pt x="146" y="-4" on="0"/>
        <pt x="95" y="-4" on="0"/>
      </contour>
    </TTGlyph>
    <TTGlyph name="Gbreve" xMin="4" yMin="-4" xMax="673" yMax="856">
      <component glyphName="G" x="0" y="0" flags="0x1204"/>
      <component glyphName="breve" x="206" y="256" flags="0x1004"/>
    </TTGlyph>
    <TTGlyph name="Gcircumflex" xMin="4" yMin="-4" xMax="673" yMax="920">
      <component glyphName="G" x="0" y="0" flags="0x1204"/>
      <component glyphName="circumflex" x="251" y="263" flags="0x1004"/>
    </TTGlyph>
    <TTGlyph name="Gdotaccent" xMin="4" yMin="-4" xMax="673" yMax="858">
      <component glyphName="G" x="0" y="0" flags="0x1204"/>
      <component glyphName="dotaccent" x="245" y="363" flags="0x1004"/>
    </TTGlyph>
    <TTGlyph name="H" xMin="26" yMin="0" xMax="780" yMax="806">
      <contour>
        <pt x="34" y="11" on="1"/>
        <pt x="24" y="26" on="0"/>
        <pt x="29" y="92" on="0"/>
        <pt x="50" y="175" on="0"/>
        <pt x="82" y="266" on="0"/>
        <pt x="114" y="349" on="0"/>
        <pt x="141" y="415" on="0"/>
        <pt x="147" y="430" on="1"/>
        <pt x="154" y="445" on="0"/>
        <pt x="177" y="500" on="0"/>
        <pt x="204" y="565" on="0"/>
        <pt x="234" y="637" on="0"/>
        <pt x="261" y="703" on="0"/>
        <pt x="284" y="757" on="0"/>
        <pt x="291" y="773" on="1"/>
        <pt x="313" y="780" on="0"/>
        <pt x="327" y="763" on="0"/>
        <pt x="321" y="723" on="0"/>
        <pt x="299" y="666" on="0"/>
        <pt x="270" y="601" on="0"/>
        <pt x="239" y="533" on="0"/>
        <pt x="214" y="472" on="0"/>
        <pt x="201" y="422" on="0"/>
        <pt x="204" y="407" on="1"/>
        <pt x="222" y="405" on="0"/>
        <pt x="269" y="409" on="0"/>
        <pt x="318" y="417" on="0"/>
        <pt x="366" y="427" on="0"/>
        <pt x="384" y="430" on="1"/>
        <pt x="475" y="445" on="0"/>
        <pt x="584" y="501" on="0"/>
        <pt x="657" y="588" on="0"/>
        <pt x="711" y="710" on="0"/>
        <pt x="746" y="791" on="1"/>
        <pt x="755" y="808" on="0"/>
        <pt x="769" y="803" on="0"/>
        <pt x="778" y="780" on="0"/>
        <pt x="782" y="752" on="0"/>
        <pt x="780" y="746" on="1"/>
        <pt x="779" y="743" on="0"/>
        <pt x="769" y="723" on="0"/>
        <pt x="757" y="700" on="0"/>
        <pt x="747" y="681" on="0"/>
        <pt x="746" y="678" on="1"/>
        <pt x="744" y="674" on="0"/>
        <pt x="738" y="655" on="0"/>
        <pt x="730" y="633" on="0"/>
        <pt x="724" y="614" on="0"/>
        <pt x="723" y="610" on="1"/>
        <pt x="728" y="609" on="0"/>
        <pt x="745" y="592" on="0"/>
        <pt x="746" y="587" on="1"/>
        <pt x="749" y="570" on="0"/>
        <pt x="721" y="527" on="0"/>
        <pt x="680" y="481" on="0"/>
        <pt x="641" y="437" on="0"/>
        <pt x="634" y="418" on="1"/>
        <pt x="593" y="318" on="0"/>
        <pt x="534" y="118" on="0"/>
        <pt x="520" y="11" on="1"/>
        <pt x="517" y="6" on="0"/>
        <pt x="505" y="-4" on="0"/>
        <pt x="498" y="0" on="1"/>
        <pt x="496" y="22" on="0"/>
        <pt x="507" y="99" on="0"/>
        <pt x="525" y="190" on="0"/>
        <pt x="547" y="284" on="0"/>
        <pt x="566" y="363" on="0"/>
        <pt x="578" y="415" on="0"/>
        <pt x="577" y="418" on="1"/>
        <pt x="556" y="422" on="0"/>
        <pt x="490" y="417" on="0"/>
        <pt x="412" y="404" on="0"/>
        <pt x="328" y="386" on="0"/>
        <pt x="249" y="365" on="0"/>
        <pt x="181" y="346" on="0"/>
        <pt x="159" y="339" on="1"/>
        <pt x="142" y="301" on="0"/>
        <pt x="120" y="210" on="0"/>
        <pt x="97" y="118" on="0"/>
        <pt x="69" y="33" on="0"/>
        <pt x="46" y="0" on="1"/>
        <pt x="44" y="1" on="0"/>
        <pt x="35" y="9" on="0"/>
      </contour>
    </TTGlyph>
    <TTGlyph name="Hcircumflex" xMin="26" yMin="0" xMax="780" yMax="959">
      <component glyphName="H" x="0" y="0" flags="0x1204"/>
      <component glyphName="circumflex" x="353" y="302" flags="0x1004"/>
    </TTGlyph>
    <TTGlyph name="I" xMin="10" yMin="7" xMax="275" yMax="715">
      <contour>
        <pt x="11" y="34" on="1"/>
        <pt x="9" y="41" on="0"/>
        <pt x="12" y="66" on="0"/>
        <pt x="17" y="92" on="0"/>
        <pt x="23" y="112" on="0"/>
        <pt x="23" y="113" on="1"/>
        <pt x="249" y="701" on="1"/>
        <pt x="256" y="719" on="0"/>
        <pt x="268" y="710" on="0"/>
        <pt x="275" y="681" on="0"/>
        <pt x="275" y="644" on="0"/>
        <pt x="271" y="633" on="1"/>
        <pt x="239" y="557" on="0"/>
        <pt x="174" y="404" on="0"/>
        <pt x="115" y="249" on="0"/>
        <pt x="63" y="92" on="0"/>
        <pt x="45" y="11" on="1"/>
        <pt x="37" y="6" on="0"/>
        <pt x="26" y="8" on="0"/>
        <pt x="17" y="17" on="0"/>
        <pt x="12" y="29" on="0"/>
      </contour>
    </TTGlyph>
    <TTGlyph name="Iacute" xMin="10" yMin="7" xMax="275" yMax="868">
      <component glyphName="I" x="0" y="0" flags="0x1204"/>
      <component glyphName="acute" x="91" y="314" flags="0x1004"/>
    </TTGlyph>
    <TTGlyph name="Icircumflex" xMin="10" yMin="7" xMax="359" yMax="911">
      <component glyphName="I" x="0" y="0" flags="0x1204"/>
      <component glyphName="circumflex" x="79" y="254" flags="0x1004"/>
    </TTGlyph>
    <TTGlyph name="Idieresis" xMin="10" yMin="7" xMax="367" yMax="876">
      <component glyphName="I" x="0" y="0" flags="0x1204"/>
      <component glyphName="dieresis" x="34" y="361" flags="0x1004"/>
    </TTGlyph>
    <TTGlyph name="Idotaccent" xMin="10" yMin="7" xMax="305" yMax="874">
      <component glyphName="I" x="0" y="0" flags="0x1204"/>
      <component glyphName="dotaccent" x="126" y="379" flags="0x1004"/>
    </TTGlyph>
    <TTGlyph name="Igrave" xMin="10" yMin="7" xMax="275" yMax="888">
      <component glyphName="I" x="0" y="0" flags="0x1204"/>
      <component glyphName="grave" x="97" y="344" flags="0x1004"/>
    </TTGlyph>
    <TTGlyph name="Itilde" xMin="10" yMin="7" xMax="509" yMax="912">
      <component glyphName="I" x="0" y="0" flags="0x1204"/>
      <component glyphName="tilde" x="-59" y="350" flags="0x1004"/>
    </TTGlyph>
    <TTGlyph name="J" xMin="2" yMin="-6" xMax="1057" yMax="782">
      <contour>
        <pt x="85" y="11" on="1"/>
        <pt x="75" y="16" on="0"/>
        <pt x="48" y="46" on="0"/>
        <pt x="24" y="84" on="0"/>
        <pt x="5" y="127" on="0"/>
        <pt x="0" y="164" on="0"/>
        <pt x="11" y="189" on="0"/>
        <pt x="29" y="192" on="1"/>
        <pt x="30" y="178" on="0"/>
        <pt x="34" y="134" on="0"/>
        <pt x="48" y="92" on="0"/>
        <pt x="74" y="59" on="0"/>
        <pt x="97" y="57" on="1"/>
        <pt x="162" y="52" on="0"/>
        <pt x="257" y="105" on="0"/>
        <pt x="327" y="197" on="0"/>
        <pt x="375" y="316" on="0"/>
        <pt x="412" y="440" on="0"/>
        <pt x="442" y="556" on="0"/>
        <pt x="458" y="599" on="1"/>
        <pt x="468" y="636" on="0"/>
        <pt x="446" y="661" on="0"/>
        <pt x="398" y="657" on="0"/>
        <pt x="333" y="634" on="0"/>
        <pt x="269" y="611" on="0"/>
        <pt x="213" y="600" on="0"/>
        <pt x="198" y="610" on="1"/>
        <pt x="177" y="624" on="0"/>
        <pt x="191" y="651" on="0"/>
        <pt x="243" y="676" on="0"/>
        <pt x="326" y="698" on="0"/>
        <pt x="421" y="718" on="0"/>
        <pt x="520" y="735" on="0"/>
        <pt x="606" y="747" on="0"/>
        <pt x="671" y="755" on="0"/>
        <pt x="684" y="757" on="1"/>
        <pt x="701" y="759" on="0"/>
        <pt x="761" y="766" on="0"/>
        <pt x="823" y="774" on="0"/>
        <pt x="871" y="779" on="0"/>
        <pt x="876" y="779" on="1"/>
        <pt x="895" y="780" on="0"/>
        <pt x="952" y="782" on="0"/>
        <pt x="1006" y="782" on="0"/>
        <pt x="1046" y="780" on="0"/>
        <pt x="1046" y="779" on="1"/>
        <pt x="1057" y="746" on="1"/>
        <pt x="1030" y="744" on="0"/>
        <pt x="938" y="741" on="0"/>
        <pt x="828" y="735" on="0"/>
        <pt x="710" y="724" on="0"/>
        <pt x="608" y="705" on="0"/>
        <pt x="530" y="676" on="0"/>
        <pt x="514" y="655" on="1"/>
        <pt x="506" y="632" on="0"/>
        <pt x="484" y="542" on="0"/>
        <pt x="452" y="427" on="0"/>
        <pt x="411" y="298" on="0"/>
        <pt x="360" y="176" on="0"/>
        <pt x="298" y="71" on="0"/>
        <pt x="223" y="4" on="0"/>
        <pt x="136" y="-15" on="0"/>
      </contour>
    </TTGlyph>
    <TTGlyph name="Jcircumflex" xMin="2" yMin="-6" xMax="1057" yMax="945">
      <component glyphName="J" x="0" y="0" flags="0x1204"/>
      <component glyphName="circumflex" x="350" y="288" flags="0x1004"/>
    </TTGlyph>
    <TTGlyph name="K" xMin="19" yMin="-103" xMax="850" yMax="784">
      <contour>
        <pt x="712" y="-92" on="1"/>
        <pt x="680" y="-41" on="0"/>
        <pt x="617" y="43" on="0"/>
        <pt x="549" y="122" on="0"/>
        <pt x="474" y="202" on="0"/>
        <pt x="430" y="247" on="1"/>
        <pt x="367" y="313" on="0"/>
        <pt x="284" y="377" on="0"/>
        <pt x="229" y="387" on="0"/>
        <pt x="193" y="346" on="0"/>
        <pt x="159" y="267" on="0"/>
        <pt x="121" y="155" on="0"/>
        <pt x="91" y="89" on="1"/>
        <pt x="81" y="68" on="0"/>
        <pt x="56" y="13" on="0"/>
        <pt x="34" y="-2" on="1"/>
        <pt x="17" y="-13" on="0"/>
        <pt x="21" y="30" on="0"/>
        <pt x="49" y="110" on="0"/>
        <pt x="92" y="211" on="0"/>
        <pt x="134" y="305" on="0"/>
        <pt x="166" y="374" on="0"/>
        <pt x="170" y="382" on="1"/>
        <pt x="194" y="439" on="0"/>
        <pt x="244" y="534" on="0"/>
        <pt x="293" y="626" on="0"/>
        <pt x="340" y="722" on="0"/>
        <pt x="360" y="780" on="1"/>
        <pt x="369" y="786" on="0"/>
        <pt x="383" y="781" on="0"/>
        <pt x="393" y="769" on="0"/>
        <pt x="396" y="752" on="0"/>
        <pt x="394" y="746" on="1"/>
        <pt x="388" y="734" on="0"/>
        <pt x="363" y="683" on="0"/>
        <pt x="336" y="628" on="0"/>
        <pt x="312" y="577" on="0"/>
        <pt x="306" y="564" on="1"/>
        <pt x="304" y="559" on="0"/>
        <pt x="292" y="528" on="0"/>
        <pt x="294" y="518" on="1"/>
        <pt x="323" y="512" on="0"/>
        <pt x="410" y="534" on="0"/>
        <pt x="511" y="576" on="0"/>
        <pt x="620" y="631" on="0"/>
        <pt x="719" y="685" on="0"/>
        <pt x="800" y="732" on="0"/>
        <pt x="825" y="744" on="1"/>
        <pt x="849" y="756" on="0"/>
        <pt x="851" y="740" on="0"/>
        <pt x="828" y="708" on="0"/>
        <pt x="793" y="673" on="0"/>
        <pt x="780" y="666" on="1"/>
        <pt x="770" y="660" on="0"/>
        <pt x="730" y="639" on="0"/>
        <pt x="686" y="618" on="0"/>
        <pt x="650" y="600" on="0"/>
        <pt x="644" y="598" on="1"/>
        <pt x="617" y="586" on="0"/>
        <pt x="535" y="556" on="0"/>
        <pt x="446" y="522" on="0"/>
        <pt x="359" y="483" on="0"/>
        <pt x="328" y="462" on="1"/>
        <pt x="320" y="456" on="0"/>
        <pt x="314" y="450" on="1"/>
        <pt x="309" y="445" on="0"/>
        <pt x="302" y="433" on="0"/>
        <pt x="306" y="428" on="1"/>
        <pt x="321" y="419" on="0"/>
        <pt x="383" y="365" on="0"/>
        <pt x="461" y="291" on="0"/>
        <pt x="548" y="201" on="0"/>
        <pt x="630" y="109" on="0"/>
        <pt x="698" y="21" on="0"/>
        <pt x="739" y="-50" on="0"/>
        <pt x="745" y="-98" on="0"/>
        <pt x="723" y="-103" on="1"/>
        <pt x="721" y="-102" on="0"/>
        <pt x="714" y="-94" on="0"/>
      </contour>
    </TTGlyph>
    <TTGlyph name="L" xMin="16" yMin="-1" xMax="684" yMax="749">
      <contour>
        <pt x="29" y="11" on="1"/>
        <pt x="13" y="22" on="0"/>
        <pt x="19" y="66" on="0"/>
        <pt x="30" y="89" on="1"/>
        <pt x="41" y="115" on="0"/>
        <pt x="62" y="146" on="1"/>
        <pt x="94" y="207" on="0"/>
        <pt x="145" y="304" on="0"/>
        <pt x="189" y="390" on="0"/>
        <pt x="229" y="470" on="0"/>
        <pt x="270" y="558" on="0"/>
        <pt x="314" y="658" on="0"/>
        <pt x="341" y="722" on="1"/>
        <pt x="343" y="726" on="0"/>
        <pt x="352" y="741" on="0"/>
        <pt x="365" y="750" on="0"/>
        <pt x="379" y="747" on="0"/>
        <pt x="386" y="734" on="1"/>
        <pt x="396" y="714" on="0"/>
        <pt x="379" y="644" on="0"/>
        <pt x="337" y="553" on="0"/>
        <pt x="279" y="448" on="0"/>
        <pt x="215" y="340" on="0"/>
        <pt x="153" y="234" on="0"/>
        <pt x="106" y="142" on="0"/>
        <pt x="81" y="67" on="0"/>
        <pt x="85" y="45" on="1"/>
        <pt x="156" y="38" on="0"/>
        <pt x="300" y="54" on="0"/>
        <pt x="444" y="77" on="0"/>
        <pt x="589" y="95" on="0"/>
        <pt x="661" y="90" on="1"/>
        <pt x="674" y="92" on="0"/>
        <pt x="692" y="70" on="0"/>
        <pt x="684" y="57" on="1"/>
        <pt x="682" y="57" on="0"/>
        <pt x="669" y="58" on="0"/>
        <pt x="655" y="58" on="0"/>
        <pt x="642" y="57" on="0"/>
        <pt x="639" y="57" on="1"/>
        <pt x="583" y="52" on="0"/>
        <pt x="433" y="27" on="0"/>
        <pt x="273" y="5" on="0"/>
        <pt x="114" y="-7" on="0"/>
        <pt x="50" y="0" on="1"/>
        <pt x="49" y="0" on="0"/>
        <pt x="32" y="9" on="0"/>
      </contour>
    </TTGlyph>
    <TTGlyph name="Lacute" xMin="16" yMin="-1" xMax="684" yMax="753">
      <component glyphName="L" x="0" y="0" flags="0x1204"/>
      <component glyphName="acute" x="441" y="199" flags="0x1004"/>
    </TTGlyph>
    <TTGlyph name="Lslash" xMin="-11" yMin="-1" xMax="684" yMax="749">
      <component glyphName="L" x="0" y="0" flags="0x1204"/>
      <component glyphName="hyphen" x="-40" y="-7" flags="0x1004"/>
    </TTGlyph>
    <TTGlyph name="M" xMin="33" yMin="-78" xMax="1006" yMax="777">
      <contour>
        <pt x="756" y="-67" on="1"/>
        <pt x="755" y="-66" on="0"/>
        <pt x="755" y="-57" on="0"/>
        <pt x="756" y="-55" on="1"/>
        <pt x="757" y="-53" on="0"/>
        <pt x="763" y="-33" on="0"/>
        <pt x="771" y="-11" on="0"/>
        <pt x="777" y="9" on="0"/>
        <pt x="778" y="12" on="1"/>
        <pt x="807" y="105" on="0"/>
        <pt x="851" y="252" on="0"/>
        <pt x="891" y="392" on="0"/>
        <pt x="930" y="541" on="0"/>
        <pt x="954" y="636" on="1"/>
        <pt x="954" y="658" on="1"/>
        <pt x="925" y="668" on="0"/>
        <pt x="858" y="644" on="0"/>
        <pt x="788" y="590" on="0"/>
        <pt x="716" y="515" on="0"/>
        <pt x="648" y="432" on="0"/>
        <pt x="584" y="351" on="0"/>
        <pt x="530" y="284" on="0"/>
        <pt x="487" y="241" on="0"/>
        <pt x="474" y="238" on="1"/>
        <pt x="465" y="236" on="0"/>
        <pt x="439" y="245" on="0"/>
        <pt x="439" y="250" on="1"/>
        <pt x="439" y="318" on="1"/>
        <pt x="442" y="329" on="0"/>
        <pt x="453" y="377" on="0"/>
        <pt x="466" y="437" on="0"/>
        <pt x="481" y="503" on="0"/>
        <pt x="494" y="563" on="0"/>
        <pt x="504" y="610" on="0"/>
        <pt x="507" y="622" on="1"/>
        <pt x="512" y="645" on="0"/>
        <pt x="521" y="689" on="0"/>
        <pt x="518" y="713" on="1"/>
        <pt x="488" y="723" on="0"/>
        <pt x="420" y="672" on="0"/>
        <pt x="349" y="574" on="0"/>
        <pt x="277" y="444" on="0"/>
        <pt x="209" y="306" on="0"/>
        <pt x="146" y="172" on="0"/>
        <pt x="94" y="69" on="0"/>
        <pt x="55" y="8" on="0"/>
        <pt x="44" y="12" on="1"/>
        <pt x="30" y="16" on="0"/>
        <pt x="37" y="74" on="0"/>
        <pt x="69" y="163" on="0"/>
        <pt x="119" y="276" on="0"/>
        <pt x="178" y="396" on="0"/>
        <pt x="240" y="516" on="0"/>
        <pt x="296" y="618" on="0"/>
        <pt x="339" y="695" on="0"/>
        <pt x="349" y="713" on="1"/>
        <pt x="370" y="705" on="0"/>
        <pt x="402" y="710" on="0"/>
        <pt x="430" y="726" on="0"/>
        <pt x="457" y="748" on="0"/>
        <pt x="474" y="758" on="1"/>
        <pt x="510" y="780" on="0"/>
        <pt x="552" y="774" on="0"/>
        <pt x="571" y="736" on="0"/>
        <pt x="571" y="671" on="0"/>
        <pt x="561" y="595" on="0"/>
        <pt x="544" y="516" on="0"/>
        <pt x="528" y="449" on="0"/>
        <pt x="517" y="402" on="0"/>
        <pt x="518" y="396" on="1"/>
        <pt x="526" y="392" on="0"/>
        <pt x="537" y="402" on="0"/>
        <pt x="541" y="407" on="1"/>
        <pt x="544" y="412" on="0"/>
        <pt x="567" y="440" on="0"/>
        <pt x="597" y="477" on="0"/>
        <pt x="631" y="519" on="0"/>
        <pt x="662" y="556" on="0"/>
        <pt x="684" y="584" on="0"/>
        <pt x="688" y="589" on="1"/>
        <pt x="775" y="658" on="0"/>
        <pt x="896" y="725" on="0"/>
        <pt x="971" y="733" on="0"/>
        <pt x="1005" y="689" on="0"/>
        <pt x="1007" y="608" on="0"/>
        <pt x="981" y="495" on="0"/>
        <pt x="959" y="430" on="1"/>
        <pt x="956" y="421" on="0"/>
        <pt x="939" y="364" on="0"/>
        <pt x="915" y="287" on="0"/>
        <pt x="890" y="201" on="0"/>
        <pt x="866" y="124" on="0"/>
        <pt x="849" y="67" on="0"/>
        <pt x="846" y="58" on="1"/>
        <pt x="846" y="57" on="0"/>
        <pt x="842" y="33" on="0"/>
        <pt x="833" y="0" on="0"/>
        <pt x="821" y="-37" on="0"/>
        <pt x="803" y="-67" on="0"/>
        <pt x="780" y="-83" on="0"/>
        <pt x="766" y="-78" on="1"/>
        <pt x="765" y="-78" on="0"/>
        <pt x="757" y="-69" on="0"/>
      </contour>
    </TTGlyph>
    <TTGlyph name="N" xMin="10" yMin="0" xMax="880" yMax="724">
      <contour>
        <pt x="11" y="23" on="1"/>
        <pt x="18" y="54" on="0"/>
        <pt x="53" y="130" on="0"/>
        <pt x="95" y="204" on="0"/>
        <pt x="135" y="271" on="0"/>
        <pt x="147" y="294" on="1"/>
        <pt x="153" y="306" on="0"/>
        <pt x="178" y="355" on="0"/>
        <pt x="209" y="418" on="0"/>
        <pt x="244" y="486" on="0"/>
        <pt x="275" y="549" on="0"/>
        <pt x="300" y="598" on="0"/>
        <pt x="306" y="610" on="1"/>
        <pt x="337" y="642" on="0"/>
        <pt x="378" y="614" on="0"/>
        <pt x="410" y="528" on="0"/>
        <pt x="436" y="402" on="0"/>
        <pt x="466" y="270" on="0"/>
        <pt x="504" y="150" on="0"/>
        <pt x="531" y="113" on="1"/>
        <pt x="544" y="107" on="0"/>
        <pt x="581" y="145" on="0"/>
        <pt x="625" y="218" on="0"/>
        <pt x="673" y="316" on="0"/>
        <pt x="722" y="424" on="0"/>
        <pt x="768" y="534" on="0"/>
        <pt x="808" y="627" on="0"/>
        <pt x="837" y="697" on="0"/>
        <pt x="845" y="711" on="1"/>
        <pt x="852" y="724" on="0"/>
        <pt x="867" y="723" on="0"/>
        <pt x="877" y="708" on="0"/>
        <pt x="882" y="685" on="0"/>
        <pt x="879" y="676" on="1"/>
        <pt x="847" y="589" on="0"/>
        <pt x="791" y="449" on="0"/>
        <pt x="732" y="319" on="0"/>
        <pt x="665" y="184" on="0"/>
        <pt x="622" y="102" on="1"/>
        <pt x="590" y="63" on="0"/>
        <pt x="530" y="54" on="0"/>
        <pt x="498" y="102" on="1"/>
        <pt x="465" y="160" on="0"/>
        <pt x="427" y="264" on="0"/>
        <pt x="400" y="365" on="0"/>
        <pt x="378" y="470" on="0"/>
        <pt x="362" y="531" on="1"/>
        <pt x="353" y="537" on="0"/>
        <pt x="311" y="483" on="0"/>
        <pt x="256" y="393" on="0"/>
        <pt x="196" y="281" on="0"/>
        <pt x="142" y="177" on="0"/>
        <pt x="100" y="95" on="0"/>
        <pt x="91" y="79" on="1"/>
        <pt x="86" y="70" on="0"/>
        <pt x="71" y="44" on="0"/>
        <pt x="56" y="18" on="0"/>
        <pt x="45" y="0" on="0"/>
        <pt x="45" y="0" on="1"/>
        <pt x="11" y="0" on="1"/>
        <pt x="10" y="2" on="0"/>
        <pt x="10" y="20" on="0"/>
      </contour>
    </TTGlyph>
    <TTGlyph name="Nacute" xMin="10" yMin="0" xMax="880" yMax="853">
      <component glyphName="N" x="0" y="0" flags="0x1204"/>
      <component glyphName="acute" x="460" y="299" flags="0x1004"/>
    </TTGlyph>
    <TTGlyph name="Ncaron" xMin="10" yMin="0" xMax="880" yMax="842">
      <component glyphName="N" x="0" y="0" flags="0x1204"/>
      <component glyphName="caron" x="473" y="245" flags="0x1004"/>
    </TTGlyph>
    <TTGlyph name="Ntilde" xMin="10" yMin="0" xMax="880" yMax="856">
      <component glyphName="N" x="0" y="0" flags="0x1204"/>
      <component glyphName="tilde" x="205" y="294" flags="0x1004"/>
    </TTGlyph>
    <TTGlyph name="O" xMin="20" yMin="1" xMax="579" yMax="712">
      <contour>
        <pt x="97" y="11" on="1"/>
        <pt x="47" y="32" on="0"/>
        <pt x="15" y="107" on="0"/>
        <pt x="25" y="194" on="0"/>
        <pt x="64" y="282" on="0"/>
        <pt x="85" y="316" on="1"/>
        <pt x="92" y="328" on="0"/>
        <pt x="130" y="386" on="0"/>
        <pt x="173" y="451" on="0"/>
        <pt x="212" y="508" on="0"/>
        <pt x="220" y="519" on="1"/>
        <pt x="232" y="596" on="0"/>
        <pt x="304" y="687" on="0"/>
        <pt x="395" y="721" on="0"/>
        <pt x="491" y="702" on="0"/>
        <pt x="563" y="635" on="0"/>
        <pt x="595" y="523" on="0"/>
        <pt x="558" y="373" on="0"/>
        <pt x="438" y="187" on="0"/>
        <pt x="322" y="79" on="1"/>
        <pt x="302" y="60" on="0"/>
        <pt x="247" y="25" on="0"/>
        <pt x="186" y="3" on="0"/>
        <pt x="124" y="-1" on="0"/>
      </contour>
      <contour>
        <pt x="62" y="90" on="1"/>
        <pt x="72" y="45" on="0"/>
        <pt x="128" y="23" on="0"/>
        <pt x="204" y="53" on="0"/>
        <pt x="294" y="125" on="0"/>
        <pt x="384" y="222" on="0"/>
        <pt x="466" y="336" on="0"/>
        <pt x="527" y="448" on="0"/>
        <pt x="559" y="550" on="0"/>
        <pt x="548" y="625" on="0"/>
        <pt x="487" y="663" on="0"/>
        <pt x="424" y="655" on="1"/>
        <pt x="401" y="635" on="0"/>
        <pt x="325" y="558" on="0"/>
        <pt x="239" y="460" on="0"/>
        <pt x="153" y="347" on="0"/>
        <pt x="87" y="235" on="0"/>
        <pt x="53" y="131" on="0"/>
      </contour>
    </TTGlyph>
    <TTGlyph name="OE" xMin="20" yMin="-6" xMax="1285" yMax="749">
      <component glyphName="O" x="0" y="0" flags="0x1004"/>
      <component glyphName="E" x="402" y="-8" flags="0x1004"/>
    </TTGlyph>
    <TTGlyph name="Oacute" xMin="20" yMin="1" xMax="579" yMax="860">
      <component glyphName="O" x="0" y="0" flags="0x1204"/>
      <component glyphName="acute" x="266" y="306" flags="0x1004"/>
    </TTGlyph>
    <TTGlyph name="Ocircumflex" xMin="20" yMin="1" xMax="579" yMax="928">
      <component glyphName="O" x="0" y="0" flags="0x1204"/>
      <component glyphName="circumflex" x="293" y="271" flags="0x1004"/>
    </TTGlyph>
    <TTGlyph name="Odieresis" xMin="20" yMin="1" xMax="579" yMax="854">
      <component glyphName="O" x="0" y="0" flags="0x1204"/>
      <component glyphName="dieresis" x="229" y="339" flags="0x1004"/>
    </TTGlyph>
    <TTGlyph name="Ograve" xMin="20" yMin="1" xMax="579" yMax="895">
      <component glyphName="O" x="0" y="0" flags="0x1204"/>
      <component glyphName="grave" x="279" y="351" flags="0x1004"/>
    </TTGlyph>
    <TTGlyph name="Ohungarumlaut" xMin="20" yMin="1" xMax="579" yMax="881">
      <component glyphName="O" x="0" y="0" flags="0x1204"/>
      <component glyphName="hungarumlaut" x="233" y="340" flags="0x1004"/>
    </TTGlyph>
    <TTGlyph name="Oslash" xMin="20" yMin="-109" xMax="579" yMax="761">
      <component glyphName="O" x="0" y="0" flags="0x1204"/>
      <component glyphName="slash" x="159" y="-108" scalex="1.16619873047" scaley="1.29693603516" flags="0x1004"/>
    </TTGlyph>
    <TTGlyph name="Otilde" xMin="20" yMin="1" xMax="764" yMax="876">
      <component glyphName="O" x="0" y="0" flags="0x1204"/>
      <component glyphName="tilde" x="196" y="314" flags="0x1004"/>
    </TTGlyph>
    <TTGlyph name="P" xMin="22" yMin="0" xMax="754" yMax="750">
      <contour>
        <pt x="23" y="23" on="1"/>
        <pt x="15" y="39" on="0"/>
        <pt x="29" y="95" on="0"/>
        <pt x="56" y="155" on="0"/>
        <pt x="86" y="211" on="0"/>
        <pt x="94" y="229" on="1"/>
        <pt x="97" y="235" on="0"/>
        <pt x="100" y="243" on="0"/>
        <pt x="103" y="253" on="0"/>
        <pt x="107" y="265" on="0"/>
        <pt x="112" y="276" on="1"/>
        <pt x="118" y="289" on="0"/>
        <pt x="145" y="344" on="0"/>
        <pt x="179" y="413" on="0"/>
        <pt x="216" y="489" on="0"/>
        <pt x="249" y="558" on="0"/>
        <pt x="276" y="613" on="0"/>
        <pt x="282" y="626" on="1"/>
        <pt x="282" y="649" on="1"/>
        <pt x="264" y="652" on="0"/>
        <pt x="230" y="642" on="0"/>
        <pt x="199" y="624" on="0"/>
        <pt x="170" y="601" on="0"/>
        <pt x="158" y="592" on="1"/>
        <pt x="144" y="595" on="0"/>
        <pt x="140" y="615" on="0"/>
        <pt x="148" y="637" on="0"/>
        <pt x="163" y="656" on="0"/>
        <pt x="169" y="660" on="1"/>
        <pt x="273" y="725" on="0"/>
        <pt x="511" y="768" on="0"/>
        <pt x="633" y="750" on="1"/>
        <pt x="707" y="713" on="0"/>
        <pt x="761" y="630" on="0"/>
        <pt x="746" y="544" on="0"/>
        <pt x="673" y="460" on="0"/>
        <pt x="566" y="383" on="0"/>
        <pt x="437" y="317" on="0"/>
        <pt x="310" y="269" on="0"/>
        <pt x="196" y="242" on="0"/>
        <pt x="158" y="242" on="1"/>
        <pt x="139" y="212" on="0"/>
        <pt x="115" y="173" on="0"/>
        <pt x="101" y="144" on="0"/>
        <pt x="92" y="119" on="0"/>
        <pt x="83" y="88" on="0"/>
        <pt x="69" y="44" on="0"/>
        <pt x="57" y="11" on="1"/>
        <pt x="46" y="0" on="1"/>
        <pt x="42" y="2" on="0"/>
        <pt x="25" y="19" on="0"/>
      </contour>
      <contour>
        <pt x="192" y="299" on="1"/>
        <pt x="234" y="292" on="0"/>
        <pt x="328" y="311" on="0"/>
        <pt x="421" y="347" on="0"/>
        <pt x="507" y="392" on="0"/>
        <pt x="542" y="411" on="1"/>
        <pt x="626" y="458" on="0"/>
        <pt x="709" y="547" on="0"/>
        <pt x="727" y="624" on="0"/>
        <pt x="692" y="684" on="0"/>
        <pt x="623" y="721" on="0"/>
        <pt x="532" y="731" on="0"/>
        <pt x="439" y="707" on="0"/>
        <pt x="355" y="645" on="0"/>
        <pt x="327" y="592" on="1"/>
        <pt x="317" y="573" on="0"/>
        <pt x="289" y="518" on="0"/>
        <pt x="259" y="458" on="0"/>
        <pt x="229" y="399" on="0"/>
        <pt x="206" y="352" on="0"/>
        <pt x="192" y="322" on="0"/>
        <pt x="192" y="321" on="1"/>
      </contour>
    </TTGlyph>
    <TTGlyph name="Q" xMin="67" yMin="-175" xMax="628" yMax="785">
      <contour>
        <pt x="448" y="-164" on="1"/>
        <pt x="435" y="-148" on="0"/>
        <pt x="417" y="-93" on="0"/>
        <pt x="398" y="-38" on="0"/>
        <pt x="375" y="8" on="0"/>
        <pt x="358" y="16" on="1"/>
        <pt x="352" y="20" on="0"/>
        <pt x="321" y="9" on="0"/>
        <pt x="279" y="-6" on="0"/>
        <pt x="228" y="-19" on="0"/>
        <pt x="174" y="-16" on="0"/>
        <pt x="121" y="9" on="0"/>
        <pt x="98" y="39" on="1"/>
        <pt x="68" y="79" on="0"/>
        <pt x="66" y="183" on="0"/>
        <pt x="104" y="295" on="0"/>
        <pt x="169" y="410" on="0"/>
        <pt x="242" y="514" on="0"/>
        <pt x="312" y="599" on="0"/>
        <pt x="335" y="626" on="1"/>
        <pt x="351" y="645" on="0"/>
        <pt x="388" y="693" on="0"/>
        <pt x="431" y="739" on="0"/>
        <pt x="479" y="776" on="0"/>
        <pt x="505" y="785" on="1"/>
        <pt x="513" y="788" on="0"/>
        <pt x="527" y="776" on="0"/>
        <pt x="539" y="759" on="0"/>
        <pt x="548" y="743" on="0"/>
        <pt x="550" y="740" on="1"/>
        <pt x="595" y="685" on="0"/>
        <pt x="632" y="556" on="0"/>
        <pt x="624" y="422" on="0"/>
        <pt x="577" y="290" on="0"/>
        <pt x="539" y="232" on="1"/>
        <pt x="536" y="226" on="0"/>
        <pt x="505" y="186" on="0"/>
        <pt x="471" y="141" on="0"/>
        <pt x="440" y="101" on="0"/>
        <pt x="437" y="96" on="1"/>
        <pt x="420" y="72" on="0"/>
        <pt x="416" y="24" on="0"/>
        <pt x="428" y="-23" on="0"/>
        <pt x="450" y="-69" on="0"/>
        <pt x="469" y="-113" on="0"/>
        <pt x="478" y="-155" on="0"/>
        <pt x="471" y="-175" on="1"/>
        <pt x="463" y="-179" on="0"/>
        <pt x="452" y="-169" on="0"/>
      </contour>
      <contour>
        <pt x="155" y="28" on="1"/>
        <pt x="197" y="0" on="0"/>
        <pt x="263" y="6" on="0"/>
        <pt x="313" y="52" on="0"/>
        <pt x="347" y="127" on="0"/>
        <pt x="369" y="206" on="0"/>
        <pt x="379" y="278" on="0"/>
        <pt x="380" y="299" on="1"/>
        <pt x="381" y="300" on="0"/>
        <pt x="394" y="300" on="0"/>
        <pt x="409" y="299" on="0"/>
        <pt x="420" y="293" on="0"/>
        <pt x="420" y="288" on="1"/>
        <pt x="420" y="175" on="1"/>
        <pt x="454" y="200" on="0"/>
        <pt x="512" y="274" on="0"/>
        <pt x="555" y="360" on="0"/>
        <pt x="581" y="450" on="0"/>
        <pt x="584" y="491" on="1"/>
        <pt x="590" y="597" on="0"/>
        <pt x="555" y="693" on="0"/>
        <pt x="489" y="700" on="0"/>
        <pt x="401" y="634" on="0"/>
        <pt x="308" y="522" on="0"/>
        <pt x="220" y="380" on="0"/>
        <pt x="153" y="237" on="0"/>
        <pt x="116" y="106" on="0"/>
        <pt x="121" y="62" on="1"/>
        <pt x="122" y="60" on="0"/>
        <pt x="132" y="50" on="0"/>
        <pt x="142" y="39" on="0"/>
        <pt x="152" y="29" on="0"/>
      </contour>
    </TTGlyph>
    <TTGlyph name="R" xMin="18" yMin="-4" xMax="809" yMax="806">
      <contour>
        <pt x="18" y="11" on="1"/>
        <pt x="10" y="34" on="0"/>
        <pt x="44" y="131" on="0"/>
        <pt x="103" y="254" on="0"/>
        <pt x="176" y="386" on="0"/>
        <pt x="237" y="501" on="0"/>
        <pt x="276" y="582" on="0"/>
        <pt x="272" y="593" on="1"/>
        <pt x="260" y="597" on="0"/>
        <pt x="233" y="583" on="0"/>
        <pt x="206" y="569" on="0"/>
        <pt x="180" y="567" on="0"/>
        <pt x="170" y="582" on="1"/>
        <pt x="165" y="589" on="0"/>
        <pt x="168" y="602" on="0"/>
        <pt x="177" y="614" on="0"/>
        <pt x="188" y="623" on="0"/>
        <pt x="192" y="626" on="1"/>
        <pt x="306" y="701" on="0"/>
        <pt x="511" y="785" on="0"/>
        <pt x="674" y="815" on="0"/>
        <pt x="785" y="797" on="0"/>
        <pt x="827" y="742" on="0"/>
        <pt x="790" y="655" on="0"/>
        <pt x="657" y="547" on="0"/>
        <pt x="416" y="424" on="0"/>
        <pt x="234" y="360" on="1"/>
        <pt x="224" y="344" on="0"/>
        <pt x="255" y="304" on="0"/>
        <pt x="316" y="257" on="0"/>
        <pt x="399" y="207" on="0"/>
        <pt x="484" y="156" on="0"/>
        <pt x="561" y="107" on="0"/>
        <pt x="611" y="63" on="0"/>
        <pt x="626" y="25" on="0"/>
        <pt x="605" y="11" on="1"/>
        <pt x="604" y="10" on="0"/>
        <pt x="581" y="27" on="0"/>
        <pt x="547" y="54" on="0"/>
        <pt x="508" y="86" on="0"/>
        <pt x="473" y="114" on="0"/>
        <pt x="448" y="134" on="0"/>
        <pt x="446" y="136" on="1"/>
        <pt x="386" y="174" on="0"/>
        <pt x="266" y="248" on="0"/>
        <pt x="209" y="294" on="1"/>
        <pt x="190" y="300" on="0"/>
        <pt x="152" y="248" on="0"/>
        <pt x="116" y="167" on="0"/>
        <pt x="81" y="76" on="0"/>
        <pt x="51" y="9" on="0"/>
        <pt x="27" y="-16" on="0"/>
      </contour>
      <contour>
        <pt x="256" y="428" on="1"/>
        <pt x="278" y="421" on="0"/>
        <pt x="353" y="437" on="0"/>
        <pt x="444" y="475" on="0"/>
        <pt x="543" y="529" on="0"/>
        <pt x="633" y="588" on="0"/>
        <pt x="708" y="648" on="0"/>
        <pt x="750" y="699" on="0"/>
        <pt x="753" y="735" on="0"/>
        <pt x="727" y="740" on="1"/>
        <pt x="619" y="742" on="0"/>
        <pt x="467" y="717" on="0"/>
        <pt x="359" y="649" on="0"/>
        <pt x="285" y="531" on="0"/>
        <pt x="256" y="440" on="1"/>
      </contour>
    </TTGlyph>
    <TTGlyph name="Racute" xMin="18" yMin="-4" xMax="809" yMax="890">
      <component glyphName="R" x="0" y="0" flags="0x1204"/>
      <component glyphName="acute" x="310" y="336" flags="0x1004"/>
    </TTGlyph>
    <TTGlyph name="Rcaron" xMin="18" yMin="-4" xMax="809" yMax="887">
      <component glyphName="R" x="0" y="0" flags="0x1204"/>
      <component glyphName="caron" x="302" y="290" flags="0x1004"/>
    </TTGlyph>
    <TTGlyph name="S" xMin="10" yMin="-9" xMax="655" yMax="775">
      <contour>
        <pt x="91" y="11" on="1"/>
        <pt x="86" y="13" on="0"/>
        <pt x="49" y="31" on="0"/>
        <pt x="17" y="55" on="0"/>
        <pt x="4" y="81" on="0"/>
        <pt x="23" y="90" on="1"/>
        <pt x="34" y="80" on="0"/>
        <pt x="73" y="52" on="0"/>
        <pt x="91" y="45" on="1"/>
        <pt x="146" y="42" on="0"/>
        <pt x="250" y="47" on="0"/>
        <pt x="349" y="68" on="0"/>
        <pt x="442" y="111" on="0"/>
        <pt x="486" y="146" on="1"/>
        <pt x="535" y="187" on="0"/>
        <pt x="566" y="256" on="0"/>
        <pt x="547" y="315" on="0"/>
        <pt x="488" y="366" on="0"/>
        <pt x="407" y="411" on="0"/>
        <pt x="315" y="450" on="0"/>
        <pt x="231" y="487" on="0"/>
        <pt x="163" y="523" on="0"/>
        <pt x="147" y="542" on="1"/>
        <pt x="143" y="559" on="0"/>
        <pt x="185" y="605" on="0"/>
        <pt x="259" y="654" on="0"/>
        <pt x="355" y="703" on="0"/>
        <pt x="456" y="743" on="0"/>
        <pt x="551" y="771" on="0"/>
        <pt x="623" y="778" on="0"/>
        <pt x="661" y="760" on="0"/>
        <pt x="655" y="735" on="1"/>
        <pt x="648" y="734" on="0"/>
        <pt x="590" y="718" on="0"/>
        <pt x="507" y="694" on="0"/>
        <pt x="410" y="662" on="0"/>
        <pt x="316" y="627" on="0"/>
        <pt x="236" y="591" on="0"/>
        <pt x="190" y="557" on="0"/>
        <pt x="185" y="529" on="0"/>
        <pt x="214" y="519" on="1"/>
        <pt x="360" y="475" on="0"/>
        <pt x="527" y="376" on="0"/>
        <pt x="595" y="275" on="0"/>
        <pt x="579" y="177" on="0"/>
        <pt x="508" y="93" on="0"/>
        <pt x="394" y="28" on="0"/>
        <pt x="267" y="-8" on="0"/>
        <pt x="140" y="-10" on="0"/>
      </contour>
    </TTGlyph>
    <TTGlyph name="Sacute" xMin="10" yMin="-9" xMax="655" yMax="879">
      <component glyphName="S" x="0" y="0" flags="0x1204"/>
      <component glyphName="acute" x="232" y="325" flags="0x1004"/>
    </TTGlyph>
    <TTGlyph name="Scaron" xMin="10" yMin="-9" xMax="655" yMax="834">
      <component glyphName="S" x="0" y="0" flags="0x1204"/>
      <component glyphName="caron" x="155" y="237" flags="0x1004"/>
    </TTGlyph>
    <TTGlyph name="Scedilla" xMin="10" yMin="-173" xMax="655" yMax="775">
      <component glyphName="S" x="0" y="0" flags="0x1204"/>
      <component glyphName="cedilla" x="166" y="0" flags="0x1004"/>
    </TTGlyph>
    <TTGlyph name="Scircumflex" xMin="10" yMin="-9" xMax="655" yMax="933">
      <component glyphName="S" x="0" y="0" flags="0x1204"/>
      <component glyphName="circumflex" x="184" y="276" flags="0x1004"/>
    </TTGlyph>
    <TTGlyph name="T" xMin="18" yMin="0" xMax="979" yMax="714">
      <contour>
        <pt x="175" y="11" on="1"/>
        <pt x="169" y="36" on="0"/>
        <pt x="182" y="101" on="0"/>
        <pt x="206" y="167" on="0"/>
        <pt x="234" y="228" on="0"/>
        <pt x="243" y="248" on="1"/>
        <pt x="248" y="260" on="0"/>
        <pt x="269" y="306" on="0"/>
        <pt x="296" y="364" on="0"/>
        <pt x="325" y="428" on="0"/>
        <pt x="352" y="486" on="0"/>
        <pt x="373" y="531" on="0"/>
        <pt x="378" y="542" on="1"/>
        <pt x="361" y="545" on="0"/>
        <pt x="298" y="533" on="0"/>
        <pt x="222" y="514" on="0"/>
        <pt x="142" y="494" on="0"/>
        <pt x="73" y="485" on="0"/>
        <pt x="24" y="492" on="0"/>
        <pt x="18" y="509" on="1"/>
        <pt x="25" y="522" on="0"/>
        <pt x="113" y="556" on="0"/>
        <pt x="250" y="593" on="0"/>
        <pt x="419" y="631" on="0"/>
        <pt x="595" y="665" on="0"/>
        <pt x="763" y="693" on="0"/>
        <pt x="895" y="711" on="0"/>
        <pt x="976" y="717" on="0"/>
        <pt x="978" y="712" on="1"/>
        <pt x="981" y="704" on="0"/>
        <pt x="977" y="681" on="0"/>
        <pt x="966" y="678" on="1"/>
        <pt x="917" y="670" on="0"/>
        <pt x="803" y="651" on="0"/>
        <pt x="686" y="630" on="0"/>
        <pt x="574" y="609" on="0"/>
        <pt x="526" y="599" on="1"/>
        <pt x="495" y="593" on="0"/>
        <pt x="437" y="533" on="0"/>
        <pt x="383" y="444" on="0"/>
        <pt x="333" y="335" on="0"/>
        <pt x="288" y="223" on="0"/>
        <pt x="250" y="119" on="0"/>
        <pt x="218" y="40" on="0"/>
        <pt x="194" y="-4" on="0"/>
        <pt x="186" y="0" on="1"/>
        <pt x="184" y="2" on="0"/>
        <pt x="176" y="10" on="0"/>
      </contour>
    </TTGlyph>
    <TTGlyph name="Tcaron" xMin="18" yMin="0" xMax="979" yMax="769">
      <component glyphName="T" x="0" y="0" flags="0x1204"/>
      <component glyphName="caron" x="126" y="172" flags="0x1004"/>
    </TTGlyph>
    <TTGlyph name="Thorn" xMin="-70" yMin="-161" xMax="581" yMax="745">
      <contour>
        <pt x="13" y="-161" on="1"/>
        <pt x="13" y="-160" on="0"/>
        <pt x="-13" y="-156" on="0"/>
        <pt x="-44" y="-151" on="0"/>
        <pt x="-70" y="-146" on="0"/>
        <pt x="-70" y="-146" on="1"/>
        <pt x="-57" y="-120" on="0"/>
        <pt x="-14" y="-6" on="0"/>
        <pt x="39" y="144" on="0"/>
        <pt x="98" y="315" on="0"/>
        <pt x="158" y="480" on="0"/>
        <pt x="216" y="625" on="0"/>
        <pt x="264" y="725" on="0"/>
        <pt x="301" y="764" on="0"/>
        <pt x="311" y="740" on="1"/>
        <pt x="326" y="726" on="0"/>
        <pt x="327" y="692" on="0"/>
        <pt x="310" y="650" on="0"/>
        <pt x="280" y="601" on="0"/>
        <pt x="250" y="543" on="0"/>
        <pt x="225" y="474" on="0"/>
        <pt x="221" y="435" on="1"/>
        <pt x="326" y="515" on="0"/>
        <pt x="474" y="573" on="0"/>
        <pt x="562" y="559" on="0"/>
        <pt x="592" y="489" on="0"/>
        <pt x="569" y="393" on="0"/>
        <pt x="494" y="286" on="0"/>
        <pt x="371" y="201" on="0"/>
        <pt x="200" y="151" on="0"/>
        <pt x="94" y="159" on="1"/>
        <pt x="93" y="160" on="0"/>
        <pt x="81" y="113" on="0"/>
        <pt x="63" y="41" on="0"/>
        <pt x="43" y="-43" on="0"/>
        <pt x="25" y="-115" on="0"/>
        <pt x="13" y="-162" on="0"/>
      </contour>
      <contour>
        <pt x="142" y="242" on="1"/>
        <pt x="140" y="239" on="0"/>
        <pt x="140" y="213" on="0"/>
        <pt x="142" y="209" on="1"/>
        <pt x="192" y="207" on="0"/>
        <pt x="291" y="228" on="0"/>
        <pt x="380" y="268" on="0"/>
        <pt x="453" y="326" on="0"/>
        <pt x="500" y="396" on="0"/>
        <pt x="516" y="473" on="0"/>
        <pt x="504" y="514" on="1"/>
        <pt x="503" y="516" on="0"/>
        <pt x="478" y="514" on="0"/>
        <pt x="476" y="514" on="1"/>
        <pt x="426" y="521" on="0"/>
        <pt x="320" y="472" on="0"/>
        <pt x="227" y="388" on="0"/>
        <pt x="157" y="287" on="0"/>
      </contour>
    </TTGlyph>
    <TTGlyph name="U" xMin="33" yMin="9" xMax="744" yMax="746">
      <contour>
        <pt x="91" y="11" on="1"/>
        <pt x="55" y="40" on="0"/>
        <pt x="29" y="132" on="0"/>
        <pt x="37" y="244" on="0"/>
        <pt x="71" y="367" on="0"/>
        <pt x="118" y="486" on="0"/>
        <pt x="171" y="594" on="0"/>
        <pt x="216" y="676" on="0"/>
        <pt x="247" y="724" on="0"/>
        <pt x="249" y="723" on="1"/>
        <pt x="257" y="719" on="0"/>
        <pt x="263" y="706" on="0"/>
        <pt x="264" y="690" on="0"/>
        <pt x="262" y="674" on="0"/>
        <pt x="261" y="667" on="1"/>
        <pt x="260" y="665" on="0"/>
        <pt x="250" y="646" on="0"/>
        <pt x="249" y="644" on="1"/>
        <pt x="171" y="473" on="0"/>
        <pt x="93" y="242" on="0"/>
        <pt x="75" y="104" on="0"/>
        <pt x="110" y="49" on="0"/>
        <pt x="181" y="60" on="0"/>
        <pt x="280" y="127" on="0"/>
        <pt x="391" y="233" on="0"/>
        <pt x="505" y="369" on="0"/>
        <pt x="608" y="517" on="0"/>
        <pt x="689" y="667" on="0"/>
        <pt x="712" y="735" on="1"/>
        <pt x="714" y="737" on="0"/>
        <pt x="721" y="746" on="0"/>
        <pt x="723" y="746" on="1"/>
        <pt x="751" y="727" on="0"/>
        <pt x="737" y="636" on="0"/>
        <pt x="674" y="514" on="0"/>
        <pt x="571" y="372" on="0"/>
        <pt x="450" y="234" on="0"/>
        <pt x="322" y="111" on="0"/>
        <pt x="206" y="27" on="0"/>
        <pt x="115" y="-8" on="0"/>
      </contour>
    </TTGlyph>
    <TTGlyph name="Uacute" xMin="33" yMin="9" xMax="744" yMax="860">
      <component glyphName="U" x="0" y="0" flags="0x1204"/>
      <component glyphName="acute" x="330" y="306" flags="0x1004"/>
    </TTGlyph>
    <TTGlyph name="Ubreve" xMin="33" yMin="9" xMax="744" yMax="860">
      <component glyphName="U" x="0" y="0" flags="0x1204"/>
      <component glyphName="breve" x="316" y="260" flags="0x1004"/>
    </TTGlyph>
    <TTGlyph name="Ucircumflex" xMin="33" yMin="9" xMax="744" yMax="940">
      <component glyphName="U" x="0" y="0" flags="0x1204"/>
      <component glyphName="circumflex" x="288" y="283" flags="0x1004"/>
    </TTGlyph>
    <TTGlyph name="Udieresis" xMin="33" yMin="9" xMax="744" yMax="896">
      <component glyphName="U" x="0" y="0" flags="0x1204"/>
      <component glyphName="dieresis" x="257" y="381" flags="0x1004"/>
    </TTGlyph>
    <TTGlyph name="Ugrave" xMin="33" yMin="9" xMax="744" yMax="854">
      <component glyphName="U" x="0" y="0" flags="0x1204"/>
      <component glyphName="grave" x="282" y="310" flags="0x1004"/>
    </TTGlyph>
    <TTGlyph name="Uhungarumlaut" xMin="33" yMin="9" xMax="744" yMax="874">
      <component glyphName="U" x="0" y="0" flags="0x1204"/>
      <component glyphName="hungarumlaut" x="342" y="333" flags="0x1004"/>
    </TTGlyph>
    <TTGlyph name="Uring" xMin="33" yMin="9" xMax="744" yMax="881">
      <component glyphName="U" x="0" y="0" flags="0x1204"/>
      <component glyphName="ring" x="284" y="398" flags="0x1004"/>
    </TTGlyph>
    <TTGlyph name="V" xMin="26" yMin="10" xMax="814" yMax="749">
      <contour>
        <pt x="79" y="34" on="1"/>
        <pt x="61" y="62" on="0"/>
        <pt x="36" y="164" on="0"/>
        <pt x="25" y="288" on="0"/>
        <pt x="28" y="421" on="0"/>
        <pt x="48" y="539" on="0"/>
        <pt x="85" y="627" on="0"/>
        <pt x="113" y="644" on="1"/>
        <pt x="119" y="640" on="0"/>
        <pt x="114" y="575" on="0"/>
        <pt x="100" y="476" on="0"/>
        <pt x="83" y="356" on="0"/>
        <pt x="70" y="238" on="0"/>
        <pt x="67" y="135" on="0"/>
        <pt x="84" y="68" on="0"/>
        <pt x="123" y="51" on="0"/>
        <pt x="159" y="79" on="1"/>
        <pt x="241" y="144" on="0"/>
        <pt x="396" y="301" on="0"/>
        <pt x="464" y="373" on="1"/>
        <pt x="547" y="461" on="0"/>
        <pt x="697" y="639" on="0"/>
        <pt x="769" y="735" on="1"/>
        <pt x="778" y="748" on="0"/>
        <pt x="797" y="750" on="0"/>
        <pt x="811" y="736" on="0"/>
        <pt x="817" y="713" on="0"/>
        <pt x="814" y="701" on="1"/>
        <pt x="807" y="693" on="0"/>
        <pt x="777" y="660" on="0"/>
        <pt x="739" y="617" on="0"/>
        <pt x="697" y="570" on="0"/>
        <pt x="659" y="528" on="0"/>
        <pt x="629" y="494" on="0"/>
        <pt x="622" y="486" on="1"/>
        <pt x="604" y="466" on="0"/>
        <pt x="546" y="395" on="0"/>
        <pt x="474" y="308" on="0"/>
        <pt x="392" y="213" on="0"/>
        <pt x="307" y="126" on="0"/>
        <pt x="225" y="53" on="0"/>
        <pt x="153" y="12" on="0"/>
        <pt x="96" y="9" on="0"/>
      </contour>
    </TTGlyph>
    <TTGlyph name="W" xMin="18" yMin="2" xMax="827" yMax="784">
      <contour>
        <pt x="46" y="11" on="1"/>
        <pt x="33" y="30" on="0"/>
        <pt x="20" y="118" on="0"/>
        <pt x="17" y="234" on="0"/>
        <pt x="23" y="370" on="0"/>
        <pt x="35" y="504" on="0"/>
        <pt x="54" y="628" on="0"/>
        <pt x="76" y="721" on="0"/>
        <pt x="100" y="773" on="0"/>
        <pt x="113" y="769" on="1"/>
        <pt x="115" y="767" on="0"/>
        <pt x="124" y="759" on="0"/>
        <pt x="125" y="757" on="1"/>
        <pt x="126" y="746" on="0"/>
        <pt x="120" y="685" on="0"/>
        <pt x="109" y="600" on="0"/>
        <pt x="96" y="498" on="0"/>
        <pt x="82" y="393" on="0"/>
        <pt x="70" y="294" on="0"/>
        <pt x="63" y="215" on="0"/>
        <pt x="63" y="163" on="0"/>
        <pt x="68" y="158" on="1"/>
        <pt x="79" y="146" on="1"/>
        <pt x="94" y="153" on="0"/>
        <pt x="126" y="212" on="0"/>
        <pt x="159" y="297" on="0"/>
        <pt x="194" y="399" on="0"/>
        <pt x="229" y="498" on="0"/>
        <pt x="263" y="586" on="0"/>
        <pt x="297" y="642" on="0"/>
        <pt x="329" y="657" on="0"/>
        <pt x="358" y="612" on="0"/>
        <pt x="385" y="498" on="0"/>
        <pt x="396" y="396" on="1"/>
        <pt x="396" y="391" on="0"/>
        <pt x="406" y="338" on="0"/>
        <pt x="421" y="269" on="0"/>
        <pt x="441" y="198" on="0"/>
        <pt x="463" y="151" on="0"/>
        <pt x="487" y="142" on="0"/>
        <pt x="498" y="170" on="1"/>
        <pt x="501" y="178" on="0"/>
        <pt x="522" y="230" on="0"/>
        <pt x="550" y="300" on="0"/>
        <pt x="581" y="378" on="0"/>
        <pt x="609" y="448" on="0"/>
        <pt x="630" y="500" on="0"/>
        <pt x="634" y="509" on="1"/>
        <pt x="638" y="519" on="0"/>
        <pt x="656" y="571" on="0"/>
        <pt x="683" y="636" on="0"/>
        <pt x="717" y="706" on="0"/>
        <pt x="755" y="761" on="0"/>
        <pt x="796" y="791" on="0"/>
        <pt x="817" y="784" on="1"/>
        <pt x="819" y="784" on="0"/>
        <pt x="827" y="775" on="0"/>
        <pt x="827" y="773" on="1"/>
        <pt x="765" y="693" on="0"/>
        <pt x="684" y="533" on="0"/>
        <pt x="623" y="366" on="0"/>
        <pt x="568" y="193" on="0"/>
        <pt x="532" y="102" on="1"/>
        <pt x="517" y="63" on="0"/>
        <pt x="484" y="51" on="0"/>
        <pt x="452" y="86" on="0"/>
        <pt x="421" y="156" on="0"/>
        <pt x="393" y="243" on="0"/>
        <pt x="369" y="335" on="0"/>
        <pt x="351" y="414" on="0"/>
        <pt x="340" y="469" on="0"/>
        <pt x="339" y="474" on="1"/>
        <pt x="337" y="482" on="0"/>
        <pt x="334" y="504" on="0"/>
        <pt x="332" y="515" on="1"/>
        <pt x="330" y="527" on="0"/>
        <pt x="328" y="542" on="1"/>
        <pt x="317" y="542" on="1"/>
        <pt x="316" y="542" on="0"/>
        <pt x="294" y="501" on="0"/>
        <pt x="265" y="444" on="0"/>
        <pt x="235" y="382" on="0"/>
        <pt x="226" y="362" on="1"/>
        <pt x="221" y="352" on="0"/>
        <pt x="200" y="279" on="0"/>
        <pt x="170" y="185" on="0"/>
        <pt x="135" y="87" on="0"/>
        <pt x="98" y="16" on="0"/>
        <pt x="61" y="-12" on="0"/>
      </contour>
    </TTGlyph>
    <TTGlyph name="Wacute" xMin="18" yMin="2" xMax="827" yMax="915">
      <component glyphName="W" x="0" y="0" flags="0x1204"/>
      <component glyphName="acute" x="271" y="361" flags="0x1004"/>
    </TTGlyph>
    <TTGlyph name="Wcircumflex" xMin="18" yMin="2" xMax="827" yMax="914">
      <component glyphName="W" x="0" y="0" flags="0x1204"/>
      <component glyphName="circumflex" x="208" y="257" flags="0x1004"/>
    </TTGlyph>
    <TTGlyph name="Wdieresis" xMin="18" yMin="2" xMax="827" yMax="876">
      <component glyphName="W" x="0" y="0" flags="0x1204"/>
      <component glyphName="dieresis" x="189" y="361" flags="0x1004"/>
    </TTGlyph>
    <TTGlyph name="Wgrave" xMin="18" yMin="2" xMax="827" yMax="894">
      <component glyphName="W" x="0" y="0" flags="0x1204"/>
      <component glyphName="grave" x="322" y="350" flags="0x1004"/>
    </TTGlyph>
    <TTGlyph name="X" xMin="25" yMin="-1" xMax="509" yMax="622">
      <contour>
        <pt x="464" y="34" on="1"/>
        <pt x="458" y="42" on="0"/>
        <pt x="429" y="86" on="0"/>
        <pt x="392" y="144" on="0"/>
        <pt x="351" y="206" on="0"/>
        <pt x="315" y="256" on="0"/>
        <pt x="287" y="285" on="0"/>
        <pt x="282" y="282" on="1"/>
        <pt x="220" y="224" on="0"/>
        <pt x="120" y="100" on="0"/>
        <pt x="68" y="34" on="1"/>
        <pt x="54" y="16" on="0"/>
        <pt x="33" y="12" on="0"/>
        <pt x="24" y="27" on="0"/>
        <pt x="26" y="54" on="0"/>
        <pt x="34" y="68" on="1"/>
        <pt x="46" y="88" on="0"/>
        <pt x="91" y="139" on="0"/>
        <pt x="143" y="196" on="0"/>
        <pt x="195" y="255" on="0"/>
        <pt x="235" y="312" on="0"/>
        <pt x="255" y="363" on="0"/>
        <pt x="249" y="384" on="1"/>
        <pt x="245" y="392" on="0"/>
        <pt x="226" y="431" on="0"/>
        <pt x="205" y="474" on="0"/>
        <pt x="185" y="512" on="0"/>
        <pt x="181" y="519" on="1"/>
        <pt x="179" y="522" on="0"/>
        <pt x="166" y="545" on="0"/>
        <pt x="150" y="572" on="0"/>
        <pt x="137" y="596" on="0"/>
        <pt x="136" y="599" on="1"/>
        <pt x="134" y="601" on="0"/>
        <pt x="134" y="619" on="0"/>
        <pt x="136" y="622" on="1"/>
        <pt x="146" y="630" on="0"/>
        <pt x="174" y="601" on="0"/>
        <pt x="205" y="550" on="0"/>
        <pt x="238" y="487" on="0"/>
        <pt x="269" y="434" on="0"/>
        <pt x="296" y="402" on="0"/>
        <pt x="306" y="407" on="1"/>
        <pt x="307" y="410" on="0"/>
        <pt x="317" y="422" on="0"/>
        <pt x="327" y="437" on="0"/>
        <pt x="337" y="449" on="0"/>
        <pt x="339" y="452" on="1"/>
        <pt x="346" y="461" on="0"/>
        <pt x="372" y="511" on="0"/>
        <pt x="407" y="560" on="0"/>
        <pt x="451" y="593" on="0"/>
        <pt x="475" y="587" on="1"/>
        <pt x="493" y="583" on="0"/>
        <pt x="482" y="548" on="0"/>
        <pt x="447" y="500" on="0"/>
        <pt x="396" y="442" on="0"/>
        <pt x="352" y="388" on="0"/>
        <pt x="323" y="341" on="0"/>
        <pt x="328" y="328" on="1"/>
        <pt x="334" y="312" on="0"/>
        <pt x="369" y="257" on="0"/>
        <pt x="412" y="191" on="0"/>
        <pt x="457" y="121" on="0"/>
        <pt x="493" y="59" on="0"/>
        <pt x="513" y="10" on="0"/>
        <pt x="509" y="0" on="1"/>
        <pt x="507" y="-1" on="0"/>
        <pt x="499" y="-1" on="0"/>
        <pt x="498" y="0" on="1"/>
        <pt x="496" y="1" on="0"/>
        <pt x="487" y="9" on="0"/>
        <pt x="476" y="20" on="0"/>
        <pt x="466" y="31" on="0"/>
      </contour>
    </TTGlyph>
    <TTGlyph name="Y" xMin="35" yMin="-150" xMax="507" yMax="767">
      <contour>
        <pt x="56" y="-128" on="1"/>
        <pt x="44" y="-98" on="0"/>
        <pt x="62" y="-32" on="0"/>
        <pt x="102" y="41" on="0"/>
        <pt x="156" y="119" on="0"/>
        <pt x="204" y="202" on="0"/>
        <pt x="236" y="290" on="0"/>
        <pt x="236" y="335" on="1"/>
        <pt x="232" y="344" on="0"/>
        <pt x="204" y="387" on="0"/>
        <pt x="166" y="444" on="0"/>
        <pt x="122" y="510" on="0"/>
        <pt x="81" y="573" on="0"/>
        <pt x="48" y="630" on="0"/>
        <pt x="32" y="668" on="0"/>
        <pt x="38" y="683" on="0"/>
        <pt x="56" y="674" on="1"/>
        <pt x="70" y="661" on="0"/>
        <pt x="112" y="604" on="0"/>
        <pt x="157" y="533" on="0"/>
        <pt x="204" y="458" on="0"/>
        <pt x="244" y="399" on="0"/>
        <pt x="274" y="364" on="0"/>
        <pt x="281" y="369" on="1"/>
        <pt x="291" y="389" on="0"/>
        <pt x="330" y="476" on="0"/>
        <pt x="376" y="579" on="0"/>
        <pt x="425" y="682" on="0"/>
        <pt x="468" y="754" on="0"/>
        <pt x="501" y="779" on="0"/>
        <pt x="507" y="753" on="1"/>
        <pt x="511" y="738" on="0"/>
        <pt x="485" y="663" on="0"/>
        <pt x="437" y="558" on="0"/>
        <pt x="372" y="429" on="0"/>
        <pt x="301" y="291" on="0"/>
        <pt x="230" y="152" on="0"/>
        <pt x="168" y="25" on="0"/>
        <pt x="122" y="-81" on="0"/>
        <pt x="112" y="-117" on="1"/>
        <pt x="109" y="-127" on="0"/>
        <pt x="96" y="-146" on="0"/>
        <pt x="80" y="-154" on="0"/>
        <pt x="63" y="-145" on="0"/>
      </contour>
    </TTGlyph>
    <TTGlyph name="Yacute" xMin="35" yMin="-150" xMax="507" yMax="881">
      <component glyphName="Y" x="0" y="0" flags="0x1204"/>
      <component glyphName="acute" x="161" y="327" flags="0x1004"/>
    </TTGlyph>
    <TTGlyph name="Ycircumflex" xMin="35" yMin="-150" xMax="507" yMax="939">
      <component glyphName="Y" x="0" y="0" flags="0x1204"/>
      <component glyphName="circumflex" x="62" y="282" flags="0x1004"/>
    </TTGlyph>
    <TTGlyph name="Ydieresis" xMin="35" yMin="-150" xMax="507" yMax="790">
      <component glyphName="Y" x="0" y="0" flags="0x1204"/>
      <component glyphName="dieresis" x="39" y="275" flags="0x1004"/>
    </TTGlyph>
    <TTGlyph name="Ygrave" xMin="35" yMin="-150" xMax="507" yMax="911">
      <component glyphName="Y" x="0" y="0" flags="0x1204"/>
      <component glyphName="grave" x="148" y="367" flags="0x1004"/>
    </TTGlyph>
    <TTGlyph name="Z" xMin="29" yMin="9" xMax="819" yMax="771">
      <contour>
        <pt x="29" y="11" on="1"/>
        <pt x="10" y="25" on="0"/>
        <pt x="48" y="89" on="0"/>
        <pt x="133" y="178" on="0"/>
        <pt x="253" y="284" on="0"/>
        <pt x="382" y="396" on="0"/>
        <pt x="507" y="507" on="0"/>
        <pt x="601" y="605" on="0"/>
        <pt x="652" y="683" on="0"/>
        <pt x="642" y="706" on="1"/>
        <pt x="640" y="706" on="0"/>
        <pt x="598" y="698" on="0"/>
        <pt x="532" y="686" on="0"/>
        <pt x="451" y="674" on="0"/>
        <pt x="370" y="665" on="0"/>
        <pt x="299" y="661" on="0"/>
        <pt x="253" y="668" on="0"/>
        <pt x="240" y="688" on="0"/>
        <pt x="258" y="706" on="1"/>
        <pt x="280" y="703" on="0"/>
        <pt x="353" y="716" on="0"/>
        <pt x="440" y="735" on="0"/>
        <pt x="533" y="757" on="0"/>
        <pt x="617" y="771" on="0"/>
        <pt x="685" y="771" on="0"/>
        <pt x="720" y="747" on="0"/>
        <pt x="716" y="695" on="0"/>
        <pt x="687" y="649" on="1"/>
        <pt x="635" y="567" on="0"/>
        <pt x="511" y="440" on="0"/>
        <pt x="375" y="326" on="0"/>
        <pt x="233" y="214" on="0"/>
        <pt x="164" y="146" on="1"/>
        <pt x="163" y="146" on="0"/>
        <pt x="143" y="125" on="0"/>
        <pt x="120" y="96" on="0"/>
        <pt x="104" y="66" on="0"/>
        <pt x="107" y="57" on="1"/>
        <pt x="118" y="54" on="0"/>
        <pt x="198" y="70" on="0"/>
        <pt x="312" y="98" on="0"/>
        <pt x="448" y="131" on="0"/>
        <pt x="584" y="161" on="0"/>
        <pt x="707" y="181" on="0"/>
        <pt x="794" y="181" on="0"/>
        <pt x="834" y="155" on="0"/>
        <pt x="819" y="125" on="1"/>
        <pt x="794" y="123" on="0"/>
        <pt x="702" y="110" on="0"/>
        <pt x="585" y="91" on="0"/>
        <pt x="452" y="68" on="0"/>
        <pt x="319" y="45" on="0"/>
        <pt x="195" y="25" on="0"/>
        <pt x="98" y="12" on="0"/>
        <pt x="35" y="7" on="0"/>
      </contour>
    </TTGlyph>
    <TTGlyph name="Zacute" xMin="29" yMin="9" xMax="819" yMax="894">
      <component glyphName="Z" x="0" y="0" flags="0x1204"/>
      <component glyphName="acute" x="374" y="340" flags="0x1004"/>
    </TTGlyph>
    <TTGlyph name="Zcaron" xMin="29" yMin="9" xMax="819" yMax="862">
      <component glyphName="Z" x="0" y="0" flags="0x1204"/>
      <component glyphName="caron" x="266" y="265" flags="0x1004"/>
    </TTGlyph>
    <TTGlyph name="Zdotaccent" xMin="29" yMin="9" xMax="819" yMax="845">
      <component glyphName="Z" x="0" y="0" flags="0x1204"/>
      <component glyphName="dotaccent" x="281" y="350" flags="0x1004"/>
    </TTGlyph>
    <TTGlyph name="a" xMin="30" yMin="-3" xMax="812" yMax="532">
      <contour>
        <pt x="57" y="23" on="1"/>
        <pt x="33" y="43" on="0"/>
        <pt x="28" y="121" on="0"/>
        <pt x="55" y="219" on="0"/>
        <pt x="108" y="326" on="0"/>
        <pt x="178" y="423" on="0"/>
        <pt x="260" y="500" on="0"/>
        <pt x="342" y="537" on="0"/>
        <pt x="420" y="526" on="0"/>
        <pt x="452" y="486" on="1"/>
        <pt x="472" y="461" on="0"/>
        <pt x="480" y="410" on="0"/>
        <pt x="470" y="357" on="0"/>
        <pt x="448" y="302" on="0"/>
        <pt x="427" y="246" on="0"/>
        <pt x="414" y="188" on="0"/>
        <pt x="418" y="158" on="1"/>
        <pt x="423" y="120" on="0"/>
        <pt x="481" y="106" on="0"/>
        <pt x="562" y="128" on="0"/>
        <pt x="652" y="176" on="0"/>
        <pt x="729" y="224" on="0"/>
        <pt x="780" y="260" on="0"/>
        <pt x="780" y="260" on="1"/>
        <pt x="808" y="266" on="0"/>
        <pt x="815" y="247" on="0"/>
        <pt x="786" y="210" on="0"/>
        <pt x="728" y="163" on="0"/>
        <pt x="654" y="119" on="0"/>
        <pt x="570" y="83" on="0"/>
        <pt x="490" y="70" on="0"/>
        <pt x="419" y="85" on="0"/>
        <pt x="396" y="113" on="1"/>
        <pt x="385" y="125" on="0"/>
        <pt x="374" y="149" on="0"/>
        <pt x="362" y="158" on="1"/>
        <pt x="347" y="144" on="0"/>
        <pt x="305" y="99" on="0"/>
        <pt x="256" y="54" on="0"/>
        <pt x="201" y="14" on="0"/>
        <pt x="143" y="-6" on="0"/>
        <pt x="84" y="0" on="0"/>
      </contour>
      <contour>
        <pt x="68" y="57" on="1"/>
        <pt x="77" y="25" on="0"/>
        <pt x="139" y="30" on="0"/>
        <pt x="221" y="86" on="0"/>
        <pt x="309" y="183" on="0"/>
        <pt x="379" y="302" on="0"/>
        <pt x="416" y="434" on="0"/>
        <pt x="407" y="498" on="1"/>
        <pt x="383" y="517" on="0"/>
        <pt x="311" y="482" on="0"/>
        <pt x="230" y="403" on="0"/>
        <pt x="151" y="294" on="0"/>
        <pt x="91" y="183" on="0"/>
        <pt x="60" y="85" on="0"/>
      </contour>
    </TTGlyph>
    <TTGlyph name="aacute" xMin="30" yMin="-3" xMax="812" yMax="688">
      <component glyphName="a" x="0" y="0" flags="0x1204"/>
      <component glyphName="acute" x="181" y="134" flags="0x1004"/>
    </TTGlyph>
    <TTGlyph name="abreve" xMin="30" yMin="-3" xMax="812" yMax="721">
      <component glyphName="a" x="0" y="0" flags="0x1204"/>
      <component glyphName="breve" x="236" y="121" flags="0x1004"/>
    </TTGlyph>
    <TTGlyph name="acircumflex" xMin="30" yMin="-3" xMax="812" yMax="824">
      <component glyphName="a" x="0" y="0" flags="0x1204"/>
      <component glyphName="circumflex" x="160" y="167" flags="0x1004"/>
    </TTGlyph>
    <TTGlyph name="acute" xMin="26" yMin="406" xMax="170" yMax="554">
      <contour>
        <pt x="85" y="430" on="1"/>
        <pt x="52" y="406" on="0"/>
        <pt x="25" y="406" on="0"/>
        <pt x="28" y="435" on="0"/>
        <pt x="55" y="481" on="0"/>
        <pt x="96" y="525" on="0"/>
        <pt x="146" y="555" on="0"/>
        <pt x="170" y="554" on="1"/>
        <pt x="176" y="524" on="0"/>
        <pt x="163" y="496" on="0"/>
        <pt x="136" y="477" on="0"/>
        <pt x="100" y="454" on="0"/>
      </contour>
    </TTGlyph>
    <TTGlyph name="adieresis" xMin="30" yMin="-3" xMax="812" yMax="653">
      <component glyphName="a" x="0" y="0" flags="0x1204"/>
      <component glyphName="dieresis" x="124" y="138" flags="0x1004"/>
    </TTGlyph>
    <TTGlyph name="ae" xMin="30" yMin="-3" xMax="824" yMax="557">
      <contour>
        <pt x="57" y="23" on="1"/>
        <pt x="33" y="43" on="0"/>
        <pt x="28" y="121" on="0"/>
        <pt x="55" y="219" on="0"/>
        <pt x="108" y="326" on="0"/>
        <pt x="178" y="423" on="0"/>
        <pt x="260" y="500" on="0"/>
        <pt x="342" y="537" on="0"/>
        <pt x="420" y="526" on="0"/>
        <pt x="452" y="486" on="1"/>
        <pt x="472" y="461" on="0"/>
        <pt x="480" y="410" on="0"/>
        <pt x="470" y="357" on="0"/>
        <pt x="448" y="302" on="0"/>
        <pt x="427" y="246" on="0"/>
        <pt x="414" y="188" on="0"/>
        <pt x="418" y="158" on="1"/>
        <pt x="422" y="129" on="0"/>
        <pt x="461" y="104" on="0"/>
        <pt x="518" y="101" on="0"/>
        <pt x="588" y="117" on="0"/>
        <pt x="624" y="130" on="1"/>
        <pt x="708" y="160" on="0"/>
        <pt x="814" y="217" on="1"/>
        <pt x="826" y="213" on="0"/>
        <pt x="788" y="173" on="0"/>
        <pt x="714" y="124" on="0"/>
        <pt x="614" y="77" on="0"/>
        <pt x="513" y="57" on="0"/>
        <pt x="423" y="74" on="0"/>
        <pt x="396" y="113" on="1"/>
        <pt x="387" y="126" on="0"/>
        <pt x="374" y="149" on="0"/>
        <pt x="362" y="158" on="1"/>
        <pt x="347" y="144" on="0"/>
        <pt x="305" y="99" on="0"/>
        <pt x="256" y="54" on="0"/>
        <pt x="201" y="14" on="0"/>
        <pt x="143" y="-6" on="0"/>
        <pt x="84" y="0" on="0"/>
      </contour>
      <contour>
        <pt x="68" y="57" on="1"/>
        <pt x="77" y="25" on="0"/>
        <pt x="139" y="30" on="0"/>
        <pt x="221" y="86" on="0"/>
        <pt x="309" y="183" on="0"/>
        <pt x="379" y="302" on="0"/>
        <pt x="416" y="434" on="0"/>
        <pt x="407" y="498" on="1"/>
        <pt x="383" y="517" on="0"/>
        <pt x="311" y="482" on="0"/>
        <pt x="230" y="403" on="0"/>
        <pt x="151" y="294" on="0"/>
        <pt x="91" y="183" on="0"/>
        <pt x="60" y="85" on="0"/>
      </contour>
      <contour>
        <pt x="444" y="94" on="1"/>
        <pt x="414" y="104" on="0"/>
        <pt x="383" y="145" on="0"/>
        <pt x="373" y="195" on="0"/>
        <pt x="380" y="250" on="0"/>
        <pt x="388" y="275" on="1"/>
        <pt x="418" y="307" on="0"/>
        <pt x="493" y="390" on="0"/>
        <pt x="577" y="470" on="0"/>
        <pt x="668" y="539" on="0"/>
        <pt x="715" y="557" on="1"/>
        <pt x="731" y="564" on="0"/>
        <pt x="750" y="549" on="0"/>
        <pt x="758" y="517" on="0"/>
        <pt x="757" y="475" on="0"/>
        <pt x="751" y="435" on="0"/>
        <pt x="741" y="403" on="0"/>
        <pt x="736" y="397" on="1"/>
        <pt x="724" y="383" on="0"/>
        <pt x="655" y="345" on="0"/>
        <pt x="571" y="300" on="0"/>
        <pt x="487" y="252" on="0"/>
        <pt x="433" y="205" on="0"/>
        <pt x="423" y="159" on="0"/>
        <pt x="456" y="140" on="1"/>
        <pt x="490" y="136" on="0"/>
        <pt x="587" y="151" on="0"/>
        <pt x="688" y="176" on="0"/>
        <pt x="782" y="203" on="0"/>
        <pt x="812" y="211" on="1"/>
        <pt x="824" y="200" on="1"/>
        <pt x="802" y="171" on="0"/>
        <pt x="702" y="123" on="0"/>
        <pt x="586" y="92" on="0"/>
        <pt x="476" y="83" on="0"/>
      </contour>
      <contour>
        <pt x="683" y="476" on="1"/>
        <pt x="682" y="478" on="0"/>
        <pt x="654" y="458" on="0"/>
        <pt x="613" y="427" on="0"/>
        <pt x="566" y="390" on="0"/>
        <pt x="527" y="358" on="0"/>
        <pt x="501" y="335" on="0"/>
        <pt x="503" y="335" on="1"/>
        <pt x="519" y="332" on="0"/>
        <pt x="570" y="347" on="0"/>
        <pt x="625" y="375" on="0"/>
        <pt x="675" y="410" on="0"/>
        <pt x="704" y="444" on="0"/>
        <pt x="705" y="470" on="0"/>
      </contour>
    </TTGlyph>
    <TTGlyph name="agrave" xMin="30" yMin="-3" xMax="812" yMax="715">
      <component glyphName="a" x="0" y="0" flags="0x1204"/>
      <component glyphName="grave" x="286" y="171" flags="0x1004"/>
    </TTGlyph>
    <TTGlyph name="ampersand" xMin="18" yMin="-82" xMax="369" yMax="749">
      <contour>
        <pt x="108" y="-58" on="1"/>
        <pt x="99" y="-49" on="0"/>
        <pt x="101" y="9" on="0"/>
        <pt x="111" y="78" on="0"/>
        <pt x="120" y="142" on="0"/>
        <pt x="119" y="156" on="1"/>
        <pt x="69" y="168" on="0"/>
        <pt x="23" y="194" on="0"/>
        <pt x="14" y="222" on="0"/>
        <pt x="35" y="253" on="0"/>
        <pt x="70" y="285" on="0"/>
        <pt x="112" y="320" on="0"/>
        <pt x="145" y="356" on="0"/>
        <pt x="162" y="395" on="0"/>
        <pt x="154" y="416" on="1"/>
        <pt x="130" y="411" on="0"/>
        <pt x="75" y="425" on="0"/>
        <pt x="63" y="450" on="1"/>
        <pt x="55" y="465" on="0"/>
        <pt x="89" y="502" on="0"/>
        <pt x="137" y="542" on="0"/>
        <pt x="182" y="586" on="0"/>
        <pt x="187" y="607" on="1"/>
        <pt x="202" y="676" on="0"/>
        <pt x="221" y="742" on="0"/>
        <pt x="232" y="756" on="0"/>
        <pt x="237" y="730" on="0"/>
        <pt x="239" y="682" on="0"/>
        <pt x="241" y="622" on="0"/>
        <pt x="244" y="597" on="1"/>
        <pt x="259" y="590" on="0"/>
        <pt x="289" y="607" on="0"/>
        <pt x="320" y="631" on="0"/>
        <pt x="352" y="649" on="0"/>
        <pt x="369" y="642" on="1"/>
        <pt x="374" y="619" on="0"/>
        <pt x="353" y="590" on="0"/>
        <pt x="317" y="569" on="0"/>
        <pt x="274" y="554" on="0"/>
        <pt x="241" y="534" on="0"/>
        <pt x="224" y="506" on="0"/>
        <pt x="233" y="484" on="1"/>
        <pt x="289" y="489" on="0"/>
        <pt x="345" y="483" on="0"/>
        <pt x="359" y="464" on="0"/>
        <pt x="340" y="433" on="0"/>
        <pt x="304" y="395" on="0"/>
        <pt x="259" y="350" on="0"/>
        <pt x="220" y="303" on="0"/>
        <pt x="196" y="256" on="0"/>
        <pt x="199" y="234" on="1"/>
        <pt x="205" y="235" on="0"/>
        <pt x="237" y="235" on="0"/>
        <pt x="273" y="235" on="0"/>
        <pt x="306" y="235" on="0"/>
        <pt x="312" y="234" on="1"/>
        <pt x="341" y="232" on="0"/>
        <pt x="346" y="220" on="0"/>
        <pt x="319" y="203" on="0"/>
        <pt x="271" y="185" on="0"/>
        <pt x="224" y="169" on="0"/>
        <pt x="188" y="157" on="0"/>
        <pt x="187" y="156" on="1"/>
        <pt x="173" y="135" on="0"/>
        <pt x="170" y="65" on="0"/>
        <pt x="168" y="-8" on="0"/>
        <pt x="155" y="-70" on="0"/>
        <pt x="131" y="-82" on="1"/>
      </contour>
      <contour>
        <pt x="98" y="246" on="1"/>
        <pt x="96" y="244" on="0"/>
        <pt x="87" y="226" on="0"/>
        <pt x="86" y="223" on="1"/>
        <pt x="116" y="218" on="0"/>
        <pt x="151" y="234" on="0"/>
        <pt x="142" y="269" on="1"/>
        <pt x="130" y="273" on="0"/>
        <pt x="104" y="255" on="0"/>
      </contour>
      <contour>
        <pt x="221" y="404" on="1"/>
        <pt x="230" y="401" on="0"/>
        <pt x="250" y="411" on="0"/>
        <pt x="255" y="416" on="1"/>
        <pt x="221" y="416" on="1"/>
      </contour>
    </TTGlyph>
    <TTGlyph name="aring" xMin="30" yMin="-3" xMax="812" yMax="704">
      <component glyphName="a" x="0" y="0" flags="0x1204"/>
      <component glyphName="ring" x="113" y="221" flags="0x1004"/>
    </TTGlyph>
    <TTGlyph name="asciicircum" xMin="32" yMin="362" xMax="240" yMax="628">
      <contour>
        <pt x="213" y="374" on="1"/>
        <pt x="212" y="376" on="0"/>
        <pt x="205" y="403" on="0"/>
        <pt x="195" y="441" on="0"/>
        <pt x="184" y="484" on="0"/>
        <pt x="172" y="518" on="0"/>
        <pt x="161" y="536" on="0"/>
        <pt x="157" y="532" on="1"/>
        <pt x="154" y="527" on="0"/>
        <pt x="142" y="497" on="0"/>
        <pt x="125" y="459" on="0"/>
        <pt x="105" y="419" on="0"/>
        <pt x="81" y="389" on="0"/>
        <pt x="56" y="376" on="0"/>
        <pt x="43" y="385" on="1"/>
        <pt x="38" y="388" on="0"/>
        <pt x="28" y="400" on="0"/>
        <pt x="32" y="407" on="1"/>
        <pt x="36" y="416" on="0"/>
        <pt x="59" y="461" on="0"/>
        <pt x="85" y="512" on="0"/>
        <pt x="107" y="557" on="0"/>
        <pt x="111" y="566" on="1"/>
        <pt x="133" y="613" on="0"/>
        <pt x="171" y="638" on="0"/>
        <pt x="201" y="617" on="0"/>
        <pt x="223" y="560" on="0"/>
        <pt x="236" y="491" on="0"/>
        <pt x="241" y="420" on="0"/>
        <pt x="238" y="371" on="0"/>
        <pt x="224" y="354" on="0"/>
      </contour>
    </TTGlyph>
    <TTGlyph name="asciitilde" xMin="34" yMin="4" xMax="509" yMax="234">
      <contour>
        <pt x="249" y="11" on="1"/>
        <pt x="222" y="27" on="0"/>
        <pt x="197" y="84" on="0"/>
        <pt x="183" y="138" on="0"/>
        <pt x="173" y="175" on="0"/>
        <pt x="148" y="167" on="0"/>
        <pt x="100" y="100" on="0"/>
        <pt x="57" y="23" on="1"/>
        <pt x="39" y="17" on="0"/>
        <pt x="30" y="44" on="0"/>
        <pt x="41" y="92" on="0"/>
        <pt x="68" y="151" on="0"/>
        <pt x="105" y="202" on="0"/>
        <pt x="147" y="235" on="0"/>
        <pt x="188" y="232" on="0"/>
        <pt x="225" y="182" on="0"/>
        <pt x="238" y="125" on="1"/>
        <pt x="247" y="82" on="0"/>
        <pt x="280" y="50" on="0"/>
        <pt x="323" y="52" on="0"/>
        <pt x="373" y="82" on="0"/>
        <pt x="427" y="120" on="0"/>
        <pt x="483" y="159" on="0"/>
        <pt x="509" y="170" on="1"/>
        <pt x="515" y="161" on="0"/>
        <pt x="492" y="123" on="0"/>
        <pt x="447" y="80" on="0"/>
        <pt x="387" y="38" on="0"/>
        <pt x="325" y="9" on="0"/>
        <pt x="268" y="-1" on="0"/>
      </contour>
    </TTGlyph>
    <TTGlyph name="asterisk" xMin="18" yMin="11" xMax="537" yMax="441">
      <contour>
        <pt x="186" y="79" on="1"/>
        <pt x="183" y="86" on="0"/>
        <pt x="166" y="67" on="0"/>
        <pt x="146" y="40" on="0"/>
        <pt x="126" y="16" on="0"/>
        <pt x="113" y="17" on="0"/>
        <pt x="110" y="54" on="0"/>
        <pt x="118" y="102" on="1"/>
        <pt x="121" y="120" on="0"/>
        <pt x="106" y="136" on="0"/>
        <pt x="79" y="142" on="0"/>
        <pt x="48" y="142" on="0"/>
        <pt x="24" y="148" on="0"/>
        <pt x="12" y="163" on="0"/>
        <pt x="18" y="181" on="1"/>
        <pt x="40" y="185" on="0"/>
        <pt x="95" y="188" on="0"/>
        <pt x="141" y="201" on="0"/>
        <pt x="169" y="230" on="0"/>
        <pt x="164" y="260" on="1"/>
        <pt x="162" y="275" on="0"/>
        <pt x="136" y="302" on="0"/>
        <pt x="109" y="329" on="0"/>
        <pt x="91" y="358" on="0"/>
        <pt x="97" y="373" on="1"/>
        <pt x="108" y="378" on="0"/>
        <pt x="131" y="374" on="0"/>
        <pt x="152" y="362" on="0"/>
        <pt x="169" y="346" on="0"/>
        <pt x="175" y="339" on="1"/>
        <pt x="179" y="348" on="0"/>
        <pt x="192" y="378" on="0"/>
        <pt x="207" y="407" on="0"/>
        <pt x="224" y="429" on="0"/>
        <pt x="239" y="431" on="0"/>
        <pt x="251" y="405" on="0"/>
        <pt x="254" y="373" on="1"/>
        <pt x="256" y="374" on="0"/>
        <pt x="265" y="382" on="0"/>
        <pt x="266" y="384" on="1"/>
        <pt x="268" y="387" on="0"/>
        <pt x="278" y="403" on="0"/>
        <pt x="288" y="422" on="0"/>
        <pt x="298" y="438" on="0"/>
        <pt x="300" y="441" on="1"/>
        <pt x="322" y="448" on="0"/>
        <pt x="334" y="429" on="0"/>
        <pt x="328" y="391" on="0"/>
        <pt x="309" y="341" on="0"/>
        <pt x="289" y="293" on="0"/>
        <pt x="275" y="255" on="0"/>
        <pt x="277" y="248" on="1"/>
        <pt x="310" y="246" on="0"/>
        <pt x="374" y="250" on="0"/>
        <pt x="439" y="257" on="0"/>
        <pt x="504" y="262" on="0"/>
        <pt x="537" y="260" on="1"/>
        <pt x="543" y="248" on="0"/>
        <pt x="509" y="231" on="0"/>
        <pt x="453" y="217" on="0"/>
        <pt x="387" y="206" on="0"/>
        <pt x="333" y="194" on="0"/>
        <pt x="302" y="179" on="0"/>
        <pt x="311" y="170" on="1"/>
        <pt x="413" y="57" on="1"/>
        <pt x="413" y="34" on="1"/>
        <pt x="378" y="34" on="1"/>
        <pt x="243" y="158" on="1"/>
        <pt x="241" y="139" on="0"/>
        <pt x="246" y="103" on="0"/>
        <pt x="252" y="66" on="0"/>
        <pt x="257" y="30" on="0"/>
        <pt x="254" y="11" on="1"/>
        <pt x="220" y="11" on="1"/>
        <pt x="186" y="79" on="1"/>
      </contour>
    </TTGlyph>
    <TTGlyph name="at" xMin="23" yMin="8" xMax="634" yMax="749">
      <contour>
        <pt x="170" y="11" on="1"/>
        <pt x="107" y="29" on="0"/>
        <pt x="38" y="109" on="0"/>
        <pt x="15" y="216" on="0"/>
        <pt x="32" y="342" on="0"/>
        <pt x="79" y="468" on="0"/>
        <pt x="149" y="587" on="0"/>
        <pt x="231" y="682" on="0"/>
        <pt x="321" y="743" on="0"/>
        <pt x="406" y="754" on="0"/>
        <pt x="482" y="706" on="0"/>
        <pt x="509" y="644" on="1"/>
        <pt x="522" y="615" on="0"/>
        <pt x="538" y="550" on="0"/>
        <pt x="538" y="486" on="0"/>
        <pt x="519" y="423" on="0"/>
        <pt x="498" y="396" on="1"/>
        <pt x="483" y="376" on="0"/>
        <pt x="443" y="333" on="0"/>
        <pt x="397" y="298" on="0"/>
        <pt x="345" y="278" on="0"/>
        <pt x="317" y="282" on="1"/>
        <pt x="306" y="283" on="0"/>
        <pt x="270" y="281" on="0"/>
        <pt x="233" y="278" on="0"/>
        <pt x="200" y="278" on="0"/>
        <pt x="193" y="282" on="1"/>
        <pt x="153" y="302" on="0"/>
        <pt x="142" y="364" on="0"/>
        <pt x="174" y="427" on="0"/>
        <pt x="234" y="484" on="0"/>
        <pt x="295" y="516" on="0"/>
        <pt x="345" y="513" on="0"/>
        <pt x="350" y="486" on="1"/>
        <pt x="354" y="469" on="0"/>
        <pt x="347" y="430" on="0"/>
        <pt x="334" y="391" on="0"/>
        <pt x="320" y="354" on="0"/>
        <pt x="317" y="339" on="1"/>
        <pt x="321" y="331" on="0"/>
        <pt x="332" y="327" on="0"/>
        <pt x="344" y="329" on="0"/>
        <pt x="357" y="336" on="0"/>
        <pt x="362" y="339" on="1"/>
        <pt x="432" y="386" on="0"/>
        <pt x="495" y="501" on="0"/>
        <pt x="486" y="587" on="1"/>
        <pt x="481" y="648" on="0"/>
        <pt x="430" y="698" on="0"/>
        <pt x="357" y="693" on="0"/>
        <pt x="271" y="639" on="0"/>
        <pt x="187" y="553" on="0"/>
        <pt x="115" y="441" on="0"/>
        <pt x="72" y="318" on="0"/>
        <pt x="67" y="193" on="0"/>
        <pt x="91" y="136" on="1"/>
        <pt x="112" y="86" on="0"/>
        <pt x="171" y="41" on="0"/>
        <pt x="241" y="37" on="0"/>
        <pt x="319" y="65" on="0"/>
        <pt x="398" y="113" on="0"/>
        <pt x="477" y="173" on="0"/>
        <pt x="549" y="232" on="0"/>
        <pt x="611" y="281" on="0"/>
        <pt x="634" y="294" on="1"/>
        <pt x="640" y="257" on="0"/>
        <pt x="595" y="182" on="0"/>
        <pt x="515" y="112" on="0"/>
        <pt x="410" y="54" on="0"/>
        <pt x="303" y="15" on="0"/>
        <pt x="204" y="1" on="0"/>
      </contour>
      <contour>
        <pt x="204" y="373" on="1"/>
        <pt x="202" y="369" on="0"/>
        <pt x="202" y="343" on="0"/>
        <pt x="204" y="339" on="1"/>
        <pt x="223" y="328" on="0"/>
        <pt x="251" y="354" on="0"/>
        <pt x="270" y="397" on="0"/>
        <pt x="280" y="443" on="0"/>
        <pt x="282" y="452" on="1"/>
        <pt x="268" y="460" on="0"/>
        <pt x="242" y="443" on="0"/>
        <pt x="221" y="413" on="0"/>
        <pt x="206" y="380" on="0"/>
      </contour>
    </TTGlyph>
    <TTGlyph name="atilde" xMin="30" yMin="-3" xMax="812" yMax="754">
      <component glyphName="a" x="0" y="0" flags="0x1204"/>
      <component glyphName="tilde" x="74" y="192" flags="0x1004"/>
    </TTGlyph>
    <TTGlyph name="b" xMin="16" yMin="11" xMax="519" yMax="607">
      <contour>
        <pt x="18" y="34" on="1"/>
        <pt x="16" y="35" on="0"/>
        <pt x="16" y="43" on="0"/>
        <pt x="18" y="45" on="1"/>
        <pt x="31" y="71" on="0"/>
        <pt x="63" y="156" on="0"/>
        <pt x="99" y="257" on="0"/>
        <pt x="136" y="366" on="0"/>
        <pt x="173" y="467" on="0"/>
        <pt x="209" y="551" on="0"/>
        <pt x="241" y="602" on="0"/>
        <pt x="267" y="611" on="0"/>
        <pt x="277" y="587" on="1"/>
        <pt x="286" y="564" on="0"/>
        <pt x="278" y="515" on="0"/>
        <pt x="255" y="464" on="0"/>
        <pt x="224" y="411" on="0"/>
        <pt x="198" y="359" on="0"/>
        <pt x="182" y="307" on="0"/>
        <pt x="186" y="282" on="1"/>
        <pt x="214" y="289" on="0"/>
        <pt x="259" y="329" on="0"/>
        <pt x="302" y="374" on="0"/>
        <pt x="348" y="412" on="0"/>
        <pt x="378" y="418" on="1"/>
        <pt x="425" y="427" on="0"/>
        <pt x="489" y="400" on="0"/>
        <pt x="520" y="344" on="0"/>
        <pt x="518" y="266" on="0"/>
        <pt x="480" y="182" on="0"/>
        <pt x="404" y="102" on="0"/>
        <pt x="288" y="40" on="0"/>
        <pt x="130" y="6" on="0"/>
        <pt x="29" y="11" on="1"/>
        <pt x="27" y="13" on="0"/>
        <pt x="18" y="31" on="0"/>
      </contour>
      <contour>
        <pt x="107" y="90" on="1"/>
        <pt x="106" y="86" on="0"/>
        <pt x="106" y="61" on="0"/>
        <pt x="107" y="57" on="1"/>
        <pt x="174" y="48" on="0"/>
        <pt x="309" y="87" on="0"/>
        <pt x="415" y="170" on="0"/>
        <pt x="477" y="290" on="0"/>
        <pt x="470" y="362" on="1"/>
        <pt x="469" y="364" on="0"/>
        <pt x="460" y="372" on="0"/>
        <pt x="458" y="373" on="1"/>
        <pt x="425" y="378" on="0"/>
        <pt x="353" y="356" on="0"/>
        <pt x="281" y="313" on="0"/>
        <pt x="214" y="253" on="0"/>
        <pt x="158" y="187" on="0"/>
        <pt x="117" y="119" on="0"/>
      </contour>
    </TTGlyph>
    <TTGlyph name="backslash" xMin="20" yMin="0" xMax="316" yMax="540">
      <contour>
        <pt x="271" y="11" on="1"/>
        <pt x="244" y="38" on="0"/>
        <pt x="190" y="116" on="0"/>
        <pt x="140" y="208" on="0"/>
        <pt x="95" y="307" on="0"/>
        <pt x="58" y="401" on="0"/>
        <pt x="29" y="485" on="0"/>
        <pt x="20" y="516" on="1"/>
        <pt x="30" y="551" on="0"/>
        <pt x="60" y="529" on="0"/>
        <pt x="99" y="447" on="0"/>
        <pt x="147" y="323" on="0"/>
        <pt x="206" y="190" on="0"/>
        <pt x="275" y="65" on="0"/>
        <pt x="316" y="23" on="1"/>
        <pt x="305" y="6" on="0"/>
        <pt x="283" y="-5" on="0"/>
      </contour>
    </TTGlyph>
    <TTGlyph name="bar" xMin="22" yMin="-1" xMax="80" yMax="669">
      <contour>
        <pt x="34" y="11" on="1"/>
        <pt x="32" y="13" on="0"/>
        <pt x="24" y="31" on="0"/>
        <pt x="23" y="34" on="1"/>
        <pt x="23" y="47" on="0"/>
        <pt x="22" y="111" on="0"/>
        <pt x="22" y="183" on="0"/>
        <pt x="23" y="247" on="0"/>
        <pt x="23" y="260" on="1"/>
        <pt x="23" y="268" on="0"/>
        <pt x="25" y="316" on="0"/>
        <pt x="27" y="382" on="0"/>
        <pt x="30" y="455" on="0"/>
        <pt x="32" y="520" on="0"/>
        <pt x="34" y="568" on="0"/>
        <pt x="34" y="576" on="1"/>
        <pt x="34" y="578" on="0"/>
        <pt x="37" y="599" on="0"/>
        <pt x="42" y="625" on="0"/>
        <pt x="49" y="653" on="0"/>
        <pt x="59" y="669" on="0"/>
        <pt x="72" y="669" on="0"/>
        <pt x="79" y="655" on="1"/>
        <pt x="82" y="575" on="0"/>
        <pt x="78" y="414" on="0"/>
        <pt x="72" y="253" on="0"/>
        <pt x="66" y="92" on="0"/>
        <pt x="68" y="11" on="1"/>
        <pt x="61" y="-2" on="0"/>
        <pt x="42" y="1" on="0"/>
      </contour>
    </TTGlyph>
    <TTGlyph name="braceleft" xMin="16" yMin="-58" xMax="264" yMax="766">
      <contour>
        <pt x="155" y="-47" on="1"/>
        <pt x="122" y="-35" on="0"/>
        <pt x="57" y="24" on="0"/>
        <pt x="18" y="98" on="0"/>
        <pt x="15" y="178" on="0"/>
        <pt x="42" y="212" on="1"/>
        <pt x="45" y="216" on="0"/>
        <pt x="68" y="243" on="0"/>
        <pt x="95" y="273" on="0"/>
        <pt x="118" y="299" on="0"/>
        <pt x="121" y="302" on="1"/>
        <pt x="133" y="317" on="0"/>
        <pt x="134" y="339" on="0"/>
        <pt x="122" y="356" on="0"/>
        <pt x="102" y="369" on="0"/>
        <pt x="86" y="384" on="0"/>
        <pt x="80" y="402" on="0"/>
        <pt x="87" y="415" on="1"/>
        <pt x="88" y="418" on="0"/>
        <pt x="102" y="434" on="0"/>
        <pt x="118" y="453" on="0"/>
        <pt x="132" y="470" on="0"/>
        <pt x="133" y="472" on="1"/>
        <pt x="144" y="498" on="0"/>
        <pt x="132" y="549" on="0"/>
        <pt x="108" y="600" on="0"/>
        <pt x="87" y="650" on="0"/>
        <pt x="92" y="699" on="0"/>
        <pt x="135" y="744" on="0"/>
        <pt x="189" y="766" on="1"/>
        <pt x="201" y="770" on="0"/>
        <pt x="218" y="749" on="0"/>
        <pt x="222" y="743" on="1"/>
        <pt x="213" y="732" on="0"/>
        <pt x="175" y="707" on="0"/>
        <pt x="141" y="677" on="0"/>
        <pt x="122" y="640" on="0"/>
        <pt x="133" y="618" on="1"/>
        <pt x="189" y="506" on="1"/>
        <pt x="189" y="505" on="0"/>
        <pt x="186" y="475" on="0"/>
        <pt x="184" y="433" on="0"/>
        <pt x="185" y="387" on="0"/>
        <pt x="189" y="370" on="1"/>
        <pt x="196" y="342" on="0"/>
        <pt x="187" y="302" on="0"/>
        <pt x="165" y="272" on="0"/>
        <pt x="134" y="248" on="0"/>
        <pt x="105" y="222" on="0"/>
        <pt x="80" y="190" on="0"/>
        <pt x="76" y="167" on="1"/>
        <pt x="66" y="117" on="0"/>
        <pt x="90" y="55" on="0"/>
        <pt x="141" y="15" on="0"/>
        <pt x="211" y="-12" on="0"/>
        <pt x="246" y="-26" on="1"/>
        <pt x="265" y="-34" on="0"/>
        <pt x="262" y="-50" on="0"/>
        <pt x="231" y="-59" on="0"/>
        <pt x="181" y="-57" on="0"/>
      </contour>
    </TTGlyph>
    <TTGlyph name="braceright" xMin="10" yMin="-80" xMax="269" yMax="802">
      <contour>
        <pt x="66" y="-57" on="1"/>
        <pt x="63" y="-49" on="0"/>
        <pt x="87" y="-25" on="0"/>
        <pt x="126" y="4" on="0"/>
        <pt x="172" y="40" on="0"/>
        <pt x="209" y="82" on="0"/>
        <pt x="229" y="131" on="0"/>
        <pt x="224" y="158" on="1"/>
        <pt x="220" y="180" on="0"/>
        <pt x="192" y="217" on="0"/>
        <pt x="157" y="251" on="0"/>
        <pt x="122" y="284" on="0"/>
        <pt x="97" y="319" on="0"/>
        <pt x="89" y="359" on="0"/>
        <pt x="99" y="384" on="1"/>
        <pt x="77" y="430" on="0"/>
        <pt x="66" y="476" on="0"/>
        <pt x="76" y="497" on="0"/>
        <pt x="101" y="506" on="0"/>
        <pt x="126" y="523" on="0"/>
        <pt x="145" y="559" on="0"/>
        <pt x="145" y="598" on="1"/>
        <pt x="145" y="618" on="0"/>
        <pt x="122" y="656" on="0"/>
        <pt x="88" y="690" on="0"/>
        <pt x="50" y="723" on="0"/>
        <pt x="20" y="755" on="0"/>
        <pt x="4" y="786" on="0"/>
        <pt x="10" y="802" on="1"/>
        <pt x="42" y="802" on="1"/>
        <pt x="45" y="802" on="0"/>
        <pt x="74" y="776" on="0"/>
        <pt x="110" y="740" on="0"/>
        <pt x="146" y="701" on="0"/>
        <pt x="156" y="689" on="1"/>
        <pt x="181" y="657" on="0"/>
        <pt x="194" y="603" on="0"/>
        <pt x="182" y="551" on="0"/>
        <pt x="152" y="501" on="0"/>
        <pt x="134" y="474" on="1"/>
        <pt x="131" y="469" on="0"/>
        <pt x="122" y="452" on="0"/>
        <pt x="122" y="451" on="1"/>
        <pt x="178" y="394" on="1"/>
        <pt x="191" y="381" on="0"/>
        <pt x="183" y="364" on="0"/>
        <pt x="165" y="350" on="0"/>
        <pt x="150" y="336" on="0"/>
        <pt x="156" y="327" on="1"/>
        <pt x="168" y="309" on="0"/>
        <pt x="203" y="272" on="0"/>
        <pt x="238" y="232" on="0"/>
        <pt x="266" y="190" on="0"/>
        <pt x="269" y="168" on="1"/>
        <pt x="273" y="142" on="0"/>
        <pt x="251" y="75" on="0"/>
        <pt x="211" y="10" on="0"/>
        <pt x="160" y="-46" on="0"/>
        <pt x="112" y="-79" on="0"/>
        <pt x="73" y="-80" on="0"/>
      </contour>
    </TTGlyph>
    <TTGlyph name="bracketleft" xMin="34" yMin="-82" xMax="461" yMax="773">
      <contour>
        <pt x="45" y="-68" on="1"/>
        <pt x="43" y="-67" on="0"/>
        <pt x="34" y="-58" on="0"/>
        <pt x="34" y="-56" on="1"/>
        <pt x="33" y="-44" on="0"/>
        <pt x="36" y="33" on="0"/>
        <pt x="44" y="141" on="0"/>
        <pt x="57" y="272" on="0"/>
        <pt x="74" y="406" on="0"/>
        <pt x="96" y="533" on="0"/>
        <pt x="121" y="635" on="0"/>
        <pt x="149" y="700" on="0"/>
        <pt x="165" y="705" on="1"/>
        <pt x="167" y="706" on="0"/>
        <pt x="190" y="709" on="0"/>
        <pt x="217" y="712" on="0"/>
        <pt x="240" y="715" on="0"/>
        <pt x="243" y="716" on="1"/>
        <pt x="253" y="719" on="0"/>
        <pt x="302" y="734" on="0"/>
        <pt x="356" y="752" on="0"/>
        <pt x="404" y="769" on="0"/>
        <pt x="413" y="773" on="1"/>
        <pt x="420" y="775" on="0"/>
        <pt x="444" y="770" on="0"/>
        <pt x="460" y="760" on="0"/>
        <pt x="461" y="745" on="0"/>
        <pt x="446" y="738" on="1"/>
        <pt x="370" y="716" on="0"/>
        <pt x="270" y="678" on="0"/>
        <pt x="206" y="631" on="0"/>
        <pt x="170" y="569" on="0"/>
        <pt x="147" y="477" on="0"/>
        <pt x="128" y="349" on="0"/>
        <pt x="113" y="260" on="1"/>
        <pt x="106" y="236" on="0"/>
        <pt x="95" y="155" on="0"/>
        <pt x="89" y="68" on="0"/>
        <pt x="88" y="-14" on="0"/>
        <pt x="90" y="-39" on="1"/>
        <pt x="430" y="-22" on="1"/>
        <pt x="439" y="-37" on="0"/>
        <pt x="417" y="-55" on="0"/>
        <pt x="383" y="-65" on="0"/>
        <pt x="351" y="-68" on="0"/>
        <pt x="350" y="-68" on="1"/>
        <pt x="311" y="-73" on="0"/>
        <pt x="248" y="-79" on="0"/>
        <pt x="187" y="-82" on="0"/>
        <pt x="120" y="-81" on="0"/>
        <pt x="78" y="-79" on="1"/>
        <pt x="75" y="-78" on="0"/>
        <pt x="49" y="-70" on="0"/>
      </contour>
    </TTGlyph>
    <TTGlyph name="bracketright" xMin="13" yMin="-110" xMax="411" yMax="752">
      <contour>
        <pt x="67" y="-85" on="1"/>
        <pt x="61" y="-76" on="0"/>
        <pt x="94" y="-57" on="0"/>
        <pt x="152" y="-40" on="0"/>
        <pt x="222" y="-25" on="0"/>
        <pt x="284" y="-13" on="0"/>
        <pt x="326" y="-6" on="0"/>
        <pt x="327" y="-6" on="1"/>
        <pt x="326" y="29" on="0"/>
        <pt x="330" y="140" on="0"/>
        <pt x="336" y="271" on="0"/>
        <pt x="345" y="413" on="0"/>
        <pt x="351" y="544" on="0"/>
        <pt x="353" y="654" on="0"/>
        <pt x="351" y="689" on="1"/>
        <pt x="336" y="690" on="0"/>
        <pt x="281" y="684" on="0"/>
        <pt x="213" y="676" on="0"/>
        <pt x="139" y="670" on="0"/>
        <pt x="73" y="672" on="0"/>
        <pt x="23" y="685" on="0"/>
        <pt x="13" y="701" on="1"/>
        <pt x="7" y="709" on="0"/>
        <pt x="60" y="729" on="0"/>
        <pt x="146" y="746" on="0"/>
        <pt x="250" y="755" on="0"/>
        <pt x="342" y="749" on="0"/>
        <pt x="405" y="725" on="0"/>
        <pt x="408" y="701" on="1"/>
        <pt x="412" y="662" on="0"/>
        <pt x="410" y="546" on="0"/>
        <pt x="403" y="409" on="0"/>
        <pt x="394" y="263" on="0"/>
        <pt x="388" y="126" on="0"/>
        <pt x="389" y="9" on="0"/>
        <pt x="395" y="-29" on="1"/>
        <pt x="395" y="-32" on="0"/>
        <pt x="397" y="-46" on="0"/>
        <pt x="396" y="-61" on="0"/>
        <pt x="391" y="-73" on="0"/>
        <pt x="384" y="-74" on="1"/>
        <pt x="348" y="-70" on="0"/>
        <pt x="253" y="-91" on="0"/>
        <pt x="161" y="-110" on="0"/>
        <pt x="84" y="-110" on="0"/>
      </contour>
    </TTGlyph>
    <TTGlyph name="breve" xMin="50" yMin="494" xMax="230" yMax="600">
      <contour>
        <pt x="206" y="595" on="1"/>
        <pt x="229" y="580" on="0"/>
        <pt x="231" y="543" on="0"/>
        <pt x="205" y="511" on="0"/>
        <pt x="158" y="491" on="0"/>
        <pt x="108" y="498" on="0"/>
        <pt x="62" y="538" on="0"/>
        <pt x="50" y="582" on="1"/>
        <pt x="48" y="583" on="0"/>
        <pt x="54" y="589" on="0"/>
        <pt x="62" y="595" on="0"/>
        <pt x="71" y="600" on="0"/>
        <pt x="73" y="600" on="1"/>
        <pt x="83" y="585" on="0"/>
        <pt x="116" y="547" on="0"/>
        <pt x="154" y="532" on="0"/>
        <pt x="191" y="553" on="0"/>
      </contour>
    </TTGlyph>
    <TTGlyph name="brokenbar" xMin="22" yMin="-1" xMax="81" yMax="669">
      <contour>
        <pt x="28" y="403" on="1"/>
        <pt x="29" y="429" on="0"/>
        <pt x="31" y="485" on="0"/>
        <pt x="33" y="534" on="0"/>
        <pt x="34" y="570" on="0"/>
        <pt x="34" y="576" on="1"/>
        <pt x="34" y="578" on="0"/>
        <pt x="37" y="599" on="0"/>
        <pt x="42" y="625" on="0"/>
        <pt x="49" y="653" on="0"/>
        <pt x="59" y="669" on="0"/>
        <pt x="72" y="669" on="0"/>
        <pt x="79" y="655" on="1"/>
        <pt x="81" y="597" on="0"/>
        <pt x="80" y="466" on="0"/>
        <pt x="78" y="407" on="1"/>
      </contour>
      <contour>
        <pt x="80" y="352" on="1"/>
        <pt x="78" y="301" on="0"/>
        <pt x="74" y="220" on="0"/>
        <pt x="70" y="143" on="0"/>
        <pt x="67" y="62" on="0"/>
        <pt x="68" y="11" on="1"/>
        <pt x="61" y="-2" on="0"/>
        <pt x="42" y="1" on="0"/>
        <pt x="34" y="11" on="1"/>
        <pt x="32" y="13" on="0"/>
        <pt x="24" y="31" on="0"/>
        <pt x="23" y="34" on="1"/>
        <pt x="23" y="47" on="0"/>
        <pt x="22" y="111" on="0"/>
        <pt x="22" y="183" on="0"/>
        <pt x="23" y="247" on="0"/>
        <pt x="23" y="260" on="1"/>
        <pt x="23" y="266" on="0"/>
        <pt x="24" y="274" on="0"/>
        <pt x="26" y="291" on="0"/>
        <pt x="27" y="321" on="0"/>
        <pt x="28" y="349" on="1"/>
      </contour>
    </TTGlyph>
    <TTGlyph name="bullet" xMin="76" yMin="210" xMax="250" yMax="395">
      <contour>
        <pt x="95" y="235" on="1"/>
        <pt x="76" y="262" on="0"/>
        <pt x="77" y="316" on="0"/>
        <pt x="102" y="361" on="0"/>
        <pt x="146" y="392" on="0"/>
        <pt x="193" y="398" on="0"/>
        <pt x="237" y="374" on="0"/>
        <pt x="250" y="342" on="1"/>
        <pt x="262" y="313" on="0"/>
        <pt x="231" y="252" on="0"/>
        <pt x="176" y="213" on="0"/>
        <pt x="114" y="208" on="0"/>
      </contour>
    </TTGlyph>
    <TTGlyph name="c" xMin="25" yMin="8" xMax="535" yMax="492">
      <contour>
        <pt x="102" y="11" on="1"/>
        <pt x="51" y="28" on="0"/>
        <pt x="18" y="100" on="0"/>
        <pt x="33" y="191" on="0"/>
        <pt x="87" y="292" on="0"/>
        <pt x="161" y="384" on="0"/>
        <pt x="243" y="458" on="0"/>
        <pt x="316" y="496" on="0"/>
        <pt x="368" y="488" on="0"/>
        <pt x="374" y="452" on="1"/>
        <pt x="377" y="436" on="0"/>
        <pt x="364" y="398" on="0"/>
        <pt x="341" y="363" on="0"/>
        <pt x="312" y="334" on="0"/>
        <pt x="285" y="320" on="0"/>
        <pt x="264" y="324" on="0"/>
        <pt x="261" y="339" on="1"/>
        <pt x="273" y="359" on="0"/>
        <pt x="303" y="400" on="0"/>
        <pt x="317" y="418" on="1"/>
        <pt x="311" y="429" on="0"/>
        <pt x="277" y="417" on="0"/>
        <pt x="229" y="381" on="0"/>
        <pt x="176" y="326" on="0"/>
        <pt x="126" y="262" on="0"/>
        <pt x="87" y="193" on="0"/>
        <pt x="69" y="129" on="0"/>
        <pt x="78" y="74" on="0"/>
        <pt x="102" y="57" on="1"/>
        <pt x="135" y="54" on="0"/>
        <pt x="221" y="73" on="0"/>
        <pt x="311" y="103" on="0"/>
        <pt x="400" y="138" on="0"/>
        <pt x="473" y="168" on="0"/>
        <pt x="524" y="185" on="0"/>
        <pt x="532" y="181" on="1"/>
        <pt x="551" y="171" on="0"/>
        <pt x="518" y="133" on="0"/>
        <pt x="440" y="89" on="0"/>
        <pt x="333" y="46" on="0"/>
        <pt x="225" y="15" on="0"/>
        <pt x="129" y="2" on="0"/>
      </contour>
    </TTGlyph>
    <TTGlyph name="cacute" xMin="25" yMin="8" xMax="535" yMax="706">
      <component glyphName="c" x="0" y="0" flags="0x1204"/>
      <component glyphName="acute" x="231" y="152" flags="0x1004"/>
    </TTGlyph>
    <TTGlyph name="caron" xMin="50" yMin="497" xMax="229" yMax="597">
      <contour>
        <pt x="206" y="595" on="1"/>
        <pt x="219" y="605" on="0"/>
        <pt x="230" y="588" on="0"/>
        <pt x="227" y="556" on="0"/>
        <pt x="211" y="519" on="0"/>
        <pt x="183" y="496" on="0"/>
        <pt x="143" y="498" on="0"/>
        <pt x="118" y="522" on="1"/>
        <pt x="115" y="526" on="0"/>
        <pt x="96" y="543" on="0"/>
        <pt x="74" y="562" on="0"/>
        <pt x="54" y="579" on="0"/>
        <pt x="50" y="582" on="1"/>
        <pt x="47" y="585" on="0"/>
        <pt x="57" y="590" on="0"/>
        <pt x="62" y="590" on="1"/>
        <pt x="77" y="595" on="0"/>
        <pt x="108" y="581" on="0"/>
        <pt x="135" y="559" on="0"/>
        <pt x="154" y="538" on="0"/>
        <pt x="158" y="535" on="1"/>
        <pt x="164" y="532" on="0"/>
        <pt x="179" y="550" on="0"/>
        <pt x="193" y="573" on="0"/>
        <pt x="204" y="594" on="0"/>
      </contour>
    </TTGlyph>
    <TTGlyph name="ccaron" xMin="25" yMin="8" xMax="535" yMax="683">
      <component glyphName="c" x="0" y="0" flags="0x1204"/>
      <component glyphName="caron" x="175" y="86" flags="0x1004"/>
    </TTGlyph>
    <TTGlyph name="ccedilla" xMin="25" yMin="-173" xMax="535" yMax="492">
      <component glyphName="c" x="0" y="0" flags="0x1204"/>
      <component glyphName="cedilla" x="138" y="0" flags="0x1004"/>
    </TTGlyph>
    <TTGlyph name="ccircumflex" xMin="25" yMin="8" xMax="535" yMax="816">
      <component glyphName="c" x="0" y="0" flags="0x1204"/>
      <component glyphName="circumflex" x="114" y="159" flags="0x1004"/>
    </TTGlyph>
    <TTGlyph name="cdotaccent" xMin="25" yMin="8" xMax="535" yMax="668">
      <component glyphName="c" x="0" y="0" flags="0x1204"/>
      <component glyphName="dotaccent" x="146" y="173" flags="0x1004"/>
    </TTGlyph>
    <TTGlyph name="cedilla" xMin="52" yMin="-173" xMax="219" yMax="27">
      <contour>
        <pt x="52" y="-158" on="1"/>
        <pt x="47" y="-144" on="0"/>
        <pt x="76" y="-133" on="0"/>
        <pt x="117" y="-127" on="0"/>
        <pt x="157" y="-118" on="0"/>
        <pt x="163" y="-106" on="1"/>
        <pt x="169" y="-93" on="0"/>
        <pt x="161" y="-82" on="0"/>
        <pt x="141" y="-76" on="0"/>
        <pt x="116" y="-74" on="0"/>
        <pt x="94" y="-68" on="0"/>
        <pt x="80" y="-55" on="0"/>
        <pt x="82" y="-42" on="1"/>
        <pt x="78" y="-20" on="0"/>
        <pt x="80" y="18" on="0"/>
        <pt x="89" y="34" on="0"/>
        <pt x="104" y="19" on="0"/>
        <pt x="113" y="-11" on="1"/>
        <pt x="119" y="-30" on="0"/>
        <pt x="161" y="-44" on="0"/>
        <pt x="202" y="-54" on="0"/>
        <pt x="228" y="-72" on="0"/>
        <pt x="219" y="-94" on="1"/>
        <pt x="217" y="-102" on="0"/>
        <pt x="183" y="-136" on="0"/>
        <pt x="135" y="-166" on="0"/>
        <pt x="82" y="-180" on="0"/>
        <pt x="63" y="-169" on="1"/>
        <pt x="61" y="-168" on="0"/>
        <pt x="53" y="-160" on="0"/>
      </contour>
    </TTGlyph>
    <TTGlyph name="cent" xMin="25" yMin="-57" xMax="535" yMax="667">
      <contour>
        <pt x="102" y="11" on="1"/>
        <pt x="51" y="28" on="0"/>
        <pt x="18" y="100" on="0"/>
        <pt x="33" y="191" on="0"/>
        <pt x="87" y="292" on="0"/>
        <pt x="161" y="384" on="0"/>
        <pt x="243" y="458" on="0"/>
        <pt x="316" y="496" on="0"/>
        <pt x="368" y="488" on="0"/>
        <pt x="374" y="452" on="1"/>
        <pt x="377" y="436" on="0"/>
        <pt x="364" y="398" on="0"/>
        <pt x="341" y="363" on="0"/>
        <pt x="312" y="334" on="0"/>
        <pt x="285" y="320" on="0"/>
        <pt x="264" y="324" on="0"/>
        <pt x="261" y="339" on="1"/>
        <pt x="273" y="359" on="0"/>
        <pt x="303" y="400" on="0"/>
        <pt x="317" y="418" on="1"/>
        <pt x="311" y="429" on="0"/>
        <pt x="277" y="417" on="0"/>
        <pt x="229" y="381" on="0"/>
        <pt x="176" y="326" on="0"/>
        <pt x="126" y="262" on="0"/>
        <pt x="87" y="193" on="0"/>
        <pt x="69" y="129" on="0"/>
        <pt x="78" y="74" on="0"/>
        <pt x="102" y="57" on="1"/>
        <pt x="135" y="54" on="0"/>
        <pt x="221" y="73" on="0"/>
        <pt x="311" y="103" on="0"/>
        <pt x="400" y="138" on="0"/>
        <pt x="473" y="168" on="0"/>
        <pt x="524" y="185" on="0"/>
        <pt x="532" y="181" on="1"/>
        <pt x="551" y="171" on="0"/>
        <pt x="518" y="133" on="0"/>
        <pt x="440" y="89" on="0"/>
        <pt x="333" y="46" on="0"/>
        <pt x="225" y="15" on="0"/>
        <pt x="129" y="2" on="0"/>
      </contour>
      <contour>
        <pt x="231" y="-44" on="1"/>
        <pt x="229" y="-42" on="0"/>
        <pt x="220" y="-25" on="0"/>
        <pt x="219" y="-22" on="1"/>
        <pt x="219" y="-14" on="0"/>
        <pt x="214" y="27" on="0"/>
        <pt x="207" y="80" on="0"/>
        <pt x="199" y="138" on="0"/>
        <pt x="192" y="190" on="0"/>
        <pt x="188" y="231" on="0"/>
        <pt x="189" y="239" on="1"/>
        <pt x="189" y="247" on="0"/>
        <pt x="193" y="298" on="0"/>
        <pt x="197" y="367" on="0"/>
        <pt x="203" y="446" on="0"/>
        <pt x="207" y="515" on="0"/>
        <pt x="211" y="566" on="0"/>
        <pt x="211" y="574" on="1"/>
        <pt x="211" y="576" on="0"/>
        <pt x="214" y="597" on="0"/>
        <pt x="219" y="623" on="0"/>
        <pt x="227" y="651" on="0"/>
        <pt x="237" y="667" on="0"/>
        <pt x="250" y="667" on="0"/>
        <pt x="257" y="653" on="1"/>
        <pt x="246" y="572" on="0"/>
        <pt x="229" y="395" on="0"/>
        <pt x="227" y="214" on="0"/>
        <pt x="243" y="36" on="0"/>
        <pt x="265" y="-44" on="1"/>
        <pt x="257" y="-58" on="0"/>
        <pt x="239" y="-55" on="0"/>
      </contour>
    </TTGlyph>
    <TTGlyph name="circumflex" xMin="67" yMin="474" xMax="280" yMax="657">
      <contour>
        <pt x="252" y="494" on="1"/>
        <pt x="250" y="497" on="0"/>
        <pt x="239" y="528" on="0"/>
        <pt x="225" y="561" on="0"/>
        <pt x="210" y="581" on="0"/>
        <pt x="203" y="574" on="1"/>
        <pt x="199" y="568" on="0"/>
        <pt x="174" y="526" on="0"/>
        <pt x="138" y="486" on="0"/>
        <pt x="98" y="463" on="0"/>
        <pt x="79" y="475" on="1"/>
        <pt x="74" y="478" on="0"/>
        <pt x="63" y="489" on="0"/>
        <pt x="67" y="497" on="1"/>
        <pt x="72" y="506" on="0"/>
        <pt x="98" y="527" on="0"/>
        <pt x="126" y="548" on="0"/>
        <pt x="151" y="569" on="0"/>
        <pt x="156" y="578" on="1"/>
        <pt x="178" y="625" on="0"/>
        <pt x="215" y="660" on="0"/>
        <pt x="244" y="654" on="0"/>
        <pt x="265" y="616" on="0"/>
        <pt x="277" y="567" on="0"/>
        <pt x="282" y="516" on="0"/>
        <pt x="277" y="482" on="0"/>
        <pt x="263" y="475" on="0"/>
      </contour>
    </TTGlyph>
    <TTGlyph name="colon" xMin="27" yMin="1" xMax="88" yMax="346">
      <contour>
        <pt x="28" y="23" on="1"/>
        <pt x="21" y="37" on="0"/>
        <pt x="33" y="54" on="0"/>
        <pt x="56" y="60" on="0"/>
        <pt x="79" y="54" on="0"/>
        <pt x="84" y="45" on="1"/>
        <pt x="93" y="28" on="0"/>
        <pt x="83" y="5" on="0"/>
        <pt x="61" y="-2" on="0"/>
        <pt x="35" y="8" on="0"/>
      </contour>
      <contour>
        <pt x="39" y="294" on="1"/>
        <pt x="28" y="304" on="0"/>
        <pt x="27" y="327" on="0"/>
        <pt x="38" y="344" on="0"/>
        <pt x="60" y="348" on="0"/>
        <pt x="73" y="339" on="1"/>
        <pt x="86" y="330" on="0"/>
        <pt x="89" y="304" on="0"/>
        <pt x="77" y="285" on="0"/>
        <pt x="53" y="280" on="0"/>
      </contour>
    </TTGlyph>
    <TTGlyph name="comma" xMin="-12" yMin="-158" xMax="132" yMax="158">
      <contour>
        <pt x="-12" y="-146" on="1"/>
        <pt x="-17" y="-132" on="0"/>
        <pt x="2" y="-95" on="0"/>
        <pt x="31" y="-58" on="0"/>
        <pt x="61" y="-22" on="0"/>
        <pt x="67" y="-10" on="1"/>
        <pt x="76" y="8" on="0"/>
        <pt x="84" y="44" on="0"/>
        <pt x="86" y="80" on="0"/>
        <pt x="87" y="117" on="0"/>
        <pt x="90" y="137" on="1"/>
        <pt x="94" y="165" on="0"/>
        <pt x="113" y="150" on="0"/>
        <pt x="129" y="97" on="0"/>
        <pt x="134" y="27" on="0"/>
        <pt x="124" y="1" on="1"/>
        <pt x="122" y="-2" on="0"/>
        <pt x="110" y="-32" on="0"/>
        <pt x="91" y="-71" on="0"/>
        <pt x="66" y="-114" on="0"/>
        <pt x="39" y="-147" on="0"/>
        <pt x="12" y="-164" on="0"/>
        <pt x="-1" y="-158" on="1"/>
        <pt x="-3" y="-157" on="0"/>
        <pt x="-11" y="-148" on="0"/>
      </contour>
    </TTGlyph>
    <TTGlyph name="copyright" xMin="8" yMin="-14" xMax="661" yMax="762">
      <contour>
        <pt x="99" y="22" on="1"/>
        <pt x="48" y="58" on="0"/>
        <pt x="5" y="175" on="0"/>
        <pt x="11" y="314" on="0"/>
        <pt x="61" y="462" on="0"/>
        <pt x="142" y="596" on="0"/>
        <pt x="251" y="704" on="0"/>
        <pt x="375" y="763" on="0"/>
        <pt x="510" y="761" on="0"/>
        <pt x="578" y="717" on="1"/>
        <pt x="629" y="686" on="0"/>
        <pt x="667" y="578" on="0"/>
        <pt x="655" y="444" on="0"/>
        <pt x="600" y="299" on="0"/>
        <pt x="514" y="165" on="0"/>
        <pt x="404" y="54" on="0"/>
        <pt x="283" y="-11" on="0"/>
        <pt x="158" y="-16" on="0"/>
      </contour>
      <contour>
        <pt x="236" y="186" on="1"/>
        <pt x="199" y="199" on="0"/>
        <pt x="174" y="252" on="0"/>
        <pt x="186" y="319" on="0"/>
        <pt x="225" y="394" on="0"/>
        <pt x="279" y="463" on="0"/>
        <pt x="340" y="518" on="0"/>
        <pt x="393" y="546" on="0"/>
        <pt x="431" y="541" on="0"/>
        <pt x="436" y="514" on="1"/>
        <pt x="439" y="496" on="0"/>
        <pt x="417" y="452" on="0"/>
        <pt x="386" y="421" on="0"/>
        <pt x="356" y="412" on="0"/>
        <pt x="352" y="430" on="1"/>
        <pt x="362" y="445" on="0"/>
        <pt x="383" y="474" on="0"/>
        <pt x="394" y="488" on="1"/>
        <pt x="389" y="499" on="0"/>
        <pt x="348" y="477" on="0"/>
        <pt x="298" y="429" on="0"/>
        <pt x="247" y="363" on="0"/>
        <pt x="215" y="296" on="0"/>
        <pt x="213" y="236" on="0"/>
        <pt x="236" y="219" on="1"/>
        <pt x="265" y="217" on="0"/>
        <pt x="343" y="237" on="0"/>
        <pt x="422" y="266" on="0"/>
        <pt x="495" y="297" on="0"/>
        <pt x="519" y="306" on="1"/>
        <pt x="541" y="345" on="0"/>
        <pt x="573" y="423" on="0"/>
        <pt x="590" y="495" on="0"/>
        <pt x="590" y="557" on="0"/>
        <pt x="581" y="581" on="1"/>
        <pt x="566" y="650" on="0"/>
        <pt x="488" y="698" on="0"/>
        <pt x="386" y="679" on="0"/>
        <pt x="271" y="603" on="0"/>
        <pt x="167" y="493" on="0"/>
        <pt x="85" y="360" on="0"/>
        <pt x="47" y="228" on="0"/>
        <pt x="65" y="106" on="0"/>
        <pt x="114" y="62" on="1"/>
        <pt x="157" y="30" on="0"/>
        <pt x="255" y="37" on="0"/>
        <pt x="353" y="93" on="0"/>
        <pt x="444" y="187" on="0"/>
        <pt x="482" y="243" on="1"/>
        <pt x="452" y="229" on="0"/>
        <pt x="381" y="203" on="0"/>
        <pt x="312" y="186" on="0"/>
        <pt x="253" y="180" on="0"/>
      </contour>
    </TTGlyph>
    <TTGlyph name="currency" xMin="53" yMin="14" xMax="566" yMax="482">
      <contour>
        <pt x="130" y="112" on="1"/>
        <pt x="114" y="115" on="0"/>
        <pt x="111" y="169" on="0"/>
        <pt x="129" y="240" on="0"/>
        <pt x="163" y="310" on="0"/>
        <pt x="186" y="330" on="1"/>
        <pt x="172" y="348" on="0"/>
        <pt x="132" y="381" on="0"/>
        <pt x="97" y="417" on="0"/>
        <pt x="75" y="457" on="0"/>
        <pt x="79" y="482" on="1"/>
        <pt x="97" y="483" on="0"/>
        <pt x="137" y="454" on="0"/>
        <pt x="173" y="412" on="0"/>
        <pt x="201" y="366" on="0"/>
        <pt x="206" y="349" on="1"/>
        <pt x="221" y="375" on="0"/>
        <pt x="274" y="404" on="0"/>
        <pt x="331" y="413" on="0"/>
        <pt x="385" y="401" on="0"/>
        <pt x="403" y="386" on="1"/>
        <pt x="463" y="428" on="0"/>
        <pt x="536" y="466" on="0"/>
        <pt x="568" y="471" on="0"/>
        <pt x="564" y="449" on="0"/>
        <pt x="528" y="415" on="0"/>
        <pt x="464" y="376" on="0"/>
        <pt x="422" y="361" on="1"/>
        <pt x="429" y="343" on="0"/>
        <pt x="427" y="301" on="0"/>
        <pt x="412" y="256" on="0"/>
        <pt x="387" y="211" on="0"/>
        <pt x="372" y="190" on="1"/>
        <pt x="389" y="181" on="0"/>
        <pt x="425" y="145" on="0"/>
        <pt x="454" y="104" on="0"/>
        <pt x="473" y="65" on="0"/>
        <pt x="475" y="41" on="0"/>
        <pt x="457" y="40" on="0"/>
        <pt x="435" y="57" on="1"/>
        <pt x="426" y="72" on="0"/>
        <pt x="399" y="98" on="0"/>
        <pt x="373" y="122" on="0"/>
        <pt x="351" y="147" on="0"/>
        <pt x="346" y="162" on="1"/>
        <pt x="337" y="144" on="0"/>
        <pt x="294" y="117" on="0"/>
        <pt x="242" y="101" on="0"/>
        <pt x="190" y="96" on="0"/>
        <pt x="172" y="101" on="1"/>
        <pt x="163" y="91" on="0"/>
        <pt x="133" y="64" on="0"/>
        <pt x="100" y="37" on="0"/>
        <pt x="70" y="17" on="0"/>
        <pt x="53" y="11" on="0"/>
        <pt x="54" y="25" on="0"/>
        <pt x="70" y="46" on="1"/>
      </contour>
      <contour>
        <pt x="147" y="149" on="1"/>
        <pt x="148" y="143" on="0"/>
        <pt x="156" y="135" on="0"/>
        <pt x="164" y="131" on="0"/>
        <pt x="171" y="129" on="0"/>
        <pt x="172" y="128" on="1"/>
        <pt x="190" y="117" on="0"/>
        <pt x="242" y="128" on="0"/>
        <pt x="297" y="161" on="0"/>
        <pt x="350" y="209" on="0"/>
        <pt x="390" y="263" on="0"/>
        <pt x="411" y="315" on="0"/>
        <pt x="401" y="355" on="0"/>
        <pt x="355" y="377" on="0"/>
        <pt x="309" y="374" on="1"/>
        <pt x="303" y="375" on="0"/>
        <pt x="272" y="356" on="0"/>
        <pt x="233" y="321" on="0"/>
        <pt x="191" y="276" on="0"/>
        <pt x="159" y="225" on="0"/>
        <pt x="142" y="173" on="0"/>
      </contour>
    </TTGlyph>
    <TTGlyph name="d" xMin="4" yMin="-3" xMax="574" yMax="633">
      <contour>
        <pt x="430" y="23" on="1"/>
        <pt x="392" y="49" on="0"/>
        <pt x="358" y="126" on="0"/>
        <pt x="350" y="170" on="1"/>
        <pt x="339" y="170" on="1"/>
        <pt x="258" y="104" on="0"/>
        <pt x="139" y="38" on="0"/>
        <pt x="57" y="23" on="0"/>
        <pt x="11" y="51" on="0"/>
        <pt x="-2" y="104" on="0"/>
        <pt x="16" y="176" on="0"/>
        <pt x="60" y="249" on="0"/>
        <pt x="130" y="315" on="0"/>
        <pt x="221" y="357" on="0"/>
        <pt x="332" y="368" on="0"/>
        <pt x="396" y="350" on="1"/>
        <pt x="407" y="362" on="1"/>
        <pt x="542" y="633" on="1"/>
        <pt x="569" y="629" on="0"/>
        <pt x="579" y="589" on="0"/>
        <pt x="568" y="541" on="0"/>
        <pt x="547" y="496" on="0"/>
        <pt x="542" y="486" on="1"/>
        <pt x="539" y="480" on="0"/>
        <pt x="522" y="446" on="0"/>
        <pt x="499" y="399" on="0"/>
        <pt x="473" y="347" on="0"/>
        <pt x="450" y="300" on="0"/>
        <pt x="432" y="265" on="0"/>
        <pt x="430" y="260" on="1"/>
        <pt x="412" y="223" on="0"/>
        <pt x="415" y="140" on="0"/>
        <pt x="418" y="102" on="1"/>
        <pt x="422" y="84" on="0"/>
        <pt x="446" y="61" on="0"/>
        <pt x="473" y="42" on="0"/>
        <pt x="500" y="24" on="0"/>
        <pt x="509" y="11" on="1"/>
        <pt x="505" y="-2" on="0"/>
        <pt x="481" y="-3" on="0"/>
        <pt x="455" y="7" on="0"/>
        <pt x="433" y="21" on="0"/>
      </contour>
      <contour>
        <pt x="57" y="68" on="1"/>
        <pt x="61" y="51" on="0"/>
        <pt x="114" y="65" on="0"/>
        <pt x="186" y="110" on="0"/>
        <pt x="267" y="174" on="0"/>
        <pt x="332" y="238" on="0"/>
        <pt x="369" y="292" on="0"/>
        <pt x="362" y="305" on="1"/>
        <pt x="331" y="322" on="0"/>
        <pt x="255" y="322" on="0"/>
        <pt x="180" y="295" on="0"/>
        <pt x="111" y="246" on="0"/>
        <pt x="64" y="182" on="0"/>
        <pt x="45" y="107" on="0"/>
      </contour>
    </TTGlyph>
    <TTGlyph name="dagger" xMin="57" yMin="-1" xMax="499" yMax="669">
      <contour>
        <pt x="58" y="406" on="1"/>
        <pt x="46" y="418" on="0"/>
        <pt x="69" y="440" on="0"/>
        <pt x="124" y="459" on="0"/>
        <pt x="202" y="473" on="0"/>
        <pt x="245" y="478" on="1"/>
        <pt x="246" y="513" on="0"/>
        <pt x="248" y="568" on="0"/>
        <pt x="249" y="576" on="1"/>
        <pt x="249" y="578" on="0"/>
        <pt x="252" y="599" on="0"/>
        <pt x="257" y="625" on="0"/>
        <pt x="265" y="653" on="0"/>
        <pt x="275" y="669" on="0"/>
        <pt x="287" y="669" on="0"/>
        <pt x="294" y="655" on="1"/>
        <pt x="296" y="611" on="0"/>
        <pt x="295" y="526" on="0"/>
        <pt x="294" y="482" on="1"/>
        <pt x="338" y="485" on="0"/>
        <pt x="419" y="482" on="0"/>
        <pt x="479" y="469" on="0"/>
        <pt x="508" y="446" on="0"/>
        <pt x="499" y="428" on="1"/>
        <pt x="489" y="428" on="0"/>
        <pt x="437" y="424" on="0"/>
        <pt x="380" y="421" on="0"/>
        <pt x="328" y="417" on="0"/>
        <pt x="318" y="417" on="1"/>
        <pt x="312" y="416" on="0"/>
        <pt x="300" y="414" on="0"/>
        <pt x="293" y="413" on="1"/>
        <pt x="288" y="312" on="0"/>
        <pt x="280" y="112" on="0"/>
        <pt x="282" y="11" on="1"/>
        <pt x="276" y="-2" on="0"/>
        <pt x="257" y="1" on="0"/>
        <pt x="249" y="11" on="1"/>
        <pt x="247" y="13" on="0"/>
        <pt x="238" y="31" on="0"/>
        <pt x="238" y="34" on="1"/>
        <pt x="238" y="47" on="0"/>
        <pt x="237" y="111" on="0"/>
        <pt x="237" y="183" on="0"/>
        <pt x="238" y="247" on="0"/>
        <pt x="238" y="260" on="1"/>
        <pt x="238" y="271" on="0"/>
        <pt x="240" y="352" on="0"/>
        <pt x="242" y="402" on="1"/>
        <pt x="216" y="396" on="0"/>
        <pt x="163" y="385" on="0"/>
        <pt x="113" y="383" on="0"/>
        <pt x="71" y="392" on="0"/>
      </contour>
    </TTGlyph>
    <TTGlyph name="daggerdbl" xMin="103" yMin="9" xMax="442" yMax="617">
      <contour>
        <pt x="110" y="423" on="1"/>
        <pt x="107" y="439" on="0"/>
        <pt x="127" y="457" on="0"/>
        <pt x="164" y="463" on="0"/>
        <pt x="215" y="459" on="0"/>
        <pt x="244" y="453" on="1"/>
        <pt x="246" y="496" on="0"/>
        <pt x="254" y="564" on="0"/>
        <pt x="255" y="574" on="1"/>
        <pt x="255" y="577" on="0"/>
        <pt x="260" y="600" on="0"/>
        <pt x="271" y="617" on="0"/>
        <pt x="287" y="616" on="0"/>
        <pt x="298" y="595" on="1"/>
        <pt x="302" y="575" on="0"/>
        <pt x="307" y="546" on="0"/>
        <pt x="309" y="516" on="0"/>
        <pt x="308" y="478" on="0"/>
        <pt x="307" y="449" on="1"/>
        <pt x="389" y="460" on="0"/>
        <pt x="454" y="432" on="0"/>
        <pt x="438" y="401" on="1"/>
        <pt x="435" y="398" on="0"/>
        <pt x="411" y="393" on="0"/>
        <pt x="375" y="390" on="0"/>
        <pt x="330" y="390" on="0"/>
        <pt x="305" y="390" on="1"/>
        <pt x="303" y="377" on="0"/>
        <pt x="302" y="351" on="0"/>
        <pt x="301" y="338" on="1"/>
        <pt x="307" y="338" on="1"/>
        <pt x="316" y="338" on="0"/>
        <pt x="353" y="339" on="0"/>
        <pt x="395" y="339" on="0"/>
        <pt x="433" y="338" on="0"/>
        <pt x="442" y="338" on="1"/>
        <pt x="442" y="305" on="0"/>
        <pt x="413" y="287" on="0"/>
        <pt x="371" y="292" on="0"/>
        <pt x="320" y="306" on="0"/>
        <pt x="298" y="304" on="1"/>
        <pt x="293" y="251" on="0"/>
        <pt x="288" y="152" on="0"/>
        <pt x="286" y="72" on="0"/>
        <pt x="289" y="18" on="0"/>
        <pt x="291" y="11" on="1"/>
        <pt x="291" y="9" on="0"/>
        <pt x="275" y="10" on="0"/>
        <pt x="255" y="12" on="0"/>
        <pt x="238" y="15" on="0"/>
        <pt x="238" y="16" on="1"/>
        <pt x="238" y="24" on="0"/>
        <pt x="237" y="63" on="0"/>
        <pt x="237" y="111" on="0"/>
        <pt x="237" y="165" on="0"/>
        <pt x="237" y="213" on="0"/>
        <pt x="238" y="251" on="0"/>
        <pt x="238" y="260" on="1"/>
        <pt x="238" y="302" on="1"/>
        <pt x="209" y="301" on="0"/>
        <pt x="159" y="287" on="0"/>
        <pt x="123" y="281" on="0"/>
        <pt x="103" y="292" on="0"/>
        <pt x="103" y="317" on="1"/>
        <pt x="103" y="327" on="0"/>
        <pt x="127" y="338" on="0"/>
        <pt x="166" y="342" on="0"/>
        <pt x="215" y="341" on="0"/>
        <pt x="240" y="340" on="1"/>
        <pt x="240" y="353" on="0"/>
        <pt x="241" y="379" on="0"/>
        <pt x="242" y="394" on="1"/>
        <pt x="217" y="395" on="0"/>
        <pt x="172" y="400" on="0"/>
        <pt x="136" y="408" on="0"/>
        <pt x="113" y="417" on="0"/>
      </contour>
    </TTGlyph>
    <TTGlyph name="degree" xMin="34" yMin="422" xMax="261" yMax="613">
      <contour>
        <pt x="66" y="425" on="1"/>
        <pt x="41" y="435" on="0"/>
        <pt x="28" y="470" on="0"/>
        <pt x="41" y="510" on="0"/>
        <pt x="72" y="552" on="0"/>
        <pt x="111" y="588" on="0"/>
        <pt x="151" y="611" on="0"/>
        <pt x="166" y="613" on="1"/>
        <pt x="216" y="619" on="0"/>
        <pt x="260" y="588" on="0"/>
        <pt x="261" y="538" on="0"/>
        <pt x="227" y="478" on="0"/>
        <pt x="172" y="433" on="0"/>
        <pt x="101" y="412" on="0"/>
      </contour>
      <contour>
        <pt x="73" y="470" on="1"/>
        <pt x="78" y="451" on="0"/>
        <pt x="107" y="443" on="0"/>
        <pt x="145" y="455" on="0"/>
        <pt x="185" y="482" on="0"/>
        <pt x="217" y="514" on="0"/>
        <pt x="236" y="548" on="0"/>
        <pt x="231" y="573" on="0"/>
        <pt x="196" y="585" on="0"/>
        <pt x="159" y="580" on="1"/>
        <pt x="146" y="569" on="0"/>
        <pt x="112" y="550" on="0"/>
        <pt x="83" y="526" on="0"/>
        <pt x="67" y="494" on="0"/>
      </contour>
    </TTGlyph>
    <TTGlyph name="dieresis" xMin="102" yMin="412" xMax="333" yMax="515">
      <contour>
        <pt x="110" y="426" on="1"/>
        <pt x="96" y="447" on="0"/>
        <pt x="109" y="489" on="0"/>
        <pt x="141" y="512" on="0"/>
        <pt x="179" y="507" on="0"/>
        <pt x="190" y="482" on="1"/>
        <pt x="196" y="467" on="0"/>
        <pt x="180" y="434" on="0"/>
        <pt x="152" y="413" on="0"/>
        <pt x="120" y="411" on="0"/>
      </contour>
      <contour>
        <pt x="254" y="431" on="1"/>
        <pt x="239" y="452" on="0"/>
        <pt x="253" y="494" on="0"/>
        <pt x="285" y="517" on="0"/>
        <pt x="323" y="512" on="0"/>
        <pt x="333" y="487" on="1"/>
        <pt x="339" y="472" on="0"/>
        <pt x="323" y="439" on="0"/>
        <pt x="295" y="418" on="0"/>
        <pt x="264" y="416" on="0"/>
      </contour>
    </TTGlyph>
    <TTGlyph name="divide" xMin="43" yMin="69" xMax="545" yMax="414">
      <contour>
        <pt x="85" y="206" on="1"/>
        <pt x="53" y="201" on="0"/>
        <pt x="33" y="215" on="0"/>
        <pt x="55" y="242" on="1"/>
        <pt x="56" y="246" on="0"/>
        <pt x="127" y="260" on="0"/>
        <pt x="232" y="273" on="0"/>
        <pt x="356" y="282" on="0"/>
        <pt x="464" y="284" on="0"/>
        <pt x="539" y="275" on="0"/>
        <pt x="543" y="262" on="1"/>
        <pt x="545" y="260" on="0"/>
        <pt x="545" y="242" on="0"/>
        <pt x="543" y="239" on="1"/>
        <pt x="525" y="238" on="0"/>
        <pt x="453" y="233" on="0"/>
        <pt x="363" y="226" on="0"/>
        <pt x="265" y="219" on="0"/>
        <pt x="176" y="212" on="0"/>
        <pt x="104" y="207" on="0"/>
      </contour>
      <contour>
        <pt x="221" y="91" on="1"/>
        <pt x="214" y="105" on="0"/>
        <pt x="227" y="122" on="0"/>
        <pt x="249" y="128" on="0"/>
        <pt x="273" y="122" on="0"/>
        <pt x="278" y="113" on="1"/>
        <pt x="287" y="96" on="0"/>
        <pt x="277" y="73" on="0"/>
        <pt x="255" y="66" on="0"/>
        <pt x="228" y="76" on="0"/>
      </contour>
      <contour>
        <pt x="233" y="362" on="1"/>
        <pt x="222" y="372" on="0"/>
        <pt x="220" y="395" on="0"/>
        <pt x="231" y="412" on="0"/>
        <pt x="253" y="416" on="0"/>
        <pt x="266" y="407" on="1"/>
        <pt x="279" y="398" on="0"/>
        <pt x="282" y="372" on="0"/>
        <pt x="270" y="353" on="0"/>
        <pt x="247" y="348" on="0"/>
      </contour>
    </TTGlyph>
    <TTGlyph name="dollar" xMin="17" yMin="-2" xMax="458" yMax="746">
      <contour>
        <pt x="85" y="11" on="1"/>
        <pt x="81" y="33" on="0"/>
        <pt x="90" y="76" on="0"/>
        <pt x="101" y="115" on="0"/>
        <pt x="109" y="147" on="0"/>
        <pt x="99" y="168" on="0"/>
        <pt x="65" y="175" on="0"/>
        <pt x="29" y="170" on="1"/>
        <pt x="17" y="178" on="0"/>
        <pt x="17" y="206" on="0"/>
        <pt x="29" y="214" on="1"/>
        <pt x="33" y="214" on="0"/>
        <pt x="55" y="218" on="0"/>
        <pt x="81" y="222" on="0"/>
        <pt x="103" y="225" on="0"/>
        <pt x="107" y="226" on="1"/>
        <pt x="115" y="228" on="0"/>
        <pt x="141" y="236" on="0"/>
        <pt x="142" y="238" on="1"/>
        <pt x="198" y="396" on="1"/>
        <pt x="202" y="408" on="0"/>
        <pt x="181" y="428" on="0"/>
        <pt x="148" y="449" on="0"/>
        <pt x="111" y="471" on="0"/>
        <pt x="86" y="498" on="0"/>
        <pt x="81" y="532" on="0"/>
        <pt x="97" y="554" on="1"/>
        <pt x="107" y="568" on="0"/>
        <pt x="148" y="582" on="0"/>
        <pt x="194" y="591" on="0"/>
        <pt x="239" y="600" on="0"/>
        <pt x="254" y="610" on="1"/>
        <pt x="260" y="614" on="0"/>
        <pt x="273" y="645" on="0"/>
        <pt x="289" y="685" on="0"/>
        <pt x="306" y="724" on="0"/>
        <pt x="325" y="747" on="0"/>
        <pt x="345" y="745" on="0"/>
        <pt x="356" y="723" on="1"/>
        <pt x="360" y="714" on="0"/>
        <pt x="357" y="691" on="0"/>
        <pt x="349" y="667" on="0"/>
        <pt x="343" y="643" on="0"/>
        <pt x="345" y="633" on="1"/>
        <pt x="446" y="633" on="1"/>
        <pt x="449" y="633" on="0"/>
        <pt x="457" y="624" on="0"/>
        <pt x="458" y="622" on="1"/>
        <pt x="458" y="587" on="1"/>
        <pt x="422" y="585" on="0"/>
        <pt x="355" y="576" on="0"/>
        <pt x="306" y="549" on="0"/>
        <pt x="282" y="497" on="0"/>
        <pt x="288" y="452" on="1"/>
        <pt x="363" y="425" on="0"/>
        <pt x="433" y="375" on="0"/>
        <pt x="447" y="328" on="0"/>
        <pt x="415" y="286" on="0"/>
        <pt x="358" y="248" on="0"/>
        <pt x="287" y="215" on="0"/>
        <pt x="223" y="188" on="0"/>
        <pt x="178" y="166" on="0"/>
        <pt x="175" y="158" on="1"/>
        <pt x="130" y="23" on="1"/>
        <pt x="130" y="21" on="0"/>
        <pt x="117" y="8" on="0"/>
        <pt x="102" y="-2" on="0"/>
        <pt x="87" y="-1" on="0"/>
      </contour>
      <contour>
        <pt x="220" y="248" on="1"/>
        <pt x="242" y="244" on="0"/>
        <pt x="293" y="259" on="0"/>
        <pt x="340" y="287" on="0"/>
        <pt x="379" y="323" on="0"/>
        <pt x="390" y="339" on="1"/>
        <pt x="389" y="356" on="0"/>
        <pt x="367" y="383" on="0"/>
        <pt x="333" y="397" on="0"/>
        <pt x="292" y="395" on="0"/>
        <pt x="255" y="371" on="0"/>
        <pt x="226" y="322" on="0"/>
        <pt x="220" y="282" on="1"/>
      </contour>
      <contour>
        <pt x="164" y="486" on="1"/>
        <pt x="192" y="467" on="0"/>
        <pt x="223" y="472" on="0"/>
        <pt x="232" y="498" on="0"/>
        <pt x="224" y="532" on="0"/>
        <pt x="203" y="552" on="0"/>
        <pt x="171" y="546" on="0"/>
        <pt x="153" y="519" on="1"/>
        <pt x="145" y="509" on="0"/>
        <pt x="156" y="491" on="0"/>
      </contour>
    </TTGlyph>
    <TTGlyph name="dotaccent" xMin="66" yMin="382" xMax="179" yMax="495">
      <contour>
        <pt x="82" y="408" on="1"/>
        <pt x="67" y="428" on="0"/>
        <pt x="66" y="462" on="0"/>
        <pt x="83" y="486" on="0"/>
        <pt x="113" y="497" on="0"/>
        <pt x="144" y="492" on="0"/>
        <pt x="171" y="470" on="0"/>
        <pt x="177" y="449" on="1"/>
        <pt x="186" y="427" on="0"/>
        <pt x="171" y="392" on="0"/>
        <pt x="138" y="377" on="0"/>
        <pt x="98" y="387" on="0"/>
      </contour>
    </TTGlyph>
    <TTGlyph name="e" xMin="17" yMin="4" xMax="465" yMax="474">
      <contour>
        <pt x="85" y="11" on="1"/>
        <pt x="55" y="21" on="0"/>
        <pt x="24" y="62" on="0"/>
        <pt x="14" y="112" on="0"/>
        <pt x="21" y="167" on="0"/>
        <pt x="29" y="192" on="1"/>
        <pt x="59" y="224" on="0"/>
        <pt x="134" y="307" on="0"/>
        <pt x="218" y="387" on="0"/>
        <pt x="309" y="456" on="0"/>
        <pt x="356" y="474" on="1"/>
        <pt x="372" y="481" on="0"/>
        <pt x="391" y="466" on="0"/>
        <pt x="399" y="434" on="0"/>
        <pt x="398" y="392" on="0"/>
        <pt x="392" y="352" on="0"/>
        <pt x="382" y="320" on="0"/>
        <pt x="377" y="314" on="1"/>
        <pt x="365" y="300" on="0"/>
        <pt x="296" y="262" on="0"/>
        <pt x="212" y="217" on="0"/>
        <pt x="128" y="169" on="0"/>
        <pt x="74" y="122" on="0"/>
        <pt x="64" y="76" on="0"/>
        <pt x="97" y="57" on="1"/>
        <pt x="131" y="53" on="0"/>
        <pt x="228" y="68" on="0"/>
        <pt x="329" y="93" on="0"/>
        <pt x="423" y="120" on="0"/>
        <pt x="453" y="128" on="1"/>
        <pt x="465" y="117" on="1"/>
        <pt x="443" y="88" on="0"/>
        <pt x="343" y="40" on="0"/>
        <pt x="227" y="9" on="0"/>
        <pt x="117" y="0" on="0"/>
      </contour>
      <contour>
        <pt x="324" y="393" on="1"/>
        <pt x="323" y="394" on="0"/>
        <pt x="295" y="375" on="0"/>
        <pt x="254" y="344" on="0"/>
        <pt x="207" y="307" on="0"/>
        <pt x="168" y="275" on="0"/>
        <pt x="142" y="252" on="0"/>
        <pt x="144" y="252" on="1"/>
        <pt x="160" y="249" on="0"/>
        <pt x="211" y="264" on="0"/>
        <pt x="266" y="292" on="0"/>
        <pt x="316" y="327" on="0"/>
        <pt x="345" y="361" on="0"/>
        <pt x="346" y="387" on="0"/>
      </contour>
    </TTGlyph>
    <TTGlyph name="eacute" xMin="17" yMin="4" xMax="465" yMax="554">
      <component glyphName="e" x="0" y="0" flags="0x1204"/>
      <component glyphName="acute" x="131" y="0" flags="0x1004"/>
    </TTGlyph>
    <TTGlyph name="ecaron" xMin="17" yMin="4" xMax="465" yMax="595">
      <component glyphName="e" x="0" y="0" flags="0x1204"/>
      <component glyphName="caron" x="96" y="-2" flags="0x1004"/>
    </TTGlyph>
    <TTGlyph name="ecircumflex" xMin="17" yMin="4" xMax="465" yMax="769">
      <component glyphName="e" x="0" y="0" flags="0x1204"/>
      <component glyphName="circumflex" x="30" y="112" flags="0x1004"/>
    </TTGlyph>
    <TTGlyph name="edieresis" xMin="17" yMin="4" xMax="465" yMax="581">
      <component glyphName="e" x="0" y="0" flags="0x1204"/>
      <component glyphName="dieresis" x="14" y="66" flags="0x1004"/>
    </TTGlyph>
    <TTGlyph name="edotaccent" xMin="17" yMin="4" xMax="465" yMax="646">
      <component glyphName="e" x="0" y="0" flags="0x1204"/>
      <component glyphName="dotaccent" x="139" y="151" flags="0x1004"/>
    </TTGlyph>
    <TTGlyph name="egrave" xMin="17" yMin="4" xMax="465" yMax="649">
      <component glyphName="e" x="0" y="0" flags="0x1204"/>
      <component glyphName="grave" x="91" y="105" flags="0x1004"/>
    </TTGlyph>
    <TTGlyph name="eight" xMin="15" yMin="-1" xMax="470" yMax="627">
      <contour>
        <pt x="50" y="11" on="1"/>
        <pt x="28" y="23" on="0"/>
        <pt x="13" y="61" on="0"/>
        <pt x="18" y="103" on="0"/>
        <pt x="38" y="144" on="0"/>
        <pt x="50" y="158" on="1"/>
        <pt x="58" y="167" on="0"/>
        <pt x="97" y="209" on="0"/>
        <pt x="140" y="255" on="0"/>
        <pt x="178" y="297" on="0"/>
        <pt x="186" y="305" on="1"/>
        <pt x="195" y="328" on="0"/>
        <pt x="179" y="370" on="0"/>
        <pt x="151" y="413" on="0"/>
        <pt x="125" y="457" on="0"/>
        <pt x="124" y="504" on="0"/>
        <pt x="160" y="557" on="0"/>
        <pt x="209" y="587" on="1"/>
        <pt x="265" y="622" on="0"/>
        <pt x="331" y="632" on="0"/>
        <pt x="375" y="602" on="0"/>
        <pt x="409" y="543" on="0"/>
        <pt x="435" y="509" on="1"/>
        <pt x="438" y="506" on="0"/>
        <pt x="452" y="500" on="0"/>
        <pt x="465" y="493" on="0"/>
        <pt x="473" y="482" on="0"/>
        <pt x="470" y="474" on="1"/>
        <pt x="445" y="458" on="0"/>
        <pt x="390" y="419" on="0"/>
        <pt x="336" y="376" on="0"/>
        <pt x="286" y="329" on="0"/>
        <pt x="266" y="305" on="1"/>
        <pt x="257" y="271" on="0"/>
        <pt x="270" y="214" on="0"/>
        <pt x="289" y="165" on="0"/>
        <pt x="303" y="122" on="0"/>
        <pt x="289" y="79" on="0"/>
        <pt x="234" y="36" on="0"/>
        <pt x="175" y="11" on="1"/>
        <pt x="147" y="0" on="0"/>
        <pt x="79" y="-2" on="0"/>
      </contour>
      <contour>
        <pt x="62" y="45" on="1"/>
        <pt x="122" y="34" on="0"/>
        <pt x="197" y="60" on="0"/>
        <pt x="238" y="109" on="0"/>
        <pt x="250" y="171" on="0"/>
        <pt x="243" y="224" on="0"/>
        <pt x="221" y="254" on="0"/>
        <pt x="209" y="248" on="1"/>
        <pt x="199" y="239" on="0"/>
        <pt x="153" y="199" on="0"/>
        <pt x="105" y="150" on="0"/>
        <pt x="66" y="99" on="0"/>
        <pt x="62" y="79" on="1"/>
      </contour>
      <contour>
        <pt x="198" y="384" on="1"/>
        <pt x="199" y="382" on="0"/>
        <pt x="206" y="372" on="0"/>
        <pt x="213" y="361" on="0"/>
        <pt x="219" y="351" on="0"/>
        <pt x="220" y="350" on="1"/>
        <pt x="222" y="349" on="0"/>
        <pt x="230" y="349" on="0"/>
        <pt x="232" y="350" on="1"/>
        <pt x="238" y="355" on="0"/>
        <pt x="270" y="381" on="0"/>
        <pt x="306" y="410" on="0"/>
        <pt x="339" y="436" on="0"/>
        <pt x="345" y="441" on="1"/>
        <pt x="350" y="445" on="0"/>
        <pt x="368" y="462" on="0"/>
        <pt x="368" y="464" on="1"/>
        <pt x="368" y="554" on="1"/>
        <pt x="368" y="565" on="0"/>
        <pt x="330" y="574" on="0"/>
        <pt x="276" y="568" on="0"/>
        <pt x="219" y="544" on="0"/>
        <pt x="181" y="499" on="0"/>
        <pt x="174" y="431" on="0"/>
      </contour>
    </TTGlyph>
    <TTGlyph name="ellipsis" xMin="26" yMin="-3" xMax="406" yMax="96">
      <contour>
        <pt x="34" y="11" on="1"/>
        <pt x="20" y="32" on="0"/>
        <pt x="33" y="75" on="0"/>
        <pt x="65" y="98" on="0"/>
        <pt x="103" y="93" on="0"/>
        <pt x="113" y="68" on="1"/>
        <pt x="119" y="53" on="0"/>
        <pt x="104" y="20" on="0"/>
        <pt x="76" y="-1" on="0"/>
        <pt x="44" y="-4" on="0"/>
      </contour>
      <contour>
        <pt x="181" y="11" on="1"/>
        <pt x="166" y="32" on="0"/>
        <pt x="180" y="75" on="0"/>
        <pt x="212" y="98" on="0"/>
        <pt x="250" y="93" on="0"/>
        <pt x="260" y="68" on="1"/>
        <pt x="266" y="53" on="0"/>
        <pt x="250" y="20" on="0"/>
        <pt x="222" y="-1" on="0"/>
        <pt x="191" y="-4" on="0"/>
      </contour>
      <contour>
        <pt x="328" y="11" on="1"/>
        <pt x="313" y="32" on="0"/>
        <pt x="326" y="75" on="0"/>
        <pt x="358" y="98" on="0"/>
        <pt x="396" y="93" on="0"/>
        <pt x="406" y="68" on="1"/>
        <pt x="412" y="53" on="0"/>
        <pt x="396" y="20" on="0"/>
        <pt x="369" y="-1" on="0"/>
        <pt x="338" y="-4" on="0"/>
      </contour>
    </TTGlyph>
    <TTGlyph name="emdash" xMin="32" yMin="196" xMax="621" yMax="272">
      <contour>
        <pt x="43" y="208" on="1"/>
        <pt x="41" y="209" on="0"/>
        <pt x="33" y="217" on="0"/>
        <pt x="32" y="219" on="1"/>
        <pt x="33" y="222" on="0"/>
        <pt x="83" y="233" on="0"/>
        <pt x="164" y="245" on="0"/>
        <pt x="267" y="257" on="0"/>
        <pt x="375" y="266" on="0"/>
        <pt x="479" y="272" on="0"/>
        <pt x="563" y="271" on="0"/>
        <pt x="616" y="263" on="0"/>
        <pt x="619" y="253" on="1"/>
        <pt x="621" y="251" on="0"/>
        <pt x="621" y="233" on="0"/>
        <pt x="619" y="230" on="1"/>
        <pt x="601" y="229" on="0"/>
        <pt x="523" y="224" on="0"/>
        <pt x="425" y="217" on="0"/>
        <pt x="317" y="210" on="0"/>
        <pt x="219" y="203" on="0"/>
        <pt x="141" y="198" on="0"/>
        <pt x="122" y="197" on="1"/>
        <pt x="98" y="195" on="0"/>
        <pt x="65" y="197" on="0"/>
      </contour>
    </TTGlyph>
    <TTGlyph name="endash" xMin="24" yMin="192" xMax="469" yMax="259">
      <contour>
        <pt x="35" y="204" on="1"/>
        <pt x="33" y="205" on="0"/>
        <pt x="25" y="213" on="0"/>
        <pt x="24" y="215" on="1"/>
        <pt x="25" y="219" on="0"/>
        <pt x="89" y="233" on="0"/>
        <pt x="185" y="247" on="0"/>
        <pt x="297" y="257" on="0"/>
        <pt x="394" y="260" on="0"/>
        <pt x="463" y="251" on="0"/>
        <pt x="467" y="238" on="1"/>
        <pt x="469" y="236" on="0"/>
        <pt x="469" y="218" on="0"/>
        <pt x="467" y="215" on="1"/>
        <pt x="439" y="213" on="0"/>
        <pt x="343" y="207" on="0"/>
        <pt x="238" y="201" on="0"/>
        <pt x="142" y="195" on="0"/>
        <pt x="114" y="193" on="1"/>
        <pt x="89" y="191" on="0"/>
        <pt x="57" y="193" on="0"/>
      </contour>
    </TTGlyph>
    <TTGlyph name="equal" xMin="23" yMin="0" xMax="407" yMax="295">
      <contour>
        <pt x="23" y="23" on="1"/>
        <pt x="17" y="32" on="0"/>
        <pt x="44" y="47" on="0"/>
        <pt x="93" y="59" on="0"/>
        <pt x="153" y="69" on="0"/>
        <pt x="207" y="75" on="0"/>
        <pt x="246" y="79" on="0"/>
        <pt x="249" y="79" on="1"/>
        <pt x="257" y="79" on="0"/>
        <pt x="299" y="80" on="0"/>
        <pt x="346" y="80" on="0"/>
        <pt x="388" y="79" on="0"/>
        <pt x="396" y="79" on="1"/>
        <pt x="401" y="76" on="0"/>
        <pt x="410" y="64" on="0"/>
        <pt x="407" y="57" on="1"/>
        <pt x="370" y="52" on="0"/>
        <pt x="273" y="36" on="0"/>
        <pt x="177" y="19" on="0"/>
        <pt x="93" y="4" on="0"/>
        <pt x="68" y="0" on="1"/>
        <pt x="50" y="-3" on="0"/>
        <pt x="34" y="6" on="0"/>
      </contour>
      <contour>
        <pt x="79" y="248" on="1"/>
        <pt x="85" y="260" on="0"/>
        <pt x="131" y="280" on="0"/>
        <pt x="193" y="292" on="0"/>
        <pt x="264" y="297" on="0"/>
        <pt x="327" y="291" on="0"/>
        <pt x="375" y="274" on="0"/>
        <pt x="384" y="260" on="1"/>
        <pt x="380" y="255" on="0"/>
        <pt x="334" y="245" on="0"/>
        <pt x="269" y="236" on="0"/>
        <pt x="194" y="230" on="0"/>
        <pt x="129" y="231" on="0"/>
        <pt x="83" y="239" on="0"/>
      </contour>
    </TTGlyph>
    <TTGlyph name="eth" xMin="8" yMin="-15" xMax="309" yMax="435">
      <contour>
        <pt x="239" y="423" on="1"/>
        <pt x="252" y="414" on="0"/>
        <pt x="263" y="405" on="0"/>
        <pt x="256" y="392" on="0"/>
        <pt x="230" y="367" on="0"/>
        <pt x="206" y="342" on="1"/>
        <pt x="231" y="312" on="0"/>
        <pt x="277" y="230" on="0"/>
        <pt x="305" y="146" on="0"/>
        <pt x="312" y="69" on="0"/>
        <pt x="298" y="45" on="1"/>
        <pt x="273" y="9" on="0"/>
        <pt x="216" y="-18" on="0"/>
        <pt x="157" y="-12" on="0"/>
        <pt x="101" y="21" on="0"/>
        <pt x="54" y="70" on="0"/>
        <pt x="20" y="130" on="0"/>
        <pt x="5" y="190" on="0"/>
        <pt x="12" y="244" on="0"/>
        <pt x="30" y="262" on="1"/>
        <pt x="54" y="280" on="0"/>
        <pt x="109" y="272" on="0"/>
        <pt x="166" y="240" on="0"/>
        <pt x="224" y="198" on="0"/>
        <pt x="250" y="182" on="1"/>
        <pt x="254" y="193" on="0"/>
        <pt x="244" y="225" on="0"/>
        <pt x="224" y="262" on="0"/>
        <pt x="195" y="300" on="0"/>
        <pt x="180" y="318" on="1"/>
        <pt x="169" y="307" on="0"/>
        <pt x="147" y="292" on="0"/>
        <pt x="139" y="287" on="1"/>
        <pt x="125" y="280" on="0"/>
        <pt x="136" y="316" on="0"/>
        <pt x="153" y="346" on="1"/>
        <pt x="129" y="370" on="0"/>
        <pt x="114" y="378" on="1"/>
        <pt x="88" y="402" on="0"/>
        <pt x="82" y="430" on="0"/>
        <pt x="100" y="439" on="0"/>
        <pt x="132" y="428" on="0"/>
        <pt x="146" y="412" on="1"/>
        <pt x="153" y="404" on="0"/>
        <pt x="175" y="377" on="0"/>
        <pt x="182" y="369" on="1"/>
      </contour>
      <contour>
        <pt x="241" y="45" on="1"/>
        <pt x="247" y="62" on="0"/>
        <pt x="238" y="105" on="0"/>
        <pt x="213" y="148" on="0"/>
        <pt x="175" y="186" on="0"/>
        <pt x="128" y="213" on="0"/>
        <pt x="75" y="224" on="0"/>
        <pt x="48" y="217" on="1"/>
        <pt x="43" y="197" on="0"/>
        <pt x="60" y="142" on="0"/>
        <pt x="93" y="88" on="0"/>
        <pt x="138" y="42" on="0"/>
        <pt x="184" y="17" on="0"/>
        <pt x="226" y="21" on="0"/>
      </contour>
    </TTGlyph>
    <TTGlyph name="exclam" xMin="9" yMin="2" xMax="239" yMax="757">
      <contour>
        <pt x="11" y="23" on="1"/>
        <pt x="3" y="35" on="0"/>
        <pt x="16" y="63" on="0"/>
        <pt x="40" y="82" on="0"/>
        <pt x="64" y="83" on="0"/>
        <pt x="68" y="68" on="1"/>
        <pt x="72" y="53" on="0"/>
        <pt x="65" y="21" on="0"/>
        <pt x="48" y="1" on="0"/>
        <pt x="24" y="3" on="0"/>
      </contour>
      <contour>
        <pt x="68" y="305" on="1"/>
        <pt x="66" y="311" on="0"/>
        <pt x="74" y="359" on="0"/>
        <pt x="90" y="428" on="0"/>
        <pt x="114" y="512" on="0"/>
        <pt x="142" y="596" on="0"/>
        <pt x="172" y="674" on="0"/>
        <pt x="201" y="732" on="0"/>
        <pt x="228" y="762" on="0"/>
        <pt x="239" y="757" on="1"/>
        <pt x="240" y="752" on="0"/>
        <pt x="231" y="695" on="0"/>
        <pt x="213" y="612" on="0"/>
        <pt x="188" y="512" on="0"/>
        <pt x="161" y="416" on="0"/>
        <pt x="131" y="333" on="0"/>
        <pt x="103" y="283" on="0"/>
        <pt x="77" y="277" on="0"/>
      </contour>
    </TTGlyph>
    <TTGlyph name="exclamdown" xMin="14" yMin="-7" xMax="243" yMax="673">
      <component glyphName="exclam" x="5" y="674" scalex="0.993835449219" scaley="-0.898681640625" flags="0x1004"/>
    </TTGlyph>
    <TTGlyph name="f" xMin="17" yMin="0" xMax="616" yMax="774">
      <contour>
        <pt x="40" y="23" on="1"/>
        <pt x="38" y="25" on="0"/>
        <pt x="38" y="43" on="0"/>
        <pt x="40" y="45" on="1"/>
        <pt x="124" y="238" on="1"/>
        <pt x="29" y="238" on="1"/>
        <pt x="26" y="238" on="0"/>
        <pt x="21" y="246" on="0"/>
        <pt x="18" y="257" on="0"/>
        <pt x="16" y="268" on="0"/>
        <pt x="18" y="271" on="1"/>
        <pt x="21" y="272" on="0"/>
        <pt x="37" y="278" on="0"/>
        <pt x="55" y="286" on="0"/>
        <pt x="71" y="292" on="0"/>
        <pt x="74" y="294" on="1"/>
        <pt x="77" y="295" on="0"/>
        <pt x="104" y="305" on="0"/>
        <pt x="135" y="316" on="0"/>
        <pt x="161" y="326" on="0"/>
        <pt x="164" y="328" on="1"/>
        <pt x="176" y="336" on="0"/>
        <pt x="209" y="399" on="0"/>
        <pt x="251" y="487" on="0"/>
        <pt x="301" y="588" on="0"/>
        <pt x="359" y="681" on="0"/>
        <pt x="423" y="754" on="0"/>
        <pt x="492" y="785" on="0"/>
        <pt x="566" y="763" on="0"/>
        <pt x="605" y="715" on="1"/>
        <pt x="612" y="705" on="0"/>
        <pt x="618" y="682" on="0"/>
        <pt x="616" y="670" on="1"/>
        <pt x="607" y="665" on="0"/>
        <pt x="589" y="671" on="0"/>
        <pt x="574" y="685" on="0"/>
        <pt x="562" y="700" on="0"/>
        <pt x="560" y="704" on="1"/>
        <pt x="493" y="715" on="0"/>
        <pt x="414" y="682" on="0"/>
        <pt x="363" y="615" on="0"/>
        <pt x="325" y="523" on="0"/>
        <pt x="300" y="474" on="1"/>
        <pt x="293" y="462" on="0"/>
        <pt x="274" y="424" on="0"/>
        <pt x="256" y="388" on="0"/>
        <pt x="243" y="362" on="0"/>
        <pt x="243" y="362" on="1"/>
        <pt x="243" y="350" on="1"/>
        <pt x="243" y="346" on="0"/>
        <pt x="293" y="342" on="0"/>
        <pt x="356" y="334" on="0"/>
        <pt x="415" y="319" on="0"/>
        <pt x="424" y="305" on="1"/>
        <pt x="413" y="294" on="1"/>
        <pt x="356" y="297" on="0"/>
        <pt x="278" y="295" on="0"/>
        <pt x="220" y="271" on="0"/>
        <pt x="176" y="218" on="0"/>
        <pt x="153" y="170" on="1"/>
        <pt x="145" y="153" on="0"/>
        <pt x="119" y="100" on="0"/>
        <pt x="93" y="49" on="0"/>
        <pt x="75" y="12" on="0"/>
        <pt x="74" y="11" on="1"/>
        <pt x="62" y="0" on="1"/>
        <pt x="59" y="2" on="0"/>
        <pt x="42" y="19" on="0"/>
      </contour>
    </TTGlyph>
    <TTGlyph name="fi" xMin="17" yMin="-34" xMax="616" yMax="774">
      <component glyphName="f" x="0" y="0" flags="0x1004"/>
      <component glyphName="i" x="270" y="-33" flags="0x1004"/>
    </TTGlyph>
    <TTGlyph name="five" xMin="18" yMin="7" xMax="517" yMax="599">
      <contour>
        <pt x="74" y="11" on="1"/>
        <pt x="66" y="13" on="0"/>
        <pt x="47" y="20" on="0"/>
        <pt x="30" y="30" on="0"/>
        <pt x="18" y="46" on="0"/>
        <pt x="18" y="57" on="1"/>
        <pt x="18" y="62" on="0"/>
        <pt x="55" y="59" on="0"/>
        <pt x="102" y="51" on="0"/>
        <pt x="146" y="44" on="0"/>
        <pt x="153" y="45" on="1"/>
        <pt x="210" y="51" on="0"/>
        <pt x="313" y="105" on="0"/>
        <pt x="389" y="188" on="0"/>
        <pt x="430" y="293" on="0"/>
        <pt x="424" y="350" on="1"/>
        <pt x="409" y="380" on="0"/>
        <pt x="355" y="395" on="0"/>
        <pt x="291" y="382" on="0"/>
        <pt x="223" y="352" on="0"/>
        <pt x="165" y="322" on="0"/>
        <pt x="124" y="301" on="0"/>
        <pt x="118" y="305" on="1"/>
        <pt x="102" y="316" on="0"/>
        <pt x="94" y="339" on="0"/>
        <pt x="99" y="365" on="0"/>
        <pt x="112" y="392" on="0"/>
        <pt x="118" y="407" on="1"/>
        <pt x="119" y="410" on="0"/>
        <pt x="134" y="445" on="0"/>
        <pt x="154" y="490" on="0"/>
        <pt x="177" y="532" on="0"/>
        <pt x="186" y="542" on="1"/>
        <pt x="204" y="560" on="0"/>
        <pt x="281" y="576" on="0"/>
        <pt x="369" y="584" on="0"/>
        <pt x="454" y="590" on="0"/>
        <pt x="481" y="599" on="1"/>
        <pt x="505" y="607" on="0"/>
        <pt x="525" y="587" on="0"/>
        <pt x="509" y="555" on="0"/>
        <pt x="453" y="523" on="0"/>
        <pt x="402" y="519" on="1"/>
        <pt x="393" y="519" on="0"/>
        <pt x="348" y="516" on="0"/>
        <pt x="297" y="512" on="0"/>
        <pt x="252" y="509" on="0"/>
        <pt x="243" y="509" on="1"/>
        <pt x="234" y="502" on="0"/>
        <pt x="212" y="478" on="0"/>
        <pt x="194" y="450" on="0"/>
        <pt x="183" y="420" on="0"/>
        <pt x="186" y="407" on="1"/>
        <pt x="209" y="402" on="0"/>
        <pt x="256" y="412" on="0"/>
        <pt x="303" y="426" on="0"/>
        <pt x="352" y="436" on="0"/>
        <pt x="378" y="430" on="1"/>
        <pt x="429" y="419" on="0"/>
        <pt x="480" y="365" on="0"/>
        <pt x="488" y="294" on="0"/>
        <pt x="458" y="212" on="0"/>
        <pt x="400" y="133" on="0"/>
        <pt x="320" y="63" on="0"/>
        <pt x="226" y="16" on="0"/>
        <pt x="124" y="-2" on="0"/>
      </contour>
    </TTGlyph>
    <TTGlyph name="fl" xMin="17" yMin="0" xMax="643" yMax="774">
      <component glyphName="f" x="0" y="0" flags="0x1004"/>
      <component glyphName="l" x="337" y="-3" flags="0x1004"/>
    </TTGlyph>
    <TTGlyph name="florin" xMin="-68" yMin="-223" xMax="695" yMax="837">
      <contour>
        <pt x="-62" y="-165" on="1"/>
        <pt x="-62" y="-164" on="0"/>
        <pt x="-34" y="-172" on="0"/>
        <pt x="0" y="-183" on="0"/>
        <pt x="30" y="-191" on="0"/>
        <pt x="30" y="-190" on="1"/>
        <pt x="153" y="250" on="1"/>
        <pt x="29" y="238" on="1"/>
        <pt x="26" y="238" on="0"/>
        <pt x="21" y="246" on="0"/>
        <pt x="18" y="257" on="0"/>
        <pt x="16" y="268" on="0"/>
        <pt x="18" y="271" on="1"/>
        <pt x="21" y="272" on="0"/>
        <pt x="37" y="278" on="0"/>
        <pt x="55" y="286" on="0"/>
        <pt x="71" y="292" on="0"/>
        <pt x="74" y="294" on="1"/>
        <pt x="77" y="295" on="0"/>
        <pt x="104" y="305" on="0"/>
        <pt x="135" y="316" on="0"/>
        <pt x="161" y="326" on="0"/>
        <pt x="164" y="328" on="1"/>
        <pt x="176" y="336" on="0"/>
        <pt x="216" y="405" on="0"/>
        <pt x="269" y="502" on="0"/>
        <pt x="333" y="615" on="0"/>
        <pt x="406" y="720" on="0"/>
        <pt x="484" y="804" on="0"/>
        <pt x="564" y="845" on="0"/>
        <pt x="645" y="828" on="0"/>
        <pt x="684" y="780" on="1"/>
        <pt x="700" y="760" on="0"/>
        <pt x="695" y="735" on="1"/>
        <pt x="686" y="730" on="0"/>
        <pt x="668" y="736" on="0"/>
        <pt x="653" y="749" on="0"/>
        <pt x="641" y="765" on="0"/>
        <pt x="639" y="769" on="1"/>
        <pt x="572" y="780" on="0"/>
        <pt x="468" y="727" on="0"/>
        <pt x="387" y="635" on="0"/>
        <pt x="325" y="523" on="0"/>
        <pt x="300" y="474" on="1"/>
        <pt x="293" y="462" on="0"/>
        <pt x="274" y="424" on="0"/>
        <pt x="256" y="388" on="0"/>
        <pt x="243" y="362" on="0"/>
        <pt x="243" y="362" on="1"/>
        <pt x="243" y="350" on="1"/>
        <pt x="243" y="346" on="0"/>
        <pt x="293" y="342" on="0"/>
        <pt x="356" y="334" on="0"/>
        <pt x="415" y="319" on="0"/>
        <pt x="424" y="305" on="1"/>
        <pt x="413" y="294" on="1"/>
        <pt x="356" y="297" on="0"/>
        <pt x="284" y="293" on="0"/>
        <pt x="233" y="265" on="0"/>
        <pt x="194" y="209" on="0"/>
        <pt x="171" y="161" on="1"/>
        <pt x="166" y="150" on="0"/>
        <pt x="146" y="84" on="0"/>
        <pt x="122" y="-1" on="0"/>
        <pt x="98" y="-94" on="0"/>
        <pt x="78" y="-171" on="0"/>
        <pt x="64" y="-222" on="0"/>
        <pt x="64" y="-223" on="1"/>
        <pt x="-67" y="-206" on="1"/>
        <pt x="-69" y="-205" on="0"/>
        <pt x="-67" y="-194" on="0"/>
        <pt x="-64" y="-180" on="0"/>
        <pt x="-61" y="-167" on="0"/>
      </contour>
    </TTGlyph>
    <TTGlyph name="four" xMin="18" yMin="10" xMax="512" yMax="633">
      <contour>
        <pt x="266" y="23" on="1"/>
        <pt x="259" y="57" on="0"/>
        <pt x="281" y="126" on="0"/>
        <pt x="309" y="194" on="0"/>
        <pt x="330" y="261" on="0"/>
        <pt x="322" y="294" on="1"/>
        <pt x="302" y="297" on="0"/>
        <pt x="250" y="284" on="0"/>
        <pt x="195" y="264" on="0"/>
        <pt x="139" y="244" on="0"/>
        <pt x="87" y="237" on="0"/>
        <pt x="44" y="249" on="0"/>
        <pt x="29" y="271" on="1"/>
        <pt x="16" y="291" on="0"/>
        <pt x="21" y="342" on="0"/>
        <pt x="46" y="401" on="0"/>
        <pt x="84" y="465" on="0"/>
        <pt x="123" y="527" on="0"/>
        <pt x="156" y="585" on="0"/>
        <pt x="164" y="610" on="1"/>
        <pt x="187" y="616" on="0"/>
        <pt x="208" y="605" on="0"/>
        <pt x="211" y="580" on="0"/>
        <pt x="200" y="546" on="0"/>
        <pt x="184" y="512" on="0"/>
        <pt x="168" y="482" on="0"/>
        <pt x="164" y="474" on="1"/>
        <pt x="159" y="466" on="0"/>
        <pt x="137" y="424" on="0"/>
        <pt x="112" y="378" on="0"/>
        <pt x="89" y="336" on="0"/>
        <pt x="85" y="328" on="1"/>
        <pt x="85" y="305" on="1"/>
        <pt x="109" y="302" on="0"/>
        <pt x="163" y="311" on="0"/>
        <pt x="216" y="326" on="0"/>
        <pt x="267" y="344" on="0"/>
        <pt x="288" y="350" on="1"/>
        <pt x="337" y="364" on="0"/>
        <pt x="396" y="420" on="0"/>
        <pt x="435" y="495" on="0"/>
        <pt x="463" y="585" on="0"/>
        <pt x="481" y="633" on="1"/>
        <pt x="504" y="640" on="0"/>
        <pt x="516" y="613" on="0"/>
        <pt x="508" y="563" on="0"/>
        <pt x="485" y="498" on="0"/>
        <pt x="462" y="438" on="0"/>
        <pt x="445" y="391" on="0"/>
        <pt x="446" y="384" on="1"/>
        <pt x="463" y="390" on="0"/>
        <pt x="496" y="379" on="0"/>
        <pt x="503" y="362" on="1"/>
        <pt x="497" y="348" on="0"/>
        <pt x="470" y="338" on="0"/>
        <pt x="440" y="330" on="0"/>
        <pt x="411" y="319" on="0"/>
        <pt x="402" y="305" on="1"/>
        <pt x="381" y="272" on="0"/>
        <pt x="351" y="200" on="0"/>
        <pt x="327" y="124" on="0"/>
        <pt x="309" y="47" on="0"/>
        <pt x="300" y="11" on="1"/>
        <pt x="293" y="9" on="0"/>
        <pt x="268" y="12" on="0"/>
      </contour>
    </TTGlyph>
    <TTGlyph name="fraction" xMin="23" yMin="-1" xMax="294" yMax="670">
      <contour>
        <pt x="23" y="11" on="1"/>
        <pt x="17" y="49" on="0"/>
        <pt x="36" y="156" on="0"/>
        <pt x="76" y="277" on="0"/>
        <pt x="130" y="405" on="0"/>
        <pt x="187" y="525" on="0"/>
        <pt x="240" y="630" on="0"/>
        <pt x="260" y="667" on="1"/>
        <pt x="271" y="674" on="0"/>
        <pt x="285" y="666" on="0"/>
        <pt x="293" y="649" on="0"/>
        <pt x="295" y="628" on="0"/>
        <pt x="294" y="622" on="1"/>
        <pt x="288" y="609" on="0"/>
        <pt x="259" y="545" on="0"/>
        <pt x="227" y="473" on="0"/>
        <pt x="198" y="409" on="0"/>
        <pt x="193" y="396" on="1"/>
        <pt x="188" y="386" on="0"/>
        <pt x="169" y="337" on="0"/>
        <pt x="147" y="283" on="0"/>
        <pt x="128" y="235" on="0"/>
        <pt x="125" y="226" on="1"/>
        <pt x="120" y="212" on="0"/>
        <pt x="106" y="155" on="0"/>
        <pt x="88" y="90" on="0"/>
        <pt x="68" y="29" on="0"/>
        <pt x="57" y="11" on="1"/>
        <pt x="54" y="8" on="0"/>
        <pt x="44" y="1" on="0"/>
        <pt x="34" y="-2" on="0"/>
        <pt x="24" y="3" on="0"/>
      </contour>
    </TTGlyph>
    <TTGlyph name="g" xMin="-230" yMin="-290" xMax="334" yMax="472">
      <contour>
        <pt x="-136" y="-282" on="1"/>
        <pt x="-167" y="-271" on="0"/>
        <pt x="-206" y="-227" on="0"/>
        <pt x="-227" y="-176" on="0"/>
        <pt x="-232" y="-124" on="0"/>
        <pt x="-225" y="-84" on="0"/>
        <pt x="-208" y="-63" on="0"/>
        <pt x="-197" y="-68" on="1"/>
        <pt x="-198" y="-155" on="0"/>
        <pt x="-155" y="-244" on="0"/>
        <pt x="-86" y="-267" on="0"/>
        <pt x="1" y="-233" on="0"/>
        <pt x="90" y="-162" on="0"/>
        <pt x="171" y="-63" on="0"/>
        <pt x="227" y="44" on="0"/>
        <pt x="251" y="149" on="0"/>
        <pt x="238" y="192" on="1"/>
        <pt x="148" y="127" on="0"/>
        <pt x="48" y="93" on="0"/>
        <pt x="9" y="124" on="0"/>
        <pt x="23" y="204" on="0"/>
        <pt x="69" y="300" on="0"/>
        <pt x="139" y="397" on="0"/>
        <pt x="213" y="463" on="0"/>
        <pt x="282" y="481" on="0"/>
        <pt x="305" y="451" on="1"/>
        <pt x="328" y="420" on="0"/>
        <pt x="340" y="315" on="0"/>
        <pt x="322" y="187" on="0"/>
        <pt x="277" y="47" on="0"/>
        <pt x="211" y="-86" on="0"/>
        <pt x="126" y="-200" on="0"/>
        <pt x="28" y="-276" on="0"/>
        <pt x="-80" y="-303" on="0"/>
      </contour>
      <contour>
        <pt x="68" y="214" on="1"/>
        <pt x="67" y="211" on="0"/>
        <pt x="66" y="195" on="0"/>
        <pt x="66" y="177" on="0"/>
        <pt x="67" y="161" on="0"/>
        <pt x="68" y="158" on="1"/>
        <pt x="100" y="150" on="0"/>
        <pt x="168" y="196" on="0"/>
        <pt x="225" y="268" on="0"/>
        <pt x="264" y="348" on="0"/>
        <pt x="273" y="402" on="0"/>
        <pt x="243" y="409" on="0"/>
        <pt x="203" y="373" on="1"/>
        <pt x="191" y="362" on="0"/>
        <pt x="151" y="324" on="0"/>
        <pt x="110" y="280" on="0"/>
        <pt x="75" y="233" on="0"/>
      </contour>
    </TTGlyph>
    <TTGlyph name="gbreve" xMin="-230" yMin="-290" xMax="334" yMax="634">
      <component glyphName="g" x="0" y="0" flags="0x1204"/>
      <component glyphName="breve" x="66" y="34" flags="0x1004"/>
    </TTGlyph>
    <TTGlyph name="gcircumflex" xMin="-230" yMin="-290" xMax="381" yMax="808">
      <component glyphName="g" x="0" y="0" flags="0x1204"/>
      <component glyphName="circumflex" x="101" y="151" flags="0x1004"/>
    </TTGlyph>
    <TTGlyph name="gdotaccent" xMin="-230" yMin="-290" xMax="334" yMax="626">
      <component glyphName="g" x="0" y="0" flags="0x1204"/>
      <component glyphName="dotaccent" x="106" y="131" flags="0x1004"/>
    </TTGlyph>
    <TTGlyph name="germandbls" xMin="26" yMin="-120" xMax="642" yMax="901">
      <contour>
        <pt x="235" y="633" on="1"/>
        <pt x="200" y="556" on="0"/>
        <pt x="133" y="371" on="0"/>
        <pt x="86" y="174" on="0"/>
        <pt x="68" y="-27" on="0"/>
        <pt x="83" y="-120" on="1"/>
        <pt x="57" y="-119" on="0"/>
        <pt x="30" y="-60" on="0"/>
        <pt x="22" y="23" on="0"/>
        <pt x="32" y="111" on="0"/>
        <pt x="45" y="142" on="1"/>
        <pt x="48" y="149" on="0"/>
        <pt x="58" y="194" on="0"/>
        <pt x="71" y="256" on="0"/>
        <pt x="85" y="326" on="0"/>
        <pt x="97" y="388" on="0"/>
        <pt x="107" y="434" on="0"/>
        <pt x="110" y="441" on="1"/>
        <pt x="123" y="471" on="0"/>
        <pt x="120" y="517" on="0"/>
        <pt x="114" y="557" on="0"/>
        <pt x="116" y="597" on="0"/>
        <pt x="134" y="622" on="1"/>
        <pt x="136" y="625" on="0"/>
        <pt x="156" y="648" on="0"/>
        <pt x="179" y="675" on="0"/>
        <pt x="199" y="698" on="0"/>
        <pt x="202" y="701" on="1"/>
        <pt x="207" y="708" on="0"/>
        <pt x="255" y="742" on="0"/>
        <pt x="324" y="786" on="0"/>
        <pt x="408" y="834" on="0"/>
        <pt x="493" y="874" on="0"/>
        <pt x="570" y="900" on="0"/>
        <pt x="625" y="902" on="0"/>
        <pt x="651" y="873" on="0"/>
        <pt x="642" y="837" on="1"/>
        <pt x="633" y="802" on="0"/>
        <pt x="593" y="739" on="0"/>
        <pt x="539" y="679" on="0"/>
        <pt x="477" y="622" on="0"/>
        <pt x="417" y="565" on="0"/>
        <pt x="366" y="508" on="0"/>
        <pt x="350" y="479" on="1"/>
        <pt x="465" y="475" on="0"/>
        <pt x="590" y="432" on="0"/>
        <pt x="634" y="368" on="0"/>
        <pt x="610" y="289" on="0"/>
        <pt x="540" y="211" on="0"/>
        <pt x="436" y="141" on="0"/>
        <pt x="322" y="92" on="0"/>
        <pt x="210" y="72" on="0"/>
        <pt x="167" y="83" on="1"/>
        <pt x="175" y="114" on="1"/>
        <pt x="271" y="114" on="0"/>
        <pt x="416" y="159" on="0"/>
        <pt x="514" y="226" on="0"/>
        <pt x="565" y="306" on="0"/>
        <pt x="568" y="377" on="0"/>
        <pt x="523" y="428" on="0"/>
        <pt x="429" y="437" on="0"/>
        <pt x="287" y="393" on="0"/>
        <pt x="191" y="334" on="1"/>
        <pt x="211" y="443" on="1"/>
        <pt x="243" y="470" on="0"/>
        <pt x="327" y="542" on="0"/>
        <pt x="415" y="621" on="0"/>
        <pt x="499" y="701" on="0"/>
        <pt x="561" y="773" on="0"/>
        <pt x="593" y="831" on="0"/>
        <pt x="586" y="847" on="1"/>
        <pt x="542" y="854" on="0"/>
        <pt x="442" y="811" on="0"/>
        <pt x="345" y="742" on="0"/>
        <pt x="262" y="662" on="0"/>
      </contour>
    </TTGlyph>
    <TTGlyph name="grave" xMin="45" yMin="402" xMax="173" yMax="544">
      <contour>
        <pt x="118" y="428" on="1"/>
        <pt x="104" y="452" on="0"/>
        <pt x="74" y="472" on="0"/>
        <pt x="51" y="488" on="0"/>
        <pt x="40" y="514" on="0"/>
        <pt x="46" y="544" on="1"/>
        <pt x="68" y="546" on="0"/>
        <pt x="112" y="516" on="0"/>
        <pt x="149" y="474" on="0"/>
        <pt x="172" y="429" on="0"/>
        <pt x="174" y="402" on="0"/>
        <pt x="148" y="403" on="0"/>
      </contour>
    </TTGlyph>
    <TTGlyph name="greater" xMin="28" yMin="0" xMax="312" yMax="576">
      <contour>
        <pt x="39" y="23" on="1"/>
        <pt x="29" y="42" on="0"/>
        <pt x="57" y="90" on="0"/>
        <pt x="109" y="144" on="0"/>
        <pt x="173" y="202" on="0"/>
        <pt x="227" y="259" on="0"/>
        <pt x="260" y="314" on="0"/>
        <pt x="254" y="339" on="1"/>
        <pt x="253" y="341" on="0"/>
        <pt x="217" y="370" on="0"/>
        <pt x="166" y="412" on="0"/>
        <pt x="106" y="461" on="0"/>
        <pt x="57" y="507" on="0"/>
        <pt x="26" y="545" on="0"/>
        <pt x="28" y="554" on="1"/>
        <pt x="29" y="558" on="0"/>
        <pt x="46" y="575" on="0"/>
        <pt x="50" y="576" on="1"/>
        <pt x="71" y="560" on="0"/>
        <pt x="138" y="517" on="0"/>
        <pt x="208" y="468" on="0"/>
        <pt x="272" y="413" on="0"/>
        <pt x="310" y="354" on="0"/>
        <pt x="313" y="291" on="0"/>
        <pt x="287" y="260" on="1"/>
        <pt x="279" y="250" on="0"/>
        <pt x="249" y="213" on="0"/>
        <pt x="212" y="169" on="0"/>
        <pt x="173" y="123" on="0"/>
        <pt x="138" y="82" on="0"/>
        <pt x="112" y="51" on="0"/>
        <pt x="107" y="45" on="1"/>
        <pt x="105" y="42" on="0"/>
        <pt x="92" y="29" on="0"/>
        <pt x="78" y="15" on="0"/>
        <pt x="65" y="2" on="0"/>
        <pt x="62" y="0" on="1"/>
        <pt x="59" y="2" on="0"/>
        <pt x="41" y="19" on="0"/>
      </contour>
    </TTGlyph>
    <TTGlyph name="guillemotleft" xMin="12" yMin="2" xMax="640" yMax="603">
      <contour>
        <pt x="396" y="11" on="1"/>
        <pt x="315" y="65" on="0"/>
        <pt x="151" y="172" on="0"/>
        <pt x="79" y="238" on="1"/>
        <pt x="63" y="252" on="0"/>
        <pt x="30" y="281" on="0"/>
        <pt x="11" y="311" on="0"/>
        <pt x="14" y="344" on="0"/>
        <pt x="34" y="362" on="1"/>
        <pt x="43" y="370" on="0"/>
        <pt x="80" y="403" on="0"/>
        <pt x="127" y="446" on="0"/>
        <pt x="179" y="492" on="0"/>
        <pt x="225" y="535" on="0"/>
        <pt x="262" y="568" on="0"/>
        <pt x="271" y="576" on="1"/>
        <pt x="276" y="578" on="0"/>
        <pt x="294" y="574" on="0"/>
        <pt x="309" y="565" on="0"/>
        <pt x="314" y="551" on="0"/>
        <pt x="306" y="542" on="1"/>
        <pt x="91" y="328" on="1"/>
        <pt x="80" y="317" on="0"/>
        <pt x="106" y="281" on="0"/>
        <pt x="148" y="245" on="0"/>
        <pt x="189" y="217" on="0"/>
        <pt x="193" y="214" on="1"/>
        <pt x="206" y="205" on="0"/>
        <pt x="273" y="160" on="0"/>
        <pt x="349" y="110" on="0"/>
        <pt x="416" y="65" on="0"/>
        <pt x="430" y="57" on="1"/>
        <pt x="440" y="44" on="0"/>
        <pt x="444" y="19" on="0"/>
        <pt x="433" y="3" on="0"/>
        <pt x="411" y="1" on="0"/>
      </contour>
      <contour>
        <pt x="594" y="38" on="1"/>
        <pt x="514" y="92" on="0"/>
        <pt x="350" y="199" on="0"/>
        <pt x="278" y="265" on="1"/>
        <pt x="262" y="279" on="0"/>
        <pt x="229" y="308" on="0"/>
        <pt x="211" y="338" on="0"/>
        <pt x="214" y="370" on="0"/>
        <pt x="234" y="388" on="1"/>
        <pt x="243" y="396" on="0"/>
        <pt x="280" y="430" on="0"/>
        <pt x="326" y="473" on="0"/>
        <pt x="378" y="519" on="0"/>
        <pt x="424" y="562" on="0"/>
        <pt x="461" y="595" on="0"/>
        <pt x="470" y="603" on="1"/>
        <pt x="475" y="605" on="0"/>
        <pt x="493" y="601" on="0"/>
        <pt x="508" y="592" on="0"/>
        <pt x="513" y="578" on="0"/>
        <pt x="505" y="570" on="1"/>
        <pt x="290" y="354" on="1"/>
        <pt x="283" y="347" on="0"/>
        <pt x="291" y="326" on="0"/>
        <pt x="312" y="302" on="0"/>
        <pt x="341" y="278" on="0"/>
        <pt x="368" y="258" on="0"/>
        <pt x="389" y="243" on="0"/>
        <pt x="391" y="242" on="1"/>
        <pt x="400" y="236" on="0"/>
        <pt x="437" y="211" on="0"/>
        <pt x="483" y="179" on="0"/>
        <pt x="535" y="144" on="0"/>
        <pt x="582" y="113" on="0"/>
        <pt x="619" y="89" on="0"/>
        <pt x="628" y="83" on="1"/>
        <pt x="638" y="70" on="0"/>
        <pt x="642" y="45" on="0"/>
        <pt x="632" y="30" on="0"/>
        <pt x="610" y="28" on="0"/>
      </contour>
    </TTGlyph>
</ttFont>
